Merriweather-RegularDisplay.ufo
<glyph name="exclam" format="2">
  <advance width="406.939226519337"/>
  <unicode hex="0021"/>
  <outline>
    <contour>
      <point x="311.74585635359114" y="1792.9281767955802" type="line"/>
      <point x="95.19337016574586" y="1792.9281767955802" type="line"/>
      <point x="181.49723756906076" y="386.3314917127072" type="line"/>
      <point x="231.4696132596685" y="386.3314917127072" type="line"/>
    </contour>
    <contour>
      <point x="87.46408839779005" y="87.87845303867402" type="curve" smooth="yes"/>
      <point x="87.46408839779005" y="23.29834254143646"/>
      <point x="136.1988950276243" y="-20.30939226519337"/>
      <point x="193.93370165745856" y="-20.30939226519337" type="curve" smooth="yes"/>
      <point x="262.9944751381215" y="-20.30939226519337"/>
      <point x="319.75690607734805" y="28.198895027624307"/>
      <point x="319.75690607734805" y="103.03314917127071" type="curve" smooth="yes"/>
      <point x="319.75690607734805" y="158.76795580110496"/>
      <point x="285.585635359116" y="211.2209944751381"/>
      <point x="213.31491712707182" y="211.2209944751381" type="curve" smooth="yes"/>
      <point x="146.353591160221" y="211.2209944751381"/>
      <point x="87.46408839779005" y="159.3038674033149"/>
    </contour>
  </outline>
</glyph>
<glyph name="numbersign" format="2">
  <advance width="1296.9613259668508"/>
  <unicode hex="0023"/>
  <outline>
    <contour>
      <point x="342.88950276243094" y="415.1546961325967" type="line"/>
      <point x="278.88950276243094" y="2.154696132596685" type="line"/>
      <point x="346.88950276243094" y="2.154696132596685" type="line"/>
      <point x="411.88950276243094" y="415.1546961325967" type="line"/>
      <point x="764.0718232044198" y="415.1546961325967" type="line"/>
      <point x="701.0718232044198" y="2.154696132596685" type="line"/>
      <point x="769.0718232044198" y="2.154696132596685" type="line"/>
      <point x="832.0718232044198" y="415.1546961325967" type="line"/>
      <point x="1085.707182320442" y="415.1546961325967" type="line"/>
      <point x="1106.524861878453" y="567.878453038674" type="line"/>
      <point x="856.8895027624309" y="567.878453038674" type="line"/>
      <point x="921.9723756906077" y="959.4309392265193" type="line"/>
      <point x="1160.889502762431" y="959.4309392265193" type="line"/>
      <point x="1181.707182320442" y="1110.1546961325967" type="line"/>
      <point x="943.0718232044198" y="1110.1546961325967" type="line"/>
      <point x="1013.0718232044198" y="1541.1546961325967" type="line"/>
      <point x="944.0718232044198" y="1541.1546961325967" type="line"/>
      <point x="874.0718232044198" y="1110.1546961325967" type="line"/>
      <point x="522.889502762431" y="1110.1546961325967" type="line"/>
      <point x="590.889502762431" y="1541.1546961325967" type="line"/>
      <point x="522.8895027624309" y="1541.1546961325967" type="line"/>
      <point x="454.88950276243094" y="1110.1546961325967" type="line"/>
      <point x="210.25414364640883" y="1110.1546961325967" type="line"/>
      <point x="189.4364640883978" y="959.4309392265193" type="line"/>
      <point x="431.0718232044199" y="959.4309392265193" type="line"/>
      <point x="367.5524861878453" y="567.878453038674" type="line"/>
      <point x="136.0718232044199" y="567.878453038674" type="line"/>
      <point x="115.25414364640883" y="415.1546961325967" type="line"/>
    </contour>
    <contour>
      <point x="788.889502762431" y="567.878453038674" type="line"/>
      <point x="434.5524861878453" y="567.878453038674" type="line"/>
      <point x="500.0718232044199" y="959.4309392265193" type="line"/>
      <point x="852.9723756906077" y="959.4309392265193" type="line"/>
    </contour>
  </outline>
</glyph>
<glyph name="ampersand" format="2">
  <advance width="1437.5193370165746"/>
  <unicode hex="0026"/>
  <outline>
    <contour>
      <point x="1425.5745856353592" y="815.0718232044198" type="line"/>
      <point x="1041.486187845304" y="815.0718232044198" type="line"/>
      <point x="1041.486187845304" y="767.0718232044198" type="line"/>
      <point x="1172.5690607734807" y="736.5359116022099" type="line"/>
      <point x="1192.6685082872928" y="603.7348066298342"/>
      <point x="1171.232044198895" y="399.1491712707182"/>
      <point x="1062.756906077348" y="268.5303867403315" type="curve"/>
      <point x="1019.767955801105" y="311.36464088397787"/>
      <point x="952.0165745856353" y="394.00552486187837"/>
      <point x="657.0276243093922" y="768.2154696132596" type="curve"/>
      <point x="891.8232044198895" y="908.110497237569"/>
      <point x="1018.0552486187845" y="1026.0662983425414"/>
      <point x="1018.0552486187845" y="1211.0828729281768" type="curve" smooth="yes"/>
      <point x="1018.0552486187845" y="1383.0828729281768"/>
      <point x="876.6740331491712" y="1504.2817679558011"/>
      <point x="670.1602209944751" y="1504.2817679558011" type="curve" smooth="yes"/>
      <point x="431.4088397790055" y="1504.2817679558011"/>
      <point x="260.34806629834253" y="1347.9281767955802"/>
      <point x="260.34806629834253" y="1152.2099447513813" type="curve" smooth="yes"/>
      <point x="260.34806629834253" y="1030.292817679558"/>
      <point x="294.1381215469613" y="931.5027624309392"/>
      <point x="441.5303867403315" y="734.3370165745856" type="curve"/>
      <point x="249.92265193370167" y="647.7182320441989"/>
      <point x="113.45856353591161" y="521.5911602209944"/>
      <point x="113.45856353591161" y="352.1546961325967" type="curve" smooth="yes"/>
      <point x="113.45856353591161" y="122.04419889502762"/>
      <point x="299.56906077348066" y="-17.69060773480663"/>
      <point x="577.5193370165746" y="-17.69060773480663" type="curve" smooth="yes"/>
      <point x="716.3259668508288" y="-17.69060773480663"/>
      <point x="849.3977900552486" y="6.734806629834251"/>
      <point x="957.9281767955802" y="107.8011049723757" type="curve"/>
      <point x="1056.8011049723757" y="15.35359116022099"/>
      <point x="1158.53591160221" y="-12.563535911602209"/>
      <point x="1248.707182320442" y="-12.563535911602209" type="curve" smooth="yes"/>
      <point x="1296.2044198895028" y="-12.563535911602209"/>
      <point x="1354.3370165745855" y="-2.3093922651933703"/>
      <point x="1376.9558011049724" y="9.662983425414364" type="curve"/>
      <point x="1376.9558011049724" y="52.66298342541436" type="line"/>
      <point x="1275.7182320441989" y="67.50828729281767"/>
      <point x="1197.414364640884" y="119.95580110497235"/>
      <point x="1104.0386740331492" y="220.3038674033149" type="curve"/>
      <point x="1203.8563535911603" y="336.7955801104972"/>
      <point x="1303.3204419889503" y="529.2983425414365"/>
      <point x="1301.1657458563536" y="736.5359116022099" type="curve"/>
      <point x="1425.5745856353592" y="767.0718232044198" type="line"/>
    </contour>
    <contour>
      <point x="439.1270718232044" y="1202.6906077348067" type="curve" smooth="yes"/>
      <point x="439.1270718232044" y="1353.9171270718232"/>
      <point x="510.2651933701657" y="1453.46408839779"/>
      <point x="658.6685082872928" y="1453.46408839779" type="curve" smooth="yes"/>
      <point x="788.2707182320443" y="1453.4640883977902"/>
      <point x="848.8453038674033" y="1330.7900552486187"/>
      <point x="854.5911602209945" y="1204.0" type="curve" smooth="yes"/>
      <point x="862.4917127071824" y="1036.9171270718232"/>
      <point x="794.2541436464088" y="926.889502762431"/>
      <point x="617.8287292817679" y="816.9779005524863" type="curve"/>
      <point x="526.3204419889503" y="932.2044198895028"/>
      <point x="439.12707182320435" y="1063.1878453038673"/>
    </contour>
    <contour>
      <point x="635.9502762430939" y="59.18784530386739" type="curve" smooth="yes"/>
      <point x="436.3314917127072" y="63.4972375690607"/>
      <point x="309.3756906077348" y="183.11602209944738"/>
      <point x="300.75690607734805" y="365.34254143646405" type="curve" smooth="yes"/>
      <point x="292.8563535911602" y="505.5635359116022"/>
      <point x="351.1767955801105" y="610.3370165745856"/>
      <point x="482.82872928176795" y="680.6298342541436" type="curve"/>
      <point x="620.817679558011" y="493.7237569060773"/>
      <point x="795.756906077348" y="275.4917127071823"/>
      <point x="915.4198895027624" y="148.36464088397784" type="curve"/>
      <point x="837.3812154696133" y="72.21546961325956"/>
      <point x="730.9889502762431" y="57.03314917127062"/>
    </contour>
  </outline>
</glyph>
<glyph name="parenright" format="2">
  <advance width="779.5303867403314"/>
  <unicode hex="0029"/>
  <outline>
    <contour>
      <point x="670.8563535911602" y="620.0" type="curve" smooth="yes"/>
      <point x="670.8563535911602" y="1293.524861878453"/>
      <point x="249.37016574585635" y="1601.9447513812154"/>
      <point x="155.81767955801104" y="1657.0718232044198" type="curve"/>
      <point x="112.50828729281767" y="1625.353591160221" type="line"/>
      <point x="222.060773480663" y="1547.2375690607735"/>
      <point x="504.2486187845304" y="1199.353591160221"/>
      <point x="489.9668508287293" y="586.5359116022099" type="curve"/>
      <point x="478.83977900552486" y="36.67403314917127"/>
      <point x="214.52486187845304" y="-276.11049723756906"/>
      <point x="117.69060773480663" y="-341.38121546961327" type="curve"/>
      <point x="154.69060773480663" y="-369.0718232044199" type="line"/>
      <point x="264.24309392265195" y="-305.43646408839777"/>
      <point x="670.8563535911602" y="38.983425414364646"/>
    </contour>
  </outline>
</glyph>
<glyph name="asterisk" format="2">
  <advance width="982.220994475138"/>
  <unicode hex="002A"/>
  <outline>
    <contour>
      <point x="300.7679558011049" y="1173.7845303867402" type="line"/>
      <point x="95.82872928176796" y="1077.9558011049724" type="line"/>
      <point x="168.38121546961327" y="952.950276243094" type="line"/>
      <point x="352.29281767955797" y="1087.0883977900553" type="line"/>
      <point x="478.24309392265195" y="1204.1657458563536" type="line"/>
      <point x="443.9171270718232" y="1035.0718232044198" type="line"/>
      <point x="424.76243093922653" y="810.1049723756906" type="line"/>
      <point x="569.1491712707182" y="810.1049723756906" type="line"/>
      <point x="544.5580110497237" y="1036.9171270718232" type="line"/>
      <point x="505.2596685082873" y="1204.1657458563536" type="line"/>
      <point x="634.1823204419888" y="1090.060773480663" type="line"/>
      <point x="819.2486187845303" y="960.6408839779006" type="line"/>
      <point x="891.8011049723757" y="1085.9281767955802" type="line"/>
      <point x="683.2983425414365" y="1177.6022099447514" type="line"/>
      <point x="518.767955801105" y="1228.0552486187846" type="line"/>
      <point x="682.0165745856353" y="1282.3259668508288" type="line"/>
      <point x="886.9558011049724" y="1378.1546961325967" type="line"/>
      <point x="814.4033149171271" y="1503.1602209944751" type="line"/>
      <point x="630.4917127071823" y="1369.0220994475137" type="line"/>
      <point x="504.5414364640884" y="1251.9447513812154" type="line"/>
      <point x="538.867403314917" y="1421.0386740331492" type="line"/>
      <point x="558.0220994475137" y="1646.0055248618785" type="line"/>
      <point x="413.6353591160221" y="1646.0055248618785" type="line"/>
      <point x="438.2265193370166" y="1419.1933701657458" type="line"/>
      <point x="477.524861878453" y="1251.9447513812154" type="line"/>
      <point x="348.6022099447514" y="1366.0497237569061" type="line"/>
      <point x="163.53591160220992" y="1495.4696132596684" type="line"/>
      <point x="90.98342541436463" y="1370.1823204419888" type="line"/>
      <point x="299.48618784530385" y="1278.5082872928176" type="line"/>
      <point x="464.01657458563534" y="1228.0552486187846" type="line"/>
    </contour>
  </outline>
</glyph>
<glyph name="comma" format="2">
  <advance width="469.3038674033149"/>
  <unicode hex="002C"/>
  <outline>
    <contour>
      <point x="224.37016574585635" y="247.8950276243094" type="curve"/>
      <point x="216.9613259668508" y="247.8950276243094" type="line" smooth="yes"/>
      <point x="161.15469613259668" y="247.8950276243094"/>
      <point x="119.08287292817681" y="211.13259668508286"/>
      <point x="119.08287292817681" y="149.5524861878453" type="curve" smooth="yes"/>
      <point x="119.08287292817681" y="40.74585635359116"/>
      <point x="243.8342541436464" y="36.408839779005525"/>
      <point x="243.8342541436464" y="-55.86187845303867" type="curve" smooth="yes"/>
      <point x="243.8342541436464" y="-171.01657458563534"/>
      <point x="179.37016574585635" y="-270.37016574585635"/>
      <point x="109.04419889502762" y="-335.5138121546961" type="curve"/>
      <point x="109.04419889502762" y="-343.5138121546961" type="line"/>
      <point x="138.17127071823202" y="-363.0773480662983" type="line"/>
      <point x="139.45303867403314" y="-362.7955801104972" type="line"/>
      <point x="256.28729281767954" y="-297.5966850828729"/>
      <point x="357.6574585635359" y="-134.17127071823205"/>
      <point x="357.6574585635359" y="44.29834254143646" type="curve" smooth="yes"/>
      <point x="357.6574585635359" y="171.21546961325967"/>
      <point x="298.9226519337017" y="247.8950276243094"/>
    </contour>
  </outline>
</glyph>
<glyph name="hyphen" format="2">
  <advance width="1043.0994475138123"/>
  <unicode hex="002D"/>
  <outline>
    <contour>
      <point x="889.0994475138122" y="612.8618784530387" type="line"/>
      <point x="154.0" y="612.8618784530387" type="line"/>
      <point x="154.0" y="512.2099447513813" type="line"/>
      <point x="889.0994475138122" y="512.2099447513813" type="line"/>
    </contour>
  </outline>
</glyph>
<glyph name="slash" format="2">
  <advance width="722.5027624309392"/>
  <unicode hex="002F"/>
  <outline>
    <contour>
      <point x="677.6298342541436" y="1562.0" type="line"/>
      <point x="589.0939226519337" y="1562.0" type="line"/>
      <point x="44.87292817679558" y="-354.0" type="line"/>
      <point x="133.97237569060775" y="-354.0" type="line"/>
    </contour>
  </outline>
</glyph>
<glyph name="zero" format="2">
  <advance width="1221.7016574585634"/>
  <unicode hex="0030"/>
  <outline>
    <contour>
      <point x="596.6519337016574" y="-18.845303867403313" type="curve" smooth="yes"/>
      <point x="939.1381215469613" y="-18.845303867403313"/>
      <point x="1148.9281767955802" y="273.77348066298345"/>
      <point x="1150.364640883978" y="760.1160220994475" type="curve" smooth="yes"/>
      <point x="1151.8011049723757" y="1216.8232044198894"/>
      <point x="1002.5690607734807" y="1504.2817679558011"/>
      <point x="630.7955801104972" y="1504.2817679558011" type="curve" smooth="yes"/>
      <point x="302.4088397790055" y="1504.2817679558011"/>
      <point x="73.05524861878453" y="1232.3370165745857"/>
      <point x="71.33701657458563" y="740.8397790055249" type="curve" smooth="yes"/>
      <point x="69.61878453038673" y="295.8508287292818"/>
      <point x="225.37016574585635" y="-18.845303867403313"/>
    </contour>
    <contour>
      <point x="609.5414364640884" y="33.12707182320442" type="curve" smooth="yes"/>
      <point x="403.5359116022099" y="33.12707182320442"/>
      <point x="304.6795580110497" y="315.30939226519337"/>
      <point x="304.6795580110497" y="755.0386740331492" type="curve" smooth="yes"/>
      <point x="304.6795580110497" y="1211.867403314917"/>
      <point x="401.7900552486187" y="1450.9005524861877"/>
      <point x="614.1602209944751" y="1450.9005524861877" type="curve" smooth="yes"/>
      <point x="821.9116022099447" y="1450.9005524861877"/>
      <point x="917.0220994475138" y="1205.0"/>
      <point x="917.0220994475138" y="740.5635359116022" type="curve" smooth="yes"/>
      <point x="917.0220994475138" y="288.0773480662983"/>
      <point x="829.828729281768" y="33.12707182320442"/>
    </contour>
  </outline>
</glyph>
<glyph name="two" format="2">
  <advance width="1092.585635359116"/>
  <unicode hex="0032"/>
  <outline>
    <contour>
      <point x="10.983425414364639" y="69.53038674033148" type="curve"/>
      <point x="39.32596685082872" y="0.0" type="line"/>
      <point x="973.9779005524862" y="0.0" type="line"/>
      <point x="1045.4309392265193" y="351.75690607734805" type="line"/>
      <point x="979.9944751381215" y="366.41988950276243" type="line"/>
      <point x="882.0662983425414" y="194.97237569060772" type="line"/>
      <point x="194.20994475138122" y="133.40331491712706" type="line"/>
      <point x="570.8950276243094" y="379.878453038674"/>
      <point x="943.7845303867404" y="746.5745856353591"/>
      <point x="943.7845303867404" y="1102.3370165745857" type="curve" smooth="yes"/>
      <point x="943.7845303867404" y="1363.7182320441989"/>
      <point x="743.8508287292817" y="1502.5635359116022"/>
      <point x="517.3149171270718" y="1502.5635359116022" type="curve" smooth="yes"/>
      <point x="320.58563535911605" y="1502.5635359116022"/>
      <point x="149.6022099447514" y="1394.0773480662983"/>
      <point x="47.61878453038674" y="1226.9723756906078" type="curve"/>
      <point x="86.64640883977901" y="1188.1823204419888" type="line"/>
      <point x="189.41988950276243" y="1322.9944751381215"/>
      <point x="332.8121546961326" y="1383.9944751381215"/>
      <point x="448.2209944751381" y="1383.9944751381215" type="curve" smooth="yes"/>
      <point x="606.9944751381215" y="1383.9944751381215"/>
      <point x="710.4419889502763" y="1273.1767955801106"/>
      <point x="710.4419889502763" y="1061.2762430939226" type="curve" smooth="yes"/>
      <point x="710.4419889502763" y="694.6740331491712"/>
      <point x="379.57458563535914" y="282.48618784530385"/>
    </contour>
  </outline>
</glyph>
<glyph name="three" format="2">
  <advance width="1011.3038674033149"/>
  <unicode hex="0033"/>
  <outline>
    <contour>
      <point x="268.62983425414365" y="-27.12707182320442" type="curve" smooth="yes"/>
      <point x="617.3038674033149" y="-31.43646408839779"/>
      <point x="953.3038674033149" y="139.84530386740332"/>
      <point x="953.3038674033149" y="458.98342541436466" type="curve" smooth="yes"/>
      <point x="953.3038674033149" y="691.0718232044198"/>
      <point x="736.1878453038674" y="852.1381215469613"/>
      <point x="429.30939226519337" y="777.1381215469613" type="curve"/>
      <point x="650.1049723756906" y="846.1933701657458"/>
      <point x="873.7403314917127" y="976.5911602209944"/>
      <point x="873.7403314917127" y="1207.7182320441989" type="curve" smooth="yes"/>
      <point x="873.7403314917127" y="1410.3093922651933"/>
      <point x="682.4861878453039" y="1502.5635359116022"/>
      <point x="472.7955801104972" y="1502.5635359116022" type="curve" smooth="yes"/>
      <point x="284.49723756906076" y="1502.5635359116022"/>
      <point x="123.3977900552486" y="1411.6629834254143"/>
      <point x="31.491712707182323" y="1320.1657458563536" type="curve"/>
      <point x="63.12707182320442" y="1273.6298342541436" type="line"/>
      <point x="152.30939226519337" y="1344.121546961326"/>
      <point x="269.6850828729282" y="1391.1933701657458"/>
      <point x="382.0828729281768" y="1392.6298342541436" type="curve" smooth="yes"/>
      <point x="512.9944751381215" y="1394.7845303867402"/>
      <point x="635.5966850828729" y="1330.3204419889503"/>
      <point x="635.5966850828729" y="1182.375690607735" type="curve" smooth="yes"/>
      <point x="635.5966850828729" y="1029.6298342541436"/>
      <point x="529.950276243094" y="894.292817679558"/>
      <point x="350.15469613259665" y="824.3370165745856" type="curve" smooth="yes"/>
      <point x="308.2817679558011" y="807.7734806629834"/>
      <point x="253.74585635359117" y="791.2375690607735"/>
      <point x="211.90055248618785" y="778.3646408839779" type="curve"/>
      <point x="226.3646408839779" y="710.1381215469613" type="line"/>
      <point x="258.646408839779" y="719.1381215469613"/>
      <point x="333.3922651933702" y="743.5745856353591"/>
      <point x="371.6740331491713" y="754.292817679558" type="curve"/>
      <point x="619.4254143646409" y="783.7403314917127"/>
      <point x="709.9337016574585" y="623.6740331491712"/>
      <point x="710.6519337016575" y="459.292817679558" type="curve" smooth="yes"/>
      <point x="712.0883977900553" y="214.353591160221"/>
      <point x="534.0386740331492" y="41.453038674033145"/>
      <point x="236.4696132596685" y="45.04419889502762" type="curve" smooth="yes"/>
      <point x="169.55248618784532" y="45.76243093922652"/>
      <point x="95.29834254143647" y="57.353591160220994"/>
      <point x="38.30939226519337" y="78.42541436464089" type="curve"/>
      <point x="34.3646408839779" y="15.453038674033145" type="line"/>
      <point x="84.30939226519337" y="-6.773480662983427"/>
      <point x="189.3977900552486" y="-26.408839779005525"/>
    </contour>
  </outline>
</glyph>
<glyph name="four" format="2">
  <advance width="1139.4917127071824"/>
  <unicode hex="0034"/>
  <outline>
    <contour>
      <point x="678.9171270718232" y="0.0" type="line"/>
      <point x="885.7790055248619" y="0.0" type="line"/>
      <point x="885.7790055248619" y="316.0828729281768" type="line"/>
      <point x="1106.110497237569" y="316.0828729281768" type="line"/>
      <point x="1105.3922651933701" y="445.6077348066298" type="line"/>
      <point x="884.7790055248619" y="430.58011049723757" type="line"/>
      <point x="885.4972375690608" y="857.6629834254144" type="line"/>
      <point x="686.243093922652" y="839.4640883977901" type="line"/>
      <point x="678.7624309392265" y="415.0" type="line"/>
      <point x="136.43646408839777" y="376.18232044198896" type="line"/>
      <point x="325.0331491712707" y="644.0" type="line"/>
      <point x="774.0994475138122" y="1400.6132596685084" type="line"/>
      <point x="618.5359116022099" y="1490.2265193370165" type="line"/>
      <point x="528.4640883977901" y="1490.2265193370165" type="line"/>
      <point x="388.88950276243094" y="1170.3149171270718"/>
      <point x="228.8121546961326" y="770.2541436464088"/>
      <point x="30.56353591160221" y="418.9060773480663" type="curve"/>
      <point x="78.70718232044199" y="316.0828729281768" type="line"/>
      <point x="678.9171270718232" y="316.0828729281768" type="line"/>
    </contour>
  </outline>
</glyph>
<glyph name="five" format="2">
  <advance width="1054.8232044198894"/>
  <unicode hex="0035"/>
  <outline>
    <contour>
      <point x="82.70165745856355" y="53.9171270718232" type="curve"/>
      <point x="84.41988950276244" y="-7.364640883977902" type="line"/>
      <point x="139.56353591160223" y="-24.845303867403313"/>
      <point x="219.99447513812154" y="-29.09944751381215"/>
      <point x="270.2651933701657" y="-28.25414364640884" type="curve" smooth="yes"/>
      <point x="711.6353591160221" y="-24.591160220994475"/>
      <point x="978.4585635359116" y="253.767955801105"/>
      <point x="978.4585635359116" y="544.6906077348066" type="curve" smooth="yes"/>
      <point x="978.4585635359116" y="766.3149171270718"/>
      <point x="848.6519337016574" y="931.4088397790056"/>
      <point x="572.0773480662983" y="931.4088397790056" type="curve" smooth="yes"/>
      <point x="417.08839779005524" y="931.4088397790056"/>
      <point x="243.97237569060775" y="858.8011049723757"/>
      <point x="139.53591160220995" y="754.8563535911602" type="curve"/>
      <point x="284.7182320441989" y="1304.0441988950276" type="line"/>
      <point x="912.1602209944751" y="1304.0441988950276" type="line"/>
      <point x="945.6685082872928" y="1520.4088397790056" type="line"/>
      <point x="860.5138121546961" y="1520.4088397790056" type="line"/>
      <point x="838.2596685082873" y="1485.2817679558011" type="line"/>
      <point x="178.05524861878453" y="1485.2817679558011" type="line"/>
      <point x="83.51933701657458" y="756.292817679558" type="line"/>
      <point x="141.4364640883978" y="718.4751381215469" type="line"/>
      <point x="228.0" y="767.5745856353591"/>
      <point x="332.30939226519337" y="810.6132596685082"/>
      <point x="458.1657458563536" y="810.6132596685082" type="curve" smooth="yes"/>
      <point x="654.2044198895028" y="810.6132596685082"/>
      <point x="748.414364640884" y="679.232044198895"/>
      <point x="748.414364640884" y="498.91160220994476" type="curve" smooth="yes"/>
      <point x="748.414364640884" y="214.0"/>
      <point x="517.0" y="46.1988950276243"/>
      <point x="228.48618784530385" y="43.66298342541437" type="curve" smooth="yes"/>
      <point x="173.2707182320442" y="42.53591160220994"/>
      <point x="121.59116022099447" y="46.66298342541436"/>
    </contour>
  </outline>
</glyph>
<glyph name="six" format="2">
  <advance width="1194.0939226519338"/>
  <unicode hex="0036"/>
  <outline>
    <contour>
      <point x="592.2872928176796" y="-28.535911602209943" type="curve" smooth="yes"/>
      <point x="917.3701657458563" y="-29.25414364640884"/>
      <point x="1113.3922651933701" y="221.59668508287294"/>
      <point x="1113.3922651933701" y="519.7458563535912" type="curve" smooth="yes"/>
      <point x="1113.3922651933701" y="816.8729281767955"/>
      <point x="932.292817679558" y="968.110497237569"/>
      <point x="702.0276243093922" y="968.110497237569" type="curve" smooth="yes"/>
      <point x="570.7734806629834" y="968.110497237569"/>
      <point x="426.30939226519337" y="908.4198895027624"/>
      <point x="333.81767955801104" y="758.4640883977901" type="curve"/>
      <point x="374.43646408839777" y="1073.3480662983425"/>
      <point x="551.4585635359116" y="1390.3922651933701"/>
      <point x="923.585635359116" y="1503.6850828729282" type="curve"/>
      <point x="897.4585635359116" y="1556.5027624309391" type="line"/>
      <point x="423.29834254143645" y="1482.4806629834254"/>
      <point x="89.57458563535911" y="1063.889502762431"/>
      <point x="89.57458563535911" y="603.7182320441989" type="curve" smooth="yes"/>
      <point x="89.57458563535911" y="293.8232044198895"/>
      <point x="249.29834254143645" y="-27.817679558011047"/>
    </contour>
    <contour>
      <point x="622.1436464088398" y="875.4696132596686" type="curve" smooth="yes"/>
      <point x="814.1657458563536" y="874.7513812154697"/>
      <point x="878.5580110497237" y="677.8508287292818"/>
      <point x="878.5580110497237" y="471.0773480662983" type="curve" smooth="yes"/>
      <point x="878.5580110497237" y="241.8121546961326"/>
      <point x="803.5745856353591" y="22.09944751381215"/>
      <point x="601.1878453038674" y="22.09944751381215" type="curve" smooth="yes"/>
      <point x="388.81767955801104" y="22.09944751381215"/>
      <point x="326.5359116022099" y="324.0386740331492"/>
      <point x="326.5359116022099" y="540.1657458563536" type="curve" smooth="yes"/>
      <point x="326.5359116022099" y="617.011049723757"/>
      <point x="328.38121546961327" y="690.0662983425415"/>
      <point x="330.94475138121544" y="715.6740331491712" type="curve"/>
      <point x="385.9281767955801" y="790.7403314917127"/>
      <point x="498.89502762430936" y="876.1878453038674"/>
    </contour>
  </outline>
</glyph>
<glyph name="seven" format="2">
  <advance width="1076.988950276243"/>
  <unicode hex="0037"/>
  <outline>
    <contour>
      <point x="552.6298342541436" y="-1.4364640883977904" type="line"/>
      <point x="1041.6408839779006" y="1440.0276243093922" type="line"/>
      <point x="1003.414364640884" y="1486.0" type="line"/>
      <point x="103.77348066298343" y="1486.0" type="line"/>
      <point x="56.165745856353595" y="1086.3149171270718" type="line"/>
      <point x="108.46408839779006" y="1076.060773480663" type="line"/>
      <point x="189.02762430939225" y="1302.9723756906078" type="line"/>
      <point x="936.7348066298342" y="1307.2817679558011" type="line"/>
      <point x="740.7182320441989" y="884.3314917127072"/>
      <point x="528.1546961325967" y="440.22651933701655"/>
      <point x="301.6685082872928" y="0.0" type="curve"/>
    </contour>
  </outline>
</glyph>
<glyph name="eight" format="2">
  <advance width="1179.5745856353592"/>
  <unicode hex="0038"/>
  <outline>
    <contour>
      <point x="74.0828729281768" y="350.69060773480663" type="curve" smooth="yes"/>
      <point x="74.0828729281768" y="118.6022099447514"/>
      <point x="287.9337016574585" y="-19.12707182320442"/>
      <point x="577.6961325966851" y="-19.12707182320442" type="curve" smooth="yes"/>
      <point x="867.3204419889503" y="-19.12707182320442"/>
      <point x="1105.4917127071824" y="135.28176795580112"/>
      <point x="1105.4917127071824" y="401.8618784530387" type="curve" smooth="yes"/>
      <point x="1105.4917127071824" y="607.7790055248619"/>
      <point x="942.0276243093922" y="713.1436464088398"/>
      <point x="731.1933701657458" y="810.5690607734807" type="curve"/>
      <point x="946.6132596685082" y="893.7348066298342"/>
      <point x="1052.9116022099447" y="1037.2375690607735"/>
      <point x="1052.9116022099447" y="1186.8729281767955" type="curve" smooth="yes"/>
      <point x="1052.9116022099447" y="1370.6519337016575"/>
      <point x="889.7790055248619" y="1504.5635359116022"/>
      <point x="620.4696132596684" y="1504.5635359116022" type="curve" smooth="yes"/>
      <point x="375.0" y="1504.5635359116022"/>
      <point x="146.85635359116023" y="1375.46408839779"/>
      <point x="146.85635359116023" y="1123.8563535911603" type="curve" smooth="yes"/>
      <point x="146.85635359116023" y="939.5801104972376"/>
      <point x="279.35911602209944" y="811.2375690607735"/>
      <point x="429.0110497237569" y="725.1933701657458" type="curve"/>
      <point x="193.79005524861878" y="661.2099447513813"/>
      <point x="74.0828729281768" y="510.0718232044199"/>
    </contour>
    <contour>
      <point x="336.54696132596683" y="1202.8618784530386" type="curve" smooth="yes"/>
      <point x="336.54696132596683" y="1361.8176795580112"/>
      <point x="446.75690607734805" y="1454.6187845303868"/>
      <point x="609.1325966850828" y="1454.6187845303868" type="curve" smooth="yes"/>
      <point x="787.4254143646409" y="1454.6187845303868"/>
      <point x="875.1546961325967" y="1316.0718232044198"/>
      <point x="875.1546961325967" y="1160.171270718232" type="curve" smooth="yes"/>
      <point x="875.1546961325967" y="1024.3701657458564"/>
      <point x="813.8895027624309" y="894.0055248618785"/>
      <point x="684.8121546961326" y="830.9502762430939" type="curve"/>
      <point x="472.43646408839777" y="940.6519337016574"/>
      <point x="336.54696132596683" y="1026.4530386740332"/>
    </contour>
    <contour>
      <point x="895.9834254143647" y="302.939226519337" type="curve" smooth="yes"/>
      <point x="895.9834254143647" y="138.39226519337018"/>
      <point x="762.9723756906077" y="34.12707182320442"/>
      <point x="596.7790055248619" y="34.12707182320442" type="curve" smooth="yes"/>
      <point x="400.69613259668506" y="34.12707182320442"/>
      <point x="266.81215469613255" y="188.69060773480663"/>
      <point x="266.81215469613255" y="380.81767955801104" type="curve" smooth="yes"/>
      <point x="266.81215469613255" y="519.6629834254144"/>
      <point x="332.35911602209944" y="650.5303867403316"/>
      <point x="479.82872928176795" y="703.6850828729282" type="curve"/>
      <point x="708.9834254143647" y="587.1657458563536"/>
      <point x="895.9834254143647" y="503.50276243093924"/>
    </contour>
  </outline>
</glyph>
<glyph name="nine" format="2">
  <advance width="1199.6850828729282"/>
  <unicode hex="0039"/>
  <outline>
    <contour>
      <point x="601.3701657458564" y="1504.5635359116022" type="curve" smooth="yes"/>
      <point x="301.01657458563534" y="1504.2817679558011"/>
      <point x="80.70165745856355" y="1306.3259668508288"/>
      <point x="80.70165745856355" y="965.5359116022099" type="curve" smooth="yes"/>
      <point x="80.70165745856355" y="667.9834254143647"/>
      <point x="290.5193370165746" y="499.7182320441989"/>
      <point x="505.8563535911602" y="499.7182320441989" type="curve" smooth="yes"/>
      <point x="637.9558011049724" y="499.7182320441989"/>
      <point x="778.110497237569" y="558.5635359116022"/>
      <point x="862.4309392265194" y="710.7734806629834" type="curve"/>
      <point x="821.8121546961326" y="400.6795580110497"/>
      <point x="656.4364640883978" y="115.77348066298343"/>
      <point x="293.4640883977901" y="-0.0552486187845318" type="curve"/>
      <point x="319.02762430939225" y="-52.309392265193374" type="line"/>
      <point x="785.1602209944751" y="22.839779005524868"/>
      <point x="1110.110497237569" y="419.292817679558"/>
      <point x="1110.110497237569" y="876.0828729281768" type="curve" smooth="yes"/>
      <point x="1110.110497237569" y="1188.232044198895"/>
      <point x="958.4419889502763" y="1504.8453038674033"/>
    </contour>
    <contour>
      <point x="575.5966850828729" y="593.2044198895028" type="curve" smooth="yes"/>
      <point x="396.5303867403315" y="593.9226519337017"/>
      <point x="319.1270718232044" y="799.6961325966851"/>
      <point x="319.1270718232044" y="1008.7237569060774" type="curve" smooth="yes"/>
      <point x="319.1270718232044" y="1240.243093922652"/>
      <point x="406.1933701657458" y="1454.4917127071824"/>
      <point x="591.6243093922652" y="1454.2099447513813" type="curve" smooth="yes"/>
      <point x="817.7955801104972" y="1453.9281767955802"/>
      <point x="869.9944751381215" y="1146.6077348066299"/>
      <point x="869.9944751381215" y="933.2983425414365" type="curve" smooth="yes"/>
      <point x="869.9944751381215" y="849.9723756906077"/>
      <point x="868.1491712707183" y="780.0165745856353"/>
      <point x="865.3038674033149" y="754.6906077348067" type="curve"/>
      <point x="804.6850828729282" y="671.7348066298342"/>
      <point x="693.7734806629834" y="592.4861878453039"/>
    </contour>
  </outline>
</glyph>
<glyph name="semicolon" format="2">
  <advance width="487.3038674033149"/>
  <unicode hex="003B"/>
  <outline>
    <contour>
      <point x="229.39779005524863" y="750.0662983425415" type="curve" smooth="yes"/>
      <point x="298.4585635359116" y="750.0662983425415"/>
      <point x="355.2209944751381" y="798.5745856353591"/>
      <point x="355.2209944751381" y="873.4088397790056" type="curve" smooth="yes"/>
      <point x="355.2209944751381" y="929.1436464088398"/>
      <point x="321.0497237569061" y="981.5966850828729"/>
      <point x="248.77900552486187" y="981.5966850828729" type="curve" smooth="yes"/>
      <point x="181.81767955801106" y="981.5966850828729"/>
      <point x="122.9281767955801" y="929.6795580110497"/>
      <point x="122.9281767955801" y="858.2541436464088" type="curve" smooth="yes"/>
      <point x="122.9281767955801" y="793.6740331491712"/>
      <point x="171.66298342541438" y="750.0662983425415"/>
    </contour>
    <contour>
      <point x="229.44198895027623" y="247.8950276243094" type="curve"/>
      <point x="222.03314917127068" y="247.8950276243094" type="line" smooth="yes"/>
      <point x="166.22651933701655" y="247.8950276243094"/>
      <point x="124.15469613259668" y="211.13259668508286"/>
      <point x="124.15469613259668" y="149.5524861878453" type="curve" smooth="yes"/>
      <point x="124.15469613259668" y="40.74585635359116"/>
      <point x="248.9060773480663" y="36.408839779005525"/>
      <point x="248.9060773480663" y="-55.86187845303867" type="curve" smooth="yes"/>
      <point x="248.9060773480663" y="-171.01657458563537"/>
      <point x="184.44198895027625" y="-270.37016574585635"/>
      <point x="114.11602209944752" y="-335.5138121546961" type="curve"/>
      <point x="114.11602209944752" y="-343.5138121546961" type="line"/>
      <point x="143.2430939226519" y="-363.0773480662983" type="line"/>
      <point x="144.524861878453" y="-362.7955801104972" type="line"/>
      <point x="261.35911602209944" y="-297.5966850828729"/>
      <point x="362.7292817679558" y="-134.17127071823205"/>
      <point x="362.7292817679558" y="44.29834254143646" type="curve" smooth="yes"/>
      <point x="362.7292817679558" y="171.21546961325967"/>
      <point x="303.9944751381215" y="247.8950276243094"/>
    </contour>
  </outline>
</glyph>
<glyph name="at" format="2">
  <advance width="2043.6850828729282"/>
  <unicode hex="0040"/>
  <outline>
    <contour>
      <point x="142.0" y="356.9281767955801" type="curve" smooth="yes"/>
      <point x="142.0" y="-194.61878453038673"/>
      <point x="454.1436464088398" y="-506.1988950276243"/>
      <point x="895.0883977900552" y="-506.1988950276243" type="curve" smooth="yes"/>
      <point x="1087.707182320442" y="-506.1988950276243"/>
      <point x="1270.0607734806629" y="-446.6077348066298"/>
      <point x="1370.7513812154696" y="-362.22651933701655" type="curve"/>
      <point x="1351.4696132596684" y="-310.04419889502765" type="line"/>
      <point x="1246.2707182320441" y="-392.0718232044199"/>
      <point x="1080.5690607734807" y="-443.7458563535912"/>
      <point x="927.4309392265193" y="-443.7458563535912" type="curve" smooth="yes"/>
      <point x="542.5414364640884" y="-443.7458563535912"/>
      <point x="272.1436464088398" y="-116.74585635359117"/>
      <point x="272.1436464088398" y="384.5359116022099" type="curve" smooth="yes"/>
      <point x="272.1436464088398" y="986.4751381215469"/>
      <point x="657.817679558011" y="1444.646408839779"/>
      <point x="1147.3701657458564" y="1444.646408839779" type="curve" smooth="yes"/>
      <point x="1490.7955801104972" y="1444.646408839779"/>
      <point x="1809.3314917127072" y="1217.6298342541436"/>
      <point x="1809.3314917127072" y="751.2651933701658" type="curve" smooth="yes"/>
      <point x="1809.3314917127072" y="324.1160220994475"/>
      <point x="1543.9558011049724" y="82.62430939226519"/>
      <point x="1429.939226519337" y="82.62430939226519" type="curve" smooth="yes"/>
      <point x="1381.3756906077347" y="82.62430939226519"/>
      <point x="1356.6022099447514" y="128.70718232044197"/>
      <point x="1368.0939226519338" y="305.83977900552486" type="curve" smooth="yes"/>
      <point x="1378.867403314917" y="510.77348066298345"/>
      <point x="1430.8121546961327" y="793.1436464088398"/>
      <point x="1468.2486187845304" y="952.9834254143647" type="curve"/>
      <point x="1367.2983425414366" y="987.4364640883978"/>
      <point x="1358.0441988950276" y="990.0"/>
      <point x="1347.254143646409" y="990.7182320441989" type="curve" smooth="yes"/>
      <point x="1327.7182320441989" y="992.8729281767955"/>
      <point x="1316.46408839779" y="985.6906077348066"/>
      <point x="1302.0552486187846" y="944.4364640883978" type="curve"/>
      <point x="1231.5911602209944" y="975.0"/>
      <point x="1146.171270718232" y="991.7182320441989"/>
      <point x="1079.889502762431" y="991.7182320441989" type="curve" smooth="yes"/>
      <point x="765.889502762431" y="991.7182320441989"/>
      <point x="571.0552486187845" y="645.1602209944751"/>
      <point x="571.0552486187845" y="363.30939226519337" type="curve" smooth="yes"/>
      <point x="571.0552486187845" y="133.51933701657458"/>
      <point x="703.110497237569" y="-2.7624309392265154"/>
      <point x="837.5359116022099" y="-2.7624309392265154" type="curve" smooth="yes"/>
      <point x="1004.353591160221" y="-2.7624309392265154"/>
      <point x="1130.5635359116022" y="215.414364640884"/>
      <point x="1214.745856353591" y="461.0939226519337" type="curve"/>
      <point x="1196.4917127071824" y="304.2651933701658"/>
      <point x="1190.3922651933701" y="187.53591160220995"/>
      <point x="1192.6740331491712" y="145.74585635359117" type="curve" smooth="yes"/>
      <point x="1197.9558011049724" y="48.110497237569064"/>
      <point x="1270.5193370165746" y="0.6187845303867405"/>
      <point x="1350.1270718232045" y="0.6187845303867405" type="curve" smooth="yes"/>
      <point x="1547.475138121547" y="0.6187845303867405"/>
      <point x="1920.8121546961327" y="271.96132596685084"/>
      <point x="1920.8121546961327" y="790.3812154696133" type="curve" smooth="yes"/>
      <point x="1920.8121546961327" y="1248.5745856353592"/>
      <point x="1631.828729281768" y="1512.171270718232"/>
      <point x="1204.3314917127072" y="1512.171270718232" type="curve" smooth="yes"/>
      <point x="650.4419889502763" y="1512.171270718232"/>
      <point x="142.0" y="1063.7016574585634"/>
    </contour>
    <contour>
      <point x="762.5469613259668" y="423.96132596685084" type="curve" smooth="yes"/>
      <point x="762.5469613259668" y="706.7348066298342"/>
      <point x="890.6298342541436" y="936.3093922651933"/>
      <point x="1049.9226519337017" y="936.3093922651933" type="curve" smooth="yes"/>
      <point x="1117.9060773480662" y="936.3093922651933"/>
      <point x="1210.7182320441989" y="891.3812154696133"/>
      <point x="1268.646408839779" y="844.5359116022099" type="curve"/>
      <point x="1259.3093922651933" y="773.0165745856353"/>
      <point x="1232.4917127071824" y="666.9834254143647"/>
      <point x="1206.745856353591" y="587.6740331491712" type="curve" smooth="yes"/>
      <point x="1117.2983425414363" y="310.96132596685084"/>
      <point x="990.8950276243094" y="119.0220994475138"/>
      <point x="894.6850828729282" y="119.0220994475138" type="curve" smooth="yes"/>
      <point x="816.2486187845304" y="119.0220994475138"/>
      <point x="762.5469613259668" y="245.14917127071823"/>
    </contour>
  </outline>
</glyph>
<glyph name="A" format="2">
  <advance width="1285.121546961326"/>
  <unicode hex="0041"/>
  <anchor x="619.6132596685082" y="0.0" name="bottom"/>
  <anchor x="1154.0" y="20.0" name="ogonek"/>
  <anchor x="643.6022099447514" y="1486.0" name="top"/>
  <outline>
    <contour>
      <point x="78.85082872928177" y="69.53591160220995" type="line"/>
      <point x="-53.03867403314916" y="36.56353591160221" type="line"/>
      <point x="-53.03867403314916" y="0.0" type="line"/>
      <point x="323.2596685082873" y="0.0" type="line"/>
      <point x="323.2596685082873" y="36.56353591160221" type="line"/>
      <point x="188.00552486187846" y="69.84530386740332" type="line"/>
      <point x="296.6243093922652" y="452.95580110497235" type="line"/>
      <point x="836.3204419889503" y="452.95580110497235" type="line"/>
      <point x="952.0939226519338" y="69.84530386740332" type="line"/>
      <point x="814.4033149171271" y="36.56353591160221" type="line"/>
      <point x="814.4033149171271" y="0.0" type="line"/>
      <point x="1321.254143646409" y="0.0" type="line"/>
      <point x="1321.254143646409" y="36.56353591160221" type="line"/>
      <point x="1195.7624309392265" y="69.0" type="line"/>
      <point x="740.9447513812155" y="1496.3370165745857" type="line"/>
      <point x="558.0331491712707" y="1496.3370165745857" type="line"/>
    </contour>
    <contour>
      <point x="814.756906077348" y="518.3922651933701" type="line"/>
      <point x="317.18784530386745" y="518.3922651933701" type="line"/>
      <point x="531.9171270718232" y="1205.353591160221" type="line"/>
      <point x="571.9723756906078" y="1333.1546961325967" type="line"/>
      <point x="607.4364640883978" y="1205.353591160221" type="line"/>
    </contour>
  </outline>
</glyph>
<glyph name="C" format="2">
  <advance width="1238.8618784530386"/>
  <unicode hex="0043"/>
  <anchor x="676.7790055248619" y="0.0" name="bottom"/>
  <anchor x="685.232044198895" y="1486.0" name="top"/>
  <outline>
    <contour>
      <point x="690.5414364640884" y="-20.56353591160221" type="curve" smooth="yes"/>
      <point x="957.2596685082873" y="-20.56353591160221"/>
      <point x="1010.2596685082873" y="51.12707182320442"/>
      <point x="1114.2596685082872" y="54.0" type="curve"/>
      <point x="1153.8508287292818" y="368.91160220994476" type="line"/>
      <point x="1054.8453038674033" y="384.6574585635359" type="line"/>
      <point x="976.4640883977901" y="158.14364640883977" type="line"/>
      <point x="934.0441988950276" y="104.17127071823204"/>
      <point x="854.4530386740331" y="30.972375690607734"/>
      <point x="732.414364640884" y="30.972375690607734" type="curve" smooth="yes"/>
      <point x="382.8618784530386" y="30.972375690607734"/>
      <point x="273.2596685082873" y="387.43646408839777"/>
      <point x="273.2596685082873" y="749.3812154696133" type="curve" smooth="yes"/>
      <point x="273.2596685082873" y="1196.878453038674"/>
      <point x="442.7734806629834" y="1449.1546961325967"/>
      <point x="750.6353591160221" y="1449.1546961325967" type="curve" smooth="yes"/>
      <point x="868.0718232044198" y="1449.1546961325967"/>
      <point x="941.9558011049724" y="1406.1381215469614"/>
      <point x="970.6298342541437" y="1364.8397790055249" type="curve"/>
      <point x="1008.2651933701658" y="1079.2596685082874" type="line"/>
      <point x="1138.3149171270718" y="1079.2596685082874" type="line"/>
      <point x="1165.0220994475137" y="1437.7182320441989" type="line"/>
      <point x="1061.2099447513813" y="1437.7182320441989"/>
      <point x="976.4806629834254" y="1503.4088397790056"/>
      <point x="734.5359116022099" y="1503.4088397790056" type="curve" smooth="yes"/>
      <point x="321.77348066298345" y="1503.4088397790056"/>
      <point x="29.999999999999996" y="1190.0165745856355"/>
      <point x="29.999999999999996" y="727.5359116022099" type="curve" smooth="yes"/>
      <point x="29.999999999999996" y="305.5193370165746"/>
      <point x="252.15469613259668" y="-20.56353591160221"/>
    </contour>
  </outline>
</glyph>
<glyph name="E" format="2">
  <advance width="1188.403314917127"/>
  <unicode hex="0045"/>
  <anchor x="596.2596685082873" y="0.0" name="bottom"/>
  <anchor x="1006.9226519337017" y="20.0" name="ogonek"/>
  <anchor x="610.5138121546961" y="1486.0" name="top"/>
  <anchor x="27.381215469613256" y="1486.0" name="topleft"/>
  <outline>
    <contour>
      <point x="161.33701657458565" y="70.09944751381215" type="line"/>
      <point x="22.309392265193374" y="36.28176795580111" type="line"/>
      <point x="22.309392265193374" y="0.0" type="line"/>
      <point x="1092.0662983425414" y="0.0" type="line"/>
      <point x="1163.364640883978" y="366.1767955801105" type="line"/>
      <point x="1063.1878453038673" y="388.48618784530385" type="line"/>
      <point x="927.9447513812155" y="86.24309392265194" type="line"/>
      <point x="380.7348066298342" y="51.09944751381216" type="line"/>
      <point x="380.7348066298342" y="739.3093922651934" type="line"/>
      <point x="715.8066298342542" y="723.6906077348066" type="line"/>
      <point x="765.0497237569061" y="519.4585635359116" type="line"/>
      <point x="817.3591160220994" y="519.4585635359116" type="line"/>
      <point x="817.3591160220994" y="1000.6243093922652" type="line"/>
      <point x="765.0497237569061" y="1000.6243093922652" type="line"/>
      <point x="715.8066298342542" y="804.0552486187845" type="line"/>
      <point x="380.7348066298342" y="786.2817679558011" type="line"/>
      <point x="380.7348066298342" y="1432.745856353591" type="line"/>
      <point x="855.878453038674" y="1412.7016574585634" type="line"/>
      <point x="959.8397790055249" y="1168.3314917127072" type="line"/>
      <point x="1045.8453038674033" y="1168.3314917127072" type="line"/>
      <point x="1016.1546961325967" y="1486.0" type="line"/>
      <point x="23.309392265193374" y="1486.0" type="line"/>
      <point x="23.309392265193374" y="1450.0" type="line"/>
      <point x="161.33701657458565" y="1417.745856353591" type="line"/>
    </contour>
  </outline>
</glyph>
<glyph name="F" format="2">
  <advance width="1078.6298342541436"/>
  <unicode hex="0046"/>
  <anchor x="269.1767955801105" y="0.0" name="bottom"/>
  <anchor x="623.7513812154696" y="1486.0" name="top"/>
  <outline>
    <contour>
      <point x="161.33701657458562" y="68.40883977900552" type="line"/>
      <point x="22.309392265193367" y="36.56353591160221" type="line"/>
      <point x="22.309392265193367" y="0.0" type="line"/>
      <point x="590.5524861878453" y="0.0" type="line"/>
      <point x="590.5524861878453" y="36.56353591160221" type="line"/>
      <point x="380.7348066298342" y="68.40883977900552" type="line"/>
      <point x="380.7348066298342" y="728.2375690607735" type="line"/>
      <point x="716.5248618784531" y="716.9281767955802" type="line"/>
      <point x="765.049723756906" y="512.6961325966851" type="line"/>
      <point x="817.3591160220994" y="512.6961325966851" type="line"/>
      <point x="817.3591160220994" y="993.8618784530387" type="line"/>
      <point x="765.3314917127071" y="993.8618784530387" type="line"/>
      <point x="716.5248618784531" y="797.292817679558" type="line"/>
      <point x="380.7348066298342" y="783.828729281768" type="line"/>
      <point x="380.7348066298342" y="1431.0276243093922" type="line"/>
      <point x="850.6906077348066" y="1412.7016574585634" type="line"/>
      <point x="951.0883977900553" y="1162.6961325966852" type="line"/>
      <point x="1038.6574585635358" y="1162.6961325966852" type="line"/>
      <point x="1011.0939226519337" y="1486.0" type="line"/>
      <point x="23.309392265193367" y="1486.0" type="line"/>
      <point x="23.309392265193367" y="1450.0" type="line"/>
      <point x="161.33701657458562" y="1417.745856353591" type="line"/>
    </contour>
  </outline>
</glyph>
<glyph name="G" format="2">
  <advance width="1350.7955801104972"/>
  <unicode hex="0047"/>
  <anchor x="696.060773480663" y="0.0" name="bottom"/>
  <anchor x="1123.5690607734807" y="347.8729281767956" name="rstem"/>
  <anchor x="756.060773480663" y="1486.0" name="top"/>
  <outline>
    <contour>
      <point x="687.5801104972376" y="-20.56353591160221" type="curve" smooth="yes"/>
      <point x="1000.0220994475138" y="-20.56353591160221"/>
      <point x="1092.8342541436464" y="77.12707182320442"/>
      <point x="1217.3204419889503" y="80.0" type="curve"/>
      <point x="1217.3204419889503" y="626.7458563535912" type="line"/>
      <point x="1328.6132596685084" y="647.4640883977901" type="line"/>
      <point x="1328.6132596685084" y="711.2375690607735" type="line"/>
      <point x="787.6629834254144" y="711.2375690607735" type="line"/>
      <point x="787.6629834254144" y="647.4640883977901" type="line"/>
      <point x="1012.5027624309392" y="626.7458563535912" type="line"/>
      <point x="1012.5027624309392" y="138.7513812154696" type="line"/>
      <point x="953.7734806629834" y="77.94475138121547"/>
      <point x="844.5635359116022" y="32.40883977900552"/>
      <point x="727.353591160221" y="32.40883977900552" type="curve" smooth="yes"/>
      <point x="385.4088397790055" y="32.40883977900552"/>
      <point x="280.4419889502762" y="395.0552486187845"/>
      <point x="281.0055248618784" y="752.9723756906077" type="curve" smooth="yes"/>
      <point x="281.56906077348066" y="1196.878453038674"/>
      <point x="443.75690607734805" y="1450.5911602209944"/>
      <point x="757.7845303867404" y="1450.5911602209944" type="curve" smooth="yes"/>
      <point x="897.1988950276243" y="1450.5911602209944"/>
      <point x="971.3646408839779" y="1406.1381215469614"/>
      <point x="1000.756906077348" y="1364.8397790055249" type="curve"/>
      <point x="1047.011049723757" y="1079.2596685082874" type="line"/>
      <point x="1176.0497237569061" y="1079.2596685082874" type="line"/>
      <point x="1202.0386740331492" y="1437.7182320441989" type="line"/>
      <point x="1098.2265193370165" y="1437.7182320441989"/>
      <point x="1008.0165745856353" y="1503.4088397790056"/>
      <point x="745.8729281767955" y="1503.4088397790056" type="curve" smooth="yes"/>
      <point x="322.75690607734805" y="1503.4088397790056"/>
      <point x="37.18232044198895" y="1190.0165745856355"/>
      <point x="37.18232044198895" y="726.817679558011" type="curve" smooth="yes"/>
      <point x="37.18232044198895" y="313.41988950276243"/>
      <point x="255.2375690607735" y="-20.56353591160221"/>
    </contour>
  </outline>
</glyph>
<glyph name="H" format="2">
  <advance width="1418.1657458563536"/>
  <unicode hex="0048"/>
  <anchor x="730.4972375690608" y="0.0" name="bottom"/>
  <anchor x="1398.011049723757" y="0.0" name="bottomright"/>
  <anchor x="706.6243093922652" y="743.0" name="center"/>
  <anchor x="708.7513812154696" y="1486.0" name="top"/>
  <anchor x="-0.2099447513812187" y="1486.0" name="topleft"/>
  <outline>
    <contour>
      <point x="161.33701657458562" y="68.40883977900552" type="line"/>
      <point x="22.309392265193367" y="36.56353591160221" type="line"/>
      <point x="22.309392265193367" y="0.0" type="line"/>
      <point x="526.0165745856353" y="0.0" type="line"/>
      <point x="526.0165745856353" y="36.56353591160221" type="line"/>
      <point x="381.29834254143645" y="68.40883977900552" type="line"/>
      <point x="381.29834254143645" y="732.0" type="line"/>
      <point x="1036.867403314917" y="732.0" type="line"/>
      <point x="1036.867403314917" y="68.40883977900552" type="line"/>
      <point x="892.7127071823204" y="36.56353591160221" type="line"/>
      <point x="892.7127071823204" y="0.0" type="line"/>
      <point x="1395.8563535911603" y="0.0" type="line"/>
      <point x="1395.8563535911603" y="36.56353591160221" type="line"/>
      <point x="1256.828729281768" y="68.40883977900552" type="line"/>
      <point x="1256.828729281768" y="1417.745856353591" type="line"/>
      <point x="1394.5745856353592" y="1450.0" type="line"/>
      <point x="1394.5745856353592" y="1486.0" type="line"/>
      <point x="892.7127071823204" y="1486.0" type="line"/>
      <point x="892.7127071823204" y="1450.0" type="line"/>
      <point x="1036.867403314917" y="1417.745856353591" type="line"/>
      <point x="1036.867403314917" y="795.1270718232045" type="line"/>
      <point x="381.29834254143645" y="795.1270718232045" type="line"/>
      <point x="381.29834254143645" y="1417.745856353591" type="line"/>
      <point x="525.7348066298342" y="1450.0" type="line"/>
      <point x="525.7348066298342" y="1486.0" type="line"/>
      <point x="23.309392265193367" y="1486.0" type="line"/>
      <point x="23.309392265193367" y="1450.0" type="line"/>
      <point x="161.33701657458562" y="1417.745856353591" type="line"/>
    </contour>
  </outline>
</glyph>
<glyph name="I" format="2">
  <advance width="544.6519337016574"/>
  <unicode hex="0049"/>
  <anchor x="270.9944751381215" y="0.0" name="bottom"/>
  <anchor x="331.7624309392265" y="20.0" name="ogonek"/>
  <anchor x="270.9944751381215" y="1486.0" name="top"/>
  <anchor x="17.607734806629832" y="1486.0" name="topleft"/>
  <outline>
    <contour>
      <point x="160.46408839779005" y="68.40883977900552" type="line"/>
      <point x="24.309392265193367" y="36.56353591160221" type="line"/>
      <point x="24.309392265193367" y="0.0" type="line"/>
      <point x="520.342541436464" y="0.0" type="line"/>
      <point x="520.342541436464" y="36.56353591160221" type="line"/>
      <point x="379.27071823204415" y="68.40883977900552" type="line"/>
      <point x="379.27071823204415" y="1417.745856353591" type="line"/>
      <point x="520.060773480663" y="1450.0" type="line"/>
      <point x="520.060773480663" y="1486.0" type="line"/>
      <point x="24.591160220994475" y="1486.0" type="line"/>
      <point x="24.591160220994475" y="1450.0" type="line"/>
      <point x="160.46408839779005" y="1417.745856353591" type="line"/>
    </contour>
  </outline>
</glyph>
<glyph name="J" format="2">
  <advance width="544.6519337016574"/>
  <unicode hex="004A"/>
  <anchor x="262.9944751381215" y="1486.0" name="top"/>
  <outline>
    <contour>
      <point x="-103.83977900552486" y="-309.17127071823205" type="curve"/>
      <point x="-63.22099447513813" y="-357.5524861878453" type="line"/>
      <point x="138.64640883977899" y="-326.1160220994475"/>
      <point x="311.1988950276243" y="-177.04419889502762"/>
      <point x="358.2430939226519" y="35.46408839779006" type="curve" smooth="yes"/>
      <point x="383.08839779005524" y="150.7292817679558"/>
      <point x="380.060773480663" y="323.1381215469613"/>
      <point x="380.060773480663" y="496.8508287292818" type="curve" smooth="yes"/>
      <point x="380.060773480663" y="1417.745856353591" type="line"/>
      <point x="514.5966850828729" y="1450.0" type="line"/>
      <point x="514.5966850828729" y="1486.0" type="line"/>
      <point x="15.662983425414364" y="1486.0" type="line"/>
      <point x="15.662983425414364" y="1450.0" type="line"/>
      <point x="160.09944751381215" y="1417.745856353591" type="line"/>
      <point x="160.09944751381215" y="453.0276243093923" type="line" smooth="yes"/>
      <point x="160.09944751381215" y="179.5414364640884"/>
      <point x="153.0" y="63.596685082872945"/>
      <point x="123.84530386740332" y="-40.82320441988949" type="curve" smooth="yes"/>
      <point x="83.02762430939228" y="-185.97790055248618"/>
      <point x="8.80662983425414" y="-273.7900552486188"/>
    </contour>
  </outline>
</glyph>
<glyph name="K" format="2">
  <advance width="1300.4806629834254"/>
  <unicode hex="004B"/>
  <anchor x="713.92817679558" y="0.0" name="bottom"/>
  <anchor x="771.7790055248619" y="1485.1546961325967" name="top"/>
  <outline>
    <contour>
      <point x="991.182320441989" y="0.0" type="curve"/>
      <point x="1296.1160220994475" y="0.28176795580110486" type="line"/>
      <point x="1296.1160220994475" y="36.84530386740332" type="line"/>
      <point x="1220.7513812154696" y="67.4364640883978" type="line"/>
      <point x="1122.5082872928176" y="122.51933701657457"/>
      <point x="822.0165745856353" y="795.0441988950276"/>
      <point x="665.1491712707182" y="908.8121546961326" type="curve"/>
      <point x="626.6077348066298" y="814.9337016574585" type="line"/>
      <point x="1097.5193370165746" y="1418.3370165745857" type="line"/>
      <point x="1237.4806629834254" y="1449.1546961325967" type="line"/>
      <point x="1237.4806629834254" y="1486.2817679558011" type="line"/>
      <point x="820.1657458563536" y="1486.0" type="line"/>
      <point x="820.1657458563536" y="1449.7182320441989" type="line"/>
      <point x="981.182320441989" y="1417.745856353591" type="line"/>
      <point x="341.5193370165746" y="554.1933701657458" type="line"/>
      <point x="381.29834254143645" y="572.4972375690608" type="line"/>
      <point x="381.29834254143645" y="1417.745856353591" type="line"/>
      <point x="529.3259668508286" y="1450.0" type="line"/>
      <point x="529.3259668508286" y="1486.0" type="line"/>
      <point x="23.309392265193374" y="1486.0" type="line"/>
      <point x="23.309392265193374" y="1450.0" type="line"/>
      <point x="161.33701657458562" y="1417.745856353591" type="line"/>
      <point x="161.33701657458562" y="68.12707182320442" type="line"/>
      <point x="22.309392265193374" y="37.28176795580111" type="line"/>
      <point x="22.309392265193374" y="0.0" type="line"/>
      <point x="532.9171270718232" y="0.0" type="line"/>
      <point x="532.9171270718232" y="36.56353591160221" type="line"/>
      <point x="381.29834254143645" y="68.12707182320442" type="line"/>
      <point x="381.29834254143645" y="546.9447513812155" type="line"/>
      <point x="341.54696132596683" y="455.0662983425414" type="line"/>
      <point x="593.1270718232043" y="773.3259668508288" type="line"/>
      <point x="529.0110497237569" y="744.7403314917127" type="line"/>
      <point x="669.4972375690608" y="612.0"/>
      <point x="919.7016574585635" y="0.0"/>
    </contour>
  </outline>
</glyph>
<glyph name="L" format="2">
  <advance width="1085.364640883978"/>
  <unicode hex="004C"/>
  <anchor x="642.1436464088398" y="0.0" name="bottom"/>
  <anchor x="633.9723756906077" y="744.0000000000001" name="center"/>
  <anchor x="374.3977900552486" y="1486.0" name="top"/>
  <anchor x="848.7127071823204" y="1110.2817679558011" name="topright"/>
  <outline>
    <contour>
      <point x="161.33701657458562" y="70.09944751381215" type="line"/>
      <point x="22.309392265193367" y="36.2817679558011" type="line"/>
      <point x="22.309392265193367" y="0.0" type="line"/>
      <point x="1010.5193370165746" y="0.0" type="line"/>
      <point x="1082.5469613259668" y="421.353591160221" type="line"/>
      <point x="984.7790055248619" y="440.45303867403317" type="line"/>
      <point x="846.3977900552486" y="99.17127071823204" type="line"/>
      <point x="380.7348066298342" y="61.87292817679558" type="line"/>
      <point x="381.4530386740331" y="1417.745856353591" type="line"/>
      <point x="541.7348066298342" y="1450.0" type="line"/>
      <point x="541.7348066298342" y="1486.0" type="line"/>
      <point x="23.309392265193367" y="1486.0" type="line"/>
      <point x="23.309392265193367" y="1450.0" type="line"/>
      <point x="161.33701657458562" y="1417.745856353591" type="line"/>
    </contour>
  </outline>
</glyph>
<glyph name="M" format="2">
  <advance width="1760.9944751381215"/>
  <unicode hex="004D"/>
  <anchor x="869.817679558011" y="0.0" name="bottom"/>
  <anchor x="1799.3204419889503" y="0.0" name="bottomright"/>
  <anchor x="876.4972375690608" y="1486.0" name="top"/>
  <outline>
    <contour>
      <point x="115.8011049723757" y="63.09944751381215" type="line"/>
      <point x="-37.04419889502762" y="36.0" type="line"/>
      <point x="-37.04419889502762" y="0.0" type="line"/>
      <point x="393.44751381215474" y="0.0" type="line"/>
      <point x="393.44751381215474" y="36.0" type="line"/>
      <point x="219.98342541436463" y="63.09944751381215" type="line"/>
      <point x="319.7292817679558" y="1024.4530386740332" type="line"/>
      <point x="359.91160220994476" y="1402.375690607735" type="line"/>
      <point x="466.0773480662983" y="1024.7348066298343" type="line"/>
      <point x="721.3701657458564" y="67.77348066298343" type="line"/>
      <point x="911.1049723756906" y="67.77348066298343" type="line"/>
      <point x="1184.011049723757" y="1041.6906077348067" type="line"/>
      <point x="1275.0220994475137" y="1402.375690607735" type="line"/>
      <point x="1312.3038674033148" y="1023.889502762431" type="line"/>
      <point x="1411.1767955801106" y="63.38121546961326" type="line"/>
      <point x="1245.3480662983425" y="36.56353591160221" type="line"/>
      <point x="1245.3480662983425" y="0.0" type="line"/>
      <point x="1798.0386740331492" y="0.0" type="line"/>
      <point x="1798.0386740331492" y="36.0" type="line"/>
      <point x="1643.828729281768" y="64.81767955801105" type="line"/>
      <point x="1479.46408839779" y="1415.1546961325967" type="line"/>
      <point x="1629.8453038674033" y="1451.0" type="line"/>
      <point x="1629.8453038674033" y="1486.0" type="line"/>
      <point x="1206.9116022099447" y="1486.0" type="line"/>
      <point x="964.889502762431" y="550.1657458563536" type="line"/>
      <point x="888.6961325966851" y="220.23204419889504" type="line"/>
      <point x="810.7845303867404" y="549.0386740331492" type="line"/>
      <point x="569.3093922651933" y="1486.0" type="line"/>
      <point x="128.11049723756906" y="1486.0" type="line"/>
      <point x="128.11049723756906" y="1451.0" type="line"/>
      <point x="290.0110497237569" y="1415.1546961325967" type="line"/>
    </contour>
  </outline>
</glyph>
<glyph name="N" format="2">
  <advance width="1366.5745856353592"/>
  <unicode hex="004E"/>
  <anchor x="691.3922651933701" y="0.0" name="bottom"/>
  <anchor x="692.0828729281768" y="1486.0" name="top"/>
  <outline>
    <contour>
      <point x="167.54696132596683" y="74.88950276243094" type="line"/>
      <point x="11.038674033149178" y="36.0" type="line"/>
      <point x="11.038674033149178" y="0.0" type="line"/>
      <point x="419.11049723756906" y="0.0" type="line"/>
      <point x="419.11049723756906" y="36.0" type="line"/>
      <point x="260.6574585635359" y="74.88950276243094" type="line"/>
      <point x="244.70165745856355" y="1298.900552486188" type="line"/>
      <point x="355.0939226519337" y="1101.8066298342542" type="line"/>
      <point x="1031.513812154696" y="0.0" type="line"/>
      <point x="1198.2817679558011" y="0.0" type="line"/>
      <point x="1211.9281767955802" y="1411.3922651933701" type="line"/>
      <point x="1362.0994475138123" y="1450.0" type="line"/>
      <point x="1362.0994475138123" y="1486.0" type="line"/>
      <point x="964.8011049723757" y="1486.0" type="line"/>
      <point x="964.8011049723757" y="1450.0" type="line"/>
      <point x="1119.53591160221" y="1411.3922651933701" type="line"/>
      <point x="1133.46408839779" y="208.7955801104972" type="line"/>
      <point x="1002.6353591160221" y="457.50828729281767" type="line"/>
      <point x="370.7403314917127" y="1486.0" type="line"/>
      <point x="25.530386740331494" y="1486.0" type="line"/>
      <point x="25.530386740331494" y="1444.9281767955802" type="line"/>
      <point x="82.50276243093923" y="1437.745856353591"/>
      <point x="174.03867403314916" y="1375.1049723756905"/>
      <point x="178.88397790055248" y="1341.5524861878453" type="curve"/>
    </contour>
  </outline>
</glyph>
<glyph name="P" format="2">
  <advance width="1150.8066298342542"/>
  <unicode hex="0050"/>
  <anchor x="266.7127071823204" y="0.0" name="bottom"/>
  <anchor x="597.5745856353591" y="1486.0" name="top"/>
  <outline>
    <contour>
      <point x="160.61878453038673" y="69.40883977900552" type="line"/>
      <point x="22.309392265193367" y="36.2817679558011" type="line"/>
      <point x="22.309392265193367" y="0.0" type="line"/>
      <point x="572.0" y="0.0" type="line"/>
      <point x="572.0" y="36.56353591160221" type="line"/>
      <point x="379.17127071823205" y="69.12707182320442" type="line"/>
      <point x="379.4530386740331" y="605.060773480663" type="line"/>
      <point x="411.5359116022099" y="599.4696132596686"/>
      <point x="523.2209944751381" y="592.3149171270718"/>
      <point x="566.5745856353591" y="593.0331491712707" type="curve" smooth="yes"/>
      <point x="939.9834254143647" y="600.2154696132596"/>
      <point x="1117.5801104972375" y="763.3425414364641"/>
      <point x="1117.5801104972375" y="1064.9392265193371" type="curve" smooth="yes"/>
      <point x="1117.5801104972375" y="1328.7182320441989"/>
      <point x="983.0552486187845" y="1501.4364640883978"/>
      <point x="596.2651933701658" y="1500.5911602209944" type="curve" smooth="yes"/>
      <point x="478.89502762430936" y="1500.3093922651933"/>
      <point x="386.41436464088395" y="1486.0"/>
      <point x="275.3038674033149" y="1486.0" type="curve" smooth="yes"/>
      <point x="23.309392265193367" y="1486.0" type="line"/>
      <point x="23.309392265193367" y="1450.0" type="line"/>
      <point x="160.61878453038673" y="1417.745856353591" type="line"/>
    </contour>
    <contour>
      <point x="379.171270718232" y="667.5966850828729" type="curve"/>
      <point x="379.171270718232" y="1432.1546961325967" type="line"/>
      <point x="417.35359116022096" y="1433.5635359116022"/>
      <point x="509.43093922651934" y="1449.1823204419888"/>
      <point x="571.049723756906" y="1449.1823204419888" type="curve" smooth="yes"/>
      <point x="834.4198895027624" y="1449.1823204419888"/>
      <point x="884.2375690607735" y="1291.9944751381215"/>
      <point x="884.2375690607735" y="1062.9668508287293" type="curve" smooth="yes"/>
      <point x="884.2375690607735" y="786.414364640884"/>
      <point x="790.756906077348" y="654.2872928176796"/>
      <point x="550.8397790055249" y="647.1049723756906" type="curve" smooth="yes"/>
      <point x="495.91160220994476" y="645.6685082872929"/>
      <point x="422.2817679558011" y="655.8508287292818"/>
    </contour>
  </outline>
</glyph>
<glyph name="S" format="2">
  <advance width="1063.254143646409"/>
  <unicode hex="0053"/>
  <anchor x="506.48618784530385" y="0.0" name="bottom"/>
  <anchor x="574.939226519337" y="1486.0" name="top"/>
  <outline>
    <contour>
      <point x="509.28729281767954" y="-22.0" type="curve" smooth="yes"/>
      <point x="881.3093922651933" y="-22.0"/>
      <point x="1019.2541436464088" y="198.90055248618785"/>
      <point x="1019.5359116022099" y="388.9889502762431" type="curve" smooth="yes"/>
      <point x="1019.817679558011" y="657.4640883977901"/>
      <point x="781.6629834254144" y="759.9613259668508"/>
      <point x="592.2707182320441" y="852.5248618784531" type="curve" smooth="yes"/>
      <point x="393.2596685082873" y="949.6795580110497"/>
      <point x="257.4088397790055" y="1019.8066298342542"/>
      <point x="257.4088397790055" y="1194.342541436464" type="curve" smooth="yes"/>
      <point x="257.4088397790055" y="1343.0994475138123"/>
      <point x="369.2486187845304" y="1448.2817679558011"/>
      <point x="559.9502762430939" y="1448.8453038674033" type="curve" smooth="yes"/>
      <point x="688.8066298342542" y="1449.1270718232045"/>
      <point x="756.3701657458563" y="1402.8176795580112"/>
      <point x="780.988950276243" y="1377.1270718232045" type="curve"/>
      <point x="830.2983425414365" y="1126.8397790055249" type="line"/>
      <point x="939.756906077348" y="1126.8397790055249" type="line"/>
      <point x="960.7734806629834" y="1431.1270718232045" type="line"/>
      <point x="915.7016574585635" y="1432.53591160221"/>
      <point x="797.1325966850828" y="1506.4088397790056"/>
      <point x="569.7237569060774" y="1504.254143646409" type="curve" smooth="yes"/>
      <point x="263.5193370165746" y="1501.3812154696132"/>
      <point x="79.77348066298343" y="1321.3922651933701"/>
      <point x="79.77348066298343" y="1123.1657458563536" type="curve" smooth="yes"/>
      <point x="79.77348066298343" y="851.2209944751381"/>
      <point x="303.77348066298345" y="754.3038674033149"/>
      <point x="468.9281767955801" y="676.950276243094" type="curve" smooth="yes"/>
      <point x="669.0828729281768" y="583.1878453038674"/>
      <point x="837.5911602209944" y="495.24309392265195"/>
      <point x="837.5911602209944" y="317.2596685082873" type="curve" smooth="yes"/>
      <point x="837.5911602209944" y="165.5745856353591"/>
      <point x="738.9889502762431" y="32.2817679558011"/>
      <point x="508.8066298342541" y="32.84530386740332" type="curve" smooth="yes"/>
      <point x="376.2596685082873" y="33.12707182320442"/>
      <point x="306.56906077348066" y="79.66298342541435"/>
      <point x="237.91160220994473" y="130.84530386740332" type="curve"/>
      <point x="188.19337016574585" y="395.1878453038674" type="line"/>
      <point x="72.73480662983425" y="395.1878453038674" type="line"/>
      <point x="48.56353591160221" y="68.87292817679558" type="line"/>
      <point x="111.69060773480663" y="63.15469613259668"/>
      <point x="263.0773480662983" y="-22.0"/>
    </contour>
  </outline>
</glyph>
<glyph name="T" format="2">
  <advance width="1361.3591160220994"/>
  <unicode hex="0054"/>
  <anchor x="681.6519337016574" y="0.0" name="bottom"/>
  <anchor x="1046.4309392265193" y="0.0" name="bottomright"/>
  <anchor x="679.9613259668508" y="705.5469613259669" name="center"/>
  <anchor x="681.0883977900553" y="1486.0" name="top"/>
  <outline>
    <contour>
      <point x="570.8397790055249" y="69.40883977900552" type="line"/>
      <point x="340.34806629834253" y="36.56353591160221" type="line"/>
      <point x="340.34806629834253" y="0.0" type="line"/>
      <point x="1045.4309392265193" y="0.0" type="line"/>
      <point x="1045.4309392265193" y="36.56353591160221" type="line"/>
      <point x="790.5193370165746" y="69.40883977900552" type="line"/>
      <point x="790.5193370165746" y="1433.2817679558011" type="line"/>
      <point x="1089.220994475138" y="1413.1270718232045" type="line"/>
      <point x="1218.2265193370165" y="962.7845303867404" type="line"/>
      <point x="1319.8950276243095" y="962.7845303867404" type="line"/>
      <point x="1279.2762430939226" y="1486.0" type="line"/>
      <point x="82.8011049723757" y="1486.0" type="line"/>
      <point x="41.46408839779006" y="962.7845303867404" type="line"/>
      <point x="142.56906077348066" y="962.7845303867404" type="line"/>
      <point x="273.1381215469613" y="1413.1270718232045" type="line"/>
      <point x="570.8397790055249" y="1433.2817679558011" type="line"/>
    </contour>
  </outline>
</glyph>
<glyph name="U" format="2">
  <advance width="1336.889502762431"/>
  <unicode hex="0055"/>
  <anchor x="738.3701657458563" y="0.0" name="bottom"/>
  <anchor x="828.0" y="20.0" name="ogonek"/>
  <anchor x="734.2707182320441" y="1486.0" name="top"/>
  <anchor x="1415.243093922652" y="1486.0" name="topright"/>
  <outline>
    <contour>
      <point x="733.2983425414365" y="-18.872928176795583" type="curve" smooth="yes"/>
      <point x="1007.4198895027624" y="-18.872928176795583"/>
      <point x="1182.2707182320441" y="160.34806629834256"/>
      <point x="1185.8618784530386" y="594.2209944751381" type="curve" smooth="yes"/>
      <point x="1193.0441988950276" y="1418.46408839779" type="line"/>
      <point x="1325.4806629834254" y="1450.0" type="line"/>
      <point x="1325.4806629834254" y="1486.0" type="line"/>
      <point x="961.243093922652" y="1486.0" type="line"/>
      <point x="961.243093922652" y="1450.0" type="line"/>
      <point x="1110.8342541436464" y="1417.0276243093922" type="line"/>
      <point x="1114.4254143646408" y="588.4751381215469" type="line" smooth="yes"/>
      <point x="1115.8618784530386" y="214.33701657458565"/>
      <point x="961.4806629834254" y="32.84530386740332"/>
      <point x="736.0055248618785" y="32.84530386740332" type="curve" smooth="yes"/>
      <point x="524.5469613259669" y="32.84530386740332"/>
      <point x="388.1988950276243" y="130.6353591160221"/>
      <point x="388.1988950276243" y="531.3701657458564" type="curve" smooth="yes"/>
      <point x="388.1988950276243" y="1418.46408839779" type="line"/>
      <point x="552.3093922651933" y="1450.0" type="line"/>
      <point x="552.3093922651933" y="1486.0" type="line"/>
      <point x="20.000000000000004" y="1486.0" type="line"/>
      <point x="20.000000000000004" y="1450.0" type="line"/>
      <point x="165.20994475138122" y="1418.46408839779" type="line"/>
      <point x="165.20994475138122" y="561.2209944751381" type="line" smooth="yes"/>
      <point x="165.20994475138122" y="134.5635359116022"/>
      <point x="359.1270718232044" y="-18.872928176795583"/>
    </contour>
  </outline>
</glyph>
<glyph name="V" format="2">
  <advance width="1288.353591160221"/>
  <unicode hex="0056"/>
  <outline>
    <contour>
      <point x="-27.635359116022098" y="1452.0" type="line"/>
      <point x="99.06629834254144" y="1417.0" type="line"/>
      <point x="578.4475138121547" y="-11.491712707182323" type="line"/>
      <point x="738.9779005524862" y="-11.491712707182323" type="line"/>
      <point x="1192.6685082872928" y="1417.0" type="line"/>
      <point x="1328.6961325966852" y="1452.0" type="line"/>
      <point x="1328.6961325966852" y="1486.0" type="line"/>
      <point x="949.3867403314916" y="1486.0" type="line"/>
      <point x="949.3867403314916" y="1452.0" type="line"/>
      <point x="1090.8232044198894" y="1417.0" type="line"/>
      <point x="753.1933701657458" y="244.27071823204417" type="line"/>
      <point x="727.3756906077348" y="119.34254143646406" type="line"/>
      <point x="700.6850828729282" y="245.3977900552486" type="line"/>
      <point x="338.50828729281767" y="1417.0" type="line"/>
      <point x="485.0441988950276" y="1452.0" type="line"/>
      <point x="485.0441988950276" y="1486.0" type="line"/>
      <point x="-27.635359116022098" y="1486.0" type="line"/>
    </contour>
  </outline>
</glyph>
<glyph name="W" format="2">
  <advance width="1842.4917127071824"/>
  <unicode hex="0057"/>
  <anchor x="956.7900552486187" y="0.0" name="bottom"/>
  <anchor x="948.5801104972376" y="1486.0" name="top"/>
  <outline>
    <contour>
      <point x="-37.04419889502762" y="1452.7182320441989" type="line"/>
      <point x="95.93922651933703" y="1417.7182320441989" type="line"/>
      <point x="495.23204419889504" y="-11.491712707182323" type="line"/>
      <point x="666.2707182320441" y="-11.491712707182323" type="line"/>
      <point x="945.9005524861878" y="973.7624309392265" type="line"/>
      <point x="1198.403314917127" y="-11.491712707182323" type="line"/>
      <point x="1369.132596685083" y="-11.491712707182323" type="line"/>
      <point x="1761.3812154696132" y="1417.2817679558011" type="line"/>
      <point x="1879.53591160221" y="1451.2817679558011" type="line"/>
      <point x="1879.53591160221" y="1486.0" type="line"/>
      <point x="1491.779005524862" y="1486.0" type="line"/>
      <point x="1491.779005524862" y="1451.2817679558011" type="line"/>
      <point x="1663.353591160221" y="1417.2817679558011" type="line"/>
      <point x="1375.5303867403316" y="274.37016574585635" type="line"/>
      <point x="1343.867403314917" y="108.50828729281766" type="line"/>
      <point x="1316.6685082872928" y="269.3425414364641" type="line"/>
      <point x="1047.1823204419888" y="1425.9005524861877" type="line"/>
      <point x="1199.9668508287293" y="1451.2817679558011" type="line"/>
      <point x="1199.9668508287293" y="1486.0" type="line"/>
      <point x="694.182320441989" y="1486.0" type="line"/>
      <point x="694.182320441989" y="1451.2817679558011" type="line"/>
      <point x="824.0939226519337" y="1425.9005524861877" type="line"/>
      <point x="903.7734806629834" y="1130.8729281767955" type="line"/>
      <point x="672.0220994475138" y="274.37016574585635" type="line"/>
      <point x="640.1325966850828" y="108.50828729281766" type="line"/>
      <point x="614.060773480663" y="270.060773480663" type="line"/>
      <point x="321.2099447513812" y="1418.0" type="line"/>
      <point x="467.71270718232046" y="1452.0" type="line"/>
      <point x="467.71270718232046" y="1486.0" type="line"/>
      <point x="-37.04419889502762" y="1486.7182320441989" type="line"/>
    </contour>
  </outline>
</glyph>
<glyph name="Z" format="2">
  <advance width="1244.9337016574586"/>
  <unicode hex="005A"/>
  <anchor x="627.0994475138122" y="0.0" name="bottom"/>
  <anchor x="659.4364640883978" y="1486.0" name="top"/>
  <outline>
    <contour>
      <point x="807.1602209944751" y="1254.2983425414366" type="line"/>
      <point x="39.49171270718232" y="33.0" type="line"/>
      <point x="61.23756906077348" y="0.0" type="line"/>
      <point x="1141.3867403314916" y="0.0" type="line"/>
      <point x="1199.132596685083" y="414.96132596685084" type="line"/>
      <point x="1094.364640883978" y="438.3425414364641" type="line"/>
      <point x="964.6298342541437" y="104.4364640883978" type="line"/>
      <point x="283.8618784530386" y="58.15469613259668" type="line"/>
      <point x="417.6629834254143" y="243.0110497237569" type="line"/>
      <point x="1179.7403314917128" y="1453.1270718232045" type="line"/>
      <point x="1157.585635359116" y="1486.0" type="line"/>
      <point x="176.12154696132598" y="1486.0" type="line"/>
      <point x="140.6022099447514" y="1112.7292817679559" type="line"/>
      <point x="239.08839779005524" y="1098.5027624309391" type="line"/>
      <point x="343.6243093922652" y="1403.4364640883978" type="line"/>
      <point x="940.6519337016575" y="1427.4088397790056" type="line"/>
    </contour>
  </outline>
</glyph>
<glyph name="bracketleft" format="2">
  <advance width="716.646408839779"/>
  <unicode hex="005B"/>
  <outline>
    <contour>
      <point x="158.97237569060775" y="1459.2596685082874" type="curve"/>
      <point x="158.97237569060775" y="-125.25966850828729" type="line" smooth="yes"/>
      <point x="158.97237569060775" y="-247.77348066298342"/>
      <point x="212.21546961325967" y="-274.0"/>
      <point x="330.585635359116" y="-274.0" type="curve" smooth="yes"/>
      <point x="410.7292817679558" y="-274.0"/>
      <point x="493.82872928176795" y="-257.1546961325967"/>
      <point x="570.9558011049724" y="-236.87292817679557" type="curve"/>
      <point x="570.9558011049724" y="-197.71823204419888" type="line"/>
      <point x="324.1160220994475" y="-197.71823204419888" type="line"/>
      <point x="324.1160220994475" y="1533.7182320441989" type="line"/>
      <point x="570.9558011049724" y="1533.7182320441989" type="line"/>
      <point x="570.9558011049724" y="1572.3093922651933" type="line"/>
      <point x="497.8563535911602" y="1589.1546961325967"/>
      <point x="415.3204419889503" y="1608.0"/>
      <point x="330.585635359116" y="1608.0" type="curve" smooth="yes"/>
      <point x="212.21546961325967" y="1608.0"/>
      <point x="158.97237569060775" y="1581.7734806629835"/>
    </contour>
  </outline>
</glyph>
<glyph name="bracketright" format="2">
  <advance width="716.646408839779"/>
  <unicode hex="005D"/>
  <outline>
    <contour>
      <point x="557.6740331491712" y="1459.2596685082874" type="line"/>
      <point x="557.6740331491712" y="1581.7734806629835"/>
      <point x="504.43093922651934" y="1608.0"/>
      <point x="386.060773480663" y="1608.0" type="curve" smooth="yes"/>
      <point x="301.3259668508287" y="1608.0"/>
      <point x="218.79005524861878" y="1589.1546961325967"/>
      <point x="145.69060773480663" y="1572.3093922651933" type="curve"/>
      <point x="145.69060773480663" y="1533.7182320441989" type="line"/>
      <point x="392.5303867403315" y="1533.7182320441989" type="line"/>
      <point x="392.5303867403315" y="-197.71823204419888" type="line"/>
      <point x="145.69060773480663" y="-197.71823204419888" type="line"/>
      <point x="145.69060773480663" y="-236.87292817679557" type="line"/>
      <point x="222.81767955801104" y="-257.1546961325967"/>
      <point x="305.9171270718232" y="-274.0"/>
      <point x="386.060773480663" y="-274.0" type="curve" smooth="yes"/>
      <point x="504.43093922651934" y="-274.0"/>
      <point x="557.6740331491712" y="-247.77348066298342"/>
      <point x="557.6740331491712" y="-125.25966850828729" type="curve" smooth="yes"/>
    </contour>
  </outline>
</glyph>
<glyph name="asciicircum" format="2">
  <advance width="1224.9834254143645"/>
  <unicode hex="005E"/>
  <outline>
    <contour>
      <point x="651.7734806629834" y="1496.0" type="line"/>
      <point x="567.7734806629834" y="1496.0" type="line"/>
      <point x="165.77348066298342" y="267.0" type="line"/>
      <point x="256.77348066298345" y="267.0" type="line"/>
      <point x="612.7734806629834" y="1362.0" type="line"/>
      <point x="958.7734806629834" y="267.0" type="line"/>
      <point x="1057.7734806629835" y="267.0" type="line"/>
    </contour>
  </outline>
</glyph>
<glyph name="a" format="2">
  <advance width="916.4585635359116"/>
  <unicode hex="0061"/>
  <anchor x="428.7790055248619" y="0.0" name="bottom"/>
  <anchor x="765.4861878453039" y="20.0" name="ogonek"/>
  <anchor x="457.44198895027625" y="1110.0" name="top"/>
  <outline>
    <contour>
      <point x="26.646408839779006" y="248.79005524861878" type="curve" smooth="yes"/>
      <point x="26.646408839779006" y="71.88950276243094"/>
      <point x="157.22099447513813" y="-16.535911602209943"/>
      <point x="296.7458563535912" y="-16.535911602209943" type="curve" smooth="yes"/>
      <point x="451.64640883977904" y="-16.535911602209943"/>
      <point x="568.5745856353591" y="102.19337016574586"/>
      <point x="602.7292817679559" y="165.646408839779" type="curve"/>
      <point x="602.7292817679559" y="66.84530386740332" type="line" smooth="yes"/>
      <point x="602.7292817679559" y="2.6464088397790064"/>
      <point x="643.7734806629834" y="-16.845303867403313"/>
      <point x="713.0718232044198" y="-16.845303867403313" type="curve" smooth="yes"/>
      <point x="786.9060773480663" y="-16.845303867403313"/>
      <point x="851.2486187845304" y="0.8453038674033142"/>
      <point x="893.5303867403314" y="13.43646408839779" type="curve"/>
      <point x="893.5303867403314" y="47.28176795580111" type="line"/>
      <point x="796.8287292817679" y="52.9171270718232" type="line"/>
      <point x="796.8287292817679" y="684.4640883977901" type="line" smooth="yes"/>
      <point x="796.8287292817679" y="916.6077348066299"/>
      <point x="703.4419889502763" y="1036.4364640883978"/>
      <point x="485.4696132596685" y="1036.4364640883978" type="curve" smooth="yes"/>
      <point x="304.50828729281767" y="1036.4364640883978"/>
      <point x="158.3646408839779" y="943.646408839779"/>
      <point x="84.61878453038673" y="895.3922651933701" type="curve"/>
      <point x="111.05524861878453" y="851.0110497237569" type="line"/>
      <point x="188.47513812154696" y="893.7127071823204"/>
      <point x="294.62983425414365" y="930.8674033149172"/>
      <point x="424.0662983425414" y="930.8674033149172" type="curve" smooth="yes"/>
      <point x="563.4861878453039" y="930.8674033149172"/>
      <point x="599.4475138121547" y="818.4917127071824"/>
      <point x="599.4475138121547" y="696.5801104972376" type="curve" smooth="yes"/>
      <point x="599.4475138121547" y="588.5082872928176" type="line"/>
      <point x="359.475138121547" y="588.5082872928176"/>
      <point x="26.646408839779006" y="495.7348066298342"/>
    </contour>
    <contour>
      <point x="379.939226519337" y="88.31491712707182" type="curve" smooth="yes"/>
      <point x="298.88397790055245" y="88.31491712707182"/>
      <point x="229.33701657458562" y="164.9060773480663"/>
      <point x="229.33701657458562" y="275.52486187845307" type="curve" smooth="yes"/>
      <point x="229.33701657458562" y="442.56353591160223"/>
      <point x="393.81767955801104" y="536.2541436464088"/>
      <point x="599.4475138121547" y="536.5359116022099" type="curve"/>
      <point x="599.4475138121547" y="197.646408839779" type="line"/>
      <point x="540.2265193370166" y="135.79005524861878"/>
      <point x="472.2707182320442" y="88.31491712707182"/>
    </contour>
  </outline>
</glyph>
<glyph name="c" format="2">
  <advance width="865.4254143646409"/>
  <unicode hex="0063"/>
  <anchor x="475.8453038674033" y="0.0" name="bottom"/>
  <anchor x="559.646408839779" y="1110.0" name="top"/>
  <outline>
    <contour>
      <point x="44.646408839779006" y="491.5911602209945" type="curve" smooth="yes"/>
      <point x="44.646408839779006" y="184.1270718232044"/>
      <point x="206.11049723756906" y="-22.0"/>
      <point x="492.97237569060775" y="-22.0" type="curve" smooth="yes"/>
      <point x="627.9613259668508" y="-22.0"/>
      <point x="766.9502762430939" y="41.14364640883978"/>
      <point x="829.7237569060774" y="106.45303867403315" type="curve"/>
      <point x="807.5966850828729" y="148.08839779005524" type="line"/>
      <point x="753.878453038674" y="106.52486187845304"/>
      <point x="649.1049723756906" y="67.00552486187844"/>
      <point x="555.4475138121547" y="67.00552486187844" type="curve" smooth="yes"/>
      <point x="371.5359116022099" y="67.00552486187844"/>
      <point x="264.9723756906077" y="233.59116022099448"/>
      <point x="264.9723756906077" y="525.4530386740331" type="curve" smooth="yes"/>
      <point x="264.9723756906077" y="830.4972375690608"/>
      <point x="392.5138121546961" y="985.6187845303867"/>
      <point x="527.707182320442" y="985.6187845303867" type="curve" smooth="yes"/>
      <point x="637.9116022099447" y="985.6187845303867"/>
      <point x="668.2209944751381" y="930.7458563535912"/>
      <point x="675.6022099447514" y="896.939226519337" type="curve" smooth="yes"/>
      <point x="716.1657458563536" y="708.1933701657458" type="line"/>
      <point x="820.9060773480663" y="708.1933701657458" type="line"/>
      <point x="829.3149171270718" y="976.7458563535912" type="line"/>
      <point x="784.5801104972376" y="985.4640883977901"/>
      <point x="680.8508287292817" y="1039.8453038674033"/>
      <point x="552.4640883977901" y="1039.8453038674033" type="curve" smooth="yes"/>
      <point x="253.8011049723757" y="1039.8453038674033"/>
      <point x="44.646408839779006" y="803.4254143646409"/>
    </contour>
  </outline>
</glyph>
<glyph name="e" format="2">
  <advance width="914.2872928176796"/>
  <unicode hex="0065"/>
  <anchor x="473.22651933701655" y="0.0" name="bottom"/>
  <anchor x="622.6906077348066" y="20.0" name="ogonek"/>
  <anchor x="515.2265193370166" y="1110.0" name="top"/>
  <outline>
    <contour>
      <point x="499.88950276243094" y="-22.56353591160221" type="curve" smooth="yes"/>
      <point x="639.1325966850828" y="-22.56353591160221"/>
      <point x="775.9668508287293" y="42.73480662983425"/>
      <point x="843.1767955801105" y="110.1988950276243" type="curve"/>
      <point x="820.767955801105" y="154.70718232044197" type="line"/>
      <point x="762.6132596685082" y="107.39779005524862"/>
      <point x="653.1767955801105" y="65.00552486187846"/>
      <point x="550.5745856353591" y="65.00552486187846" type="curve" smooth="yes"/>
      <point x="340.07182320441984" y="65.00552486187846"/>
      <point x="259.5635359116022" y="266.9226519337017"/>
      <point x="256.74585635359114" y="508.0110497237569" type="curve"/>
      <point x="871.1049723756906" y="508.0110497237569" type="line"/>
      <point x="878.232044198895" y="539.6022099447514"/>
      <point x="883.5138121546961" y="584.4917127071824"/>
      <point x="882.7955801104972" y="669.9723756906077" type="curve"/>
      <point x="879.5138121546961" y="908.6906077348067"/>
      <point x="733.6961325966851" y="1039.8453038674033"/>
      <point x="500.8342541436464" y="1039.8453038674033" type="curve" smooth="yes"/>
      <point x="266.0662983425414" y="1039.8453038674033"/>
      <point x="37.95580110497238" y="837.3370165745856"/>
      <point x="37.95580110497238" y="485.0" type="curve" smooth="yes"/>
      <point x="37.95580110497238" y="171.28176795580112"/>
      <point x="201.6022099447514" y="-22.56353591160221"/>
    </contour>
    <contour>
      <point x="256.90055248618785" y="552.8563535911602" type="line"/>
      <point x="254.64640883977899" y="792.5580110497237"/>
      <point x="333.3922651933702" y="988.1546961325967"/>
      <point x="498.7900552486188" y="988.1546961325967" type="curve" smooth="yes"/>
      <point x="628.3756906077348" y="988.1546961325967"/>
      <point x="679.1602209944751" y="872.9171270718232"/>
      <point x="679.1602209944751" y="672.4806629834254" type="curve" smooth="yes"/>
      <point x="679.1602209944751" y="644.4806629834254"/>
      <point x="678.5966850828729" y="601.4198895027624"/>
      <point x="675.0055248618785" y="571.7016574585635" type="curve"/>
    </contour>
  </outline>
</glyph>
<glyph name="f" format="2">
  <advance width="621.9171270718232"/>
  <unicode hex="0066"/>
  <anchor x="417.0" y="1613.0" name="top"/>
  <outline>
    <contour>
      <point x="183.1657458563536" y="68.40883977900552" type="line"/>
      <point x="32.81767955801105" y="36.56353591160221" type="line"/>
      <point x="32.81767955801105" y="0.0" type="line"/>
      <point x="536.2486187845303" y="0.0" type="line"/>
      <point x="536.2486187845303" y="36.56353591160221" type="line"/>
      <point x="375.8563535911602" y="66.97237569060773" type="line"/>
      <point x="375.8563535911602" y="932.8563535911602" type="line"/>
      <point x="587.3314917127071" y="932.8563535911602" type="line"/>
      <point x="587.3314917127071" y="1005.0" type="line"/>
      <point x="375.8563535911602" y="1005.0" type="line"/>
      <point x="375.8563535911602" y="1318.53591160221" type="line" smooth="yes"/>
      <point x="375.8563535911602" y="1492.375690607735"/>
      <point x="423.50276243093924" y="1532.9668508287293"/>
      <point x="550.6519337016574" y="1532.9668508287293" type="curve" smooth="yes"/>
      <point x="628.6077348066299" y="1532.9668508287293"/>
      <point x="692.8508287292817" y="1516.6408839779006"/>
      <point x="723.8950276243094" y="1499.0055248618785" type="curve"/>
      <point x="723.8950276243094" y="1640.0276243093922" type="line"/>
      <point x="708.3314917127071" y="1647.4364640883978"/>
      <point x="679.5138121546961" y="1656.3093922651933"/>
      <point x="635.414364640884" y="1656.3093922651933" type="curve" smooth="yes"/>
      <point x="414.9337016574586" y="1656.3093922651933"/>
      <point x="183.1657458563536" y="1449.0773480662983"/>
      <point x="183.1657458563536" y="1121.0773480662983" type="curve" smooth="yes"/>
      <point x="183.1657458563536" y="1003.2817679558011" type="line"/>
      <point x="33.56353591160221" y="970.1381215469613" type="line"/>
      <point x="33.56353591160221" y="932.8563535911602" type="line"/>
      <point x="183.1657458563536" y="932.8563535911602" type="line"/>
    </contour>
  </outline>
</glyph>
<glyph name="h" format="2">
  <advance width="1083.1381215469614"/>
  <unicode hex="0068"/>
  <anchor x="542.6408839779006" y="0.0" name="bottom"/>
  <anchor x="277.6574585635359" y="1300.546961325967" name="center"/>
  <anchor x="195.16022099447514" y="1600.3093922651933" name="top"/>
  <outline>
    <contour>
      <point x="124.49171270718233" y="68.40883977900552" type="line"/>
      <point x="5.309392265193367" y="36.56353591160221" type="line"/>
      <point x="5.309392265193367" y="0.0" type="line"/>
      <point x="437.90055248618785" y="0.0" type="line"/>
      <point x="437.90055248618785" y="36.56353591160221" type="line"/>
      <point x="319.5635359116022" y="68.40883977900552" type="line"/>
      <point x="319.5635359116022" y="807.6906077348067" type="line"/>
      <point x="401.96685082872926" y="873.3480662983426"/>
      <point x="475.30386740331494" y="911.8397790055249"/>
      <point x="591.3977900552486" y="911.8397790055249" type="curve" smooth="yes"/>
      <point x="732.292817679558" y="911.8397790055249"/>
      <point x="755.110497237569" y="799.5911602209944"/>
      <point x="755.110497237569" y="628.9613259668508" type="curve" smooth="yes"/>
      <point x="755.110497237569" y="68.40883977900552" type="line"/>
      <point x="644.5082872928177" y="36.56353591160221" type="line"/>
      <point x="644.5082872928177" y="0.0" type="line"/>
      <point x="1064.5193370165746" y="0.0" type="line"/>
      <point x="1064.5193370165746" y="36.563535911602216" type="line"/>
      <point x="952.6187845303867" y="68.40883977900552" type="line"/>
      <point x="952.6187845303867" y="633.988950276243" type="line" smooth="yes"/>
      <point x="952.6187845303867" y="878.5138121546961"/>
      <point x="890.7845303867404" y="1030.3812154696134"/>
      <point x="668.4917127071823" y="1030.3812154696134" type="curve" smooth="yes"/>
      <point x="513.3370165745856" y="1030.3812154696134"/>
      <point x="388.8453038674033" y="927.1988950276243"/>
      <point x="316.0" y="836.5082872928176" type="curve"/>
      <point x="319.5635359116022" y="1001.0552486187845" type="line"/>
      <point x="319.5635359116022" y="1615.1381215469614" type="line"/>
      <point x="292.03867403314916" y="1636.8729281767955" type="line"/>
      <point x="251.44751381215468" y="1636.8729281767955" type="line"/>
      <point x="-4.46408839779005" y="1581.486187845304" type="line"/>
      <point x="-4.46408839779005" y="1551.1049723756905" type="line"/>
      <point x="124.49171270718233" y="1524.2154696132598" type="line"/>
    </contour>
  </outline>
</glyph>
<glyph name="k" format="2">
  <advance width="988.9613259668508"/>
  <unicode hex="006B"/>
  <anchor x="613.7513812154696" y="0.0" name="bottom"/>
  <anchor x="558.1767955801105" y="1620.0" name="top"/>
  <outline>
    <contour>
      <point x="124.05524861878453" y="68.12707182320442" type="line"/>
      <point x="5.309392265193381" y="36.2817679558011" type="line"/>
      <point x="5.309392265193381" y="0.0" type="line"/>
      <point x="439.3370165745856" y="0.0" type="line"/>
      <point x="439.3370165745856" y="36.0" type="line"/>
      <point x="319.1270718232044" y="68.12707182320442" type="line"/>
      <point x="319.1270718232044" y="257.69060773480663" type="line"/>
      <point x="309.81767955801104" y="364.30939226519337" type="line"/>
      <point x="474.62983425414365" y="541.121546961326" type="line"/>
      <point x="729.8342541436464" y="68.12707182320442" type="line"/>
      <point x="617.8066298342542" y="36.56353591160221" type="line"/>
      <point x="619.7790055248619" y="0.0" type="line"/>
      <point x="1071.7790055248618" y="0.0" type="line"/>
      <point x="1071.7790055248618" y="38.0" type="line"/>
      <point x="961.8508287292817" y="68.12707182320442" type="line"/>
      <point x="608.414364640884" y="676.5414364640884" type="line"/>
      <point x="848.7458563535912" y="935.0" type="line"/>
      <point x="962.3259668508288" y="966.0" type="line"/>
      <point x="962.3259668508288" y="1005.0" type="line"/>
      <point x="597.5745856353591" y="1005.0" type="line"/>
      <point x="597.5745856353591" y="966.0" type="line"/>
      <point x="739.182320441989" y="934.0" type="line"/>
      <point x="311.2541436464088" y="446.8729281767956" type="line"/>
      <point x="319.1270718232044" y="618.3425414364641" type="line"/>
      <point x="319.1270718232044" y="1614.8563535911603" type="line"/>
      <point x="291.88397790055245" y="1636.8729281767955" type="line"/>
      <point x="251.292817679558" y="1636.8729281767955" type="line"/>
      <point x="-4.182320441988942" y="1581.486187845304" type="line"/>
      <point x="-4.182320441988942" y="1551.1049723756905" type="line"/>
      <point x="124.05524861878453" y="1524.2154696132598" type="line"/>
    </contour>
  </outline>
</glyph>
<glyph name="l" format="2">
  <advance width="495.4585635359116"/>
  <unicode hex="006C"/>
  <anchor x="255.4696132596685" y="0.0" name="bottom"/>
  <anchor x="254.45303867403314" y="1634.0" name="top"/>
  <anchor x="521.3204419889503" y="1110.2817679558011" name="topright"/>
  <outline>
    <contour>
      <point x="154.65745856353593" y="68.69060773480663" type="line"/>
      <point x="35.91160220994476" y="36.28176795580111" type="line"/>
      <point x="35.91160220994476" y="0.0" type="line"/>
      <point x="465.34806629834253" y="0.0" type="line"/>
      <point x="465.34806629834253" y="36.28176795580111" type="line"/>
      <point x="347.75690607734805" y="68.40883977900552" type="line"/>
      <point x="347.75690607734805" y="1615.1381215469614" type="line"/>
      <point x="322.20441988950273" y="1636.8729281767955" type="line"/>
      <point x="281.89502762430936" y="1636.8729281767955" type="line"/>
      <point x="26.41988950276243" y="1581.486187845304" type="line"/>
      <point x="26.41988950276243" y="1551.1049723756905" type="line"/>
      <point x="154.65745856353593" y="1524.2154696132598" type="line"/>
    </contour>
  </outline>
</glyph>
<glyph name="m" format="2">
  <advance width="1699.364640883978"/>
  <unicode hex="006D"/>
  <anchor x="856.3867403314918" y="0.0" name="bottom"/>
  <anchor x="849.767955801105" y="1110.2817679558011" name="top"/>
  <outline>
    <contour>
      <point x="9.845303867403317" y="0.0" type="line"/>
      <point x="437.69060773480663" y="0.0" type="line"/>
      <point x="437.69060773480663" y="36.563535911602216" type="line"/>
      <point x="323.6629834254143" y="68.40883977900552" type="line"/>
      <point x="323.6629834254143" y="807.6906077348067" type="line"/>
      <point x="404.34806629834253" y="873.3480662983426"/>
      <point x="478.121546961326" y="908.9668508287293"/>
      <point x="593.7790055248619" y="908.9668508287293" type="curve" smooth="yes"/>
      <point x="734.3922651933701" y="908.9668508287293"/>
      <point x="753.9005524861878" y="796.7182320441989"/>
      <point x="753.9005524861878" y="628.9613259668508" type="curve" smooth="yes"/>
      <point x="753.9005524861878" y="68.40883977900552" type="line"/>
      <point x="643.2983425414365" y="36.563535911602216" type="line"/>
      <point x="643.2983425414365" y="0.0" type="line"/>
      <point x="1063.3093922651933" y="0.0" type="line"/>
      <point x="1063.3093922651933" y="36.563535911602216" type="line"/>
      <point x="950.6906077348066" y="68.40883977900552" type="line"/>
      <point x="951.4088397790055" y="643.8508287292817" type="line" smooth="yes"/>
      <point x="951.4088397790055" y="701.6795580110497"/>
      <point x="950.1546961325967" y="776.3812154696133"/>
      <point x="941.1270718232045" y="810.7182320441989" type="curve"/>
      <point x="1016.0662983425415" y="874.4751381215469"/>
      <point x="1090.5303867403316" y="908.9668508287293"/>
      <point x="1206.1878453038673" y="908.9668508287293" type="curve" smooth="yes"/>
      <point x="1348.2375690607735" y="908.9668508287293"/>
      <point x="1370.6187845303868" y="796.7182320441989"/>
      <point x="1370.6187845303868" y="628.9613259668508" type="curve" smooth="yes"/>
      <point x="1370.6187845303868" y="68.12707182320442" type="line"/>
      <point x="1260.0165745856355" y="36.56353591160221" type="line"/>
      <point x="1260.0165745856355" y="0.0" type="line"/>
      <point x="1680.745856353591" y="0.0" type="line"/>
      <point x="1680.745856353591" y="36.56353591160221" type="line"/>
      <point x="1568.1270718232045" y="68.12707182320442" type="line"/>
      <point x="1568.1270718232045" y="633.988950276243" type="line" smooth="yes"/>
      <point x="1568.1270718232045" y="875.6408839779006"/>
      <point x="1507.7292817679559" y="1027.5082872928176"/>
      <point x="1281.8453038674033" y="1027.5082872928176" type="curve" smooth="yes"/>
      <point x="1128.8729281767955" y="1027.5082872928176"/>
      <point x="1002.3812154696133" y="928.0441988950276"/>
      <point x="933.4088397790055" y="837.817679558011" type="curve"/>
      <point x="895.5359116022099" y="963.9447513812155"/>
      <point x="816.0994475138122" y="1027.5082872928176"/>
      <point x="670.8729281767955" y="1027.5082872928176" type="curve" smooth="yes"/>
      <point x="514.3093922651933" y="1027.5082872928176"/>
      <point x="391.22651933701655" y="927.1988950276243"/>
      <point x="321.9723756906077" y="838.9447513812155" type="curve"/>
      <point x="321.9723756906077" y="996.0276243093922" type="line"/>
      <point x="296.82872928176795" y="1017.0441988950276" type="line"/>
      <point x="245.33701657458562" y="1017.0441988950276" type="line"/>
      <point x="4.662983425414364" y="947.292817679558" type="line"/>
      <point x="4.662983425414364" y="916.9116022099447" type="line"/>
      <point x="126.4364640883978" y="878.5303867403316" type="line"/>
      <point x="126.4364640883978" y="68.40883977900552" type="line"/>
      <point x="9.845303867403317" y="36.563535911602216" type="line"/>
    </contour>
  </outline>
</glyph>
<glyph name="n" format="2">
  <advance width="1085.5193370165746"/>
  <unicode hex="006E"/>
  <anchor x="578.1988950276243" y="0.0" name="bottom"/>
  <anchor x="548.171270718232" y="1110.2817679558011" name="top"/>
  <outline>
    <contour>
      <point x="126.4364640883978" y="68.40883977900552" type="line"/>
      <point x="9.845303867403317" y="36.56353591160221" type="line"/>
      <point x="9.845303867403317" y="0.0" type="line"/>
      <point x="437.4088397790055" y="0.0" type="line"/>
      <point x="437.4088397790055" y="36.56353591160221" type="line"/>
      <point x="323.6629834254143" y="68.40883977900552" type="line"/>
      <point x="323.6629834254143" y="807.6906077348067" type="line"/>
      <point x="404.34806629834253" y="873.3480662983426"/>
      <point x="471.76795580110496" y="911.8397790055249"/>
      <point x="593.7790055248619" y="911.8397790055249" type="curve" smooth="yes"/>
      <point x="734.3922651933701" y="911.8397790055249"/>
      <point x="757.4917127071823" y="799.5911602209944"/>
      <point x="757.4917127071823" y="631.8342541436464" type="curve" smooth="yes"/>
      <point x="757.4917127071823" y="68.40883977900552" type="line"/>
      <point x="646.889502762431" y="36.56353591160221" type="line"/>
      <point x="646.889502762431" y="0.0" type="line"/>
      <point x="1066.9005524861877" y="0.0" type="line"/>
      <point x="1066.9005524861877" y="36.563535911602216" type="line"/>
      <point x="955.0" y="68.40883977900552" type="line"/>
      <point x="955.0" y="636.8618784530387" type="line" smooth="yes"/>
      <point x="955.0" y="878.5138121546961"/>
      <point x="893.1657458563536" y="1030.3812154696134"/>
      <point x="670.8729281767955" y="1030.3812154696134" type="curve" smooth="yes"/>
      <point x="515.7182320441989" y="1030.3812154696134"/>
      <point x="391.22651933701655" y="927.1988950276243"/>
      <point x="321.9723756906077" y="838.3812154696133" type="curve"/>
      <point x="323.09944751381215" y="917.0" type="line"/>
      <point x="323.09944751381215" y="996.0276243093923" type="line"/>
      <point x="296.11049723756906" y="1017.0441988950276" type="line"/>
      <point x="245.33701657458562" y="1017.0441988950276" type="line"/>
      <point x="4.662983425414364" y="947.292817679558" type="line"/>
      <point x="4.662983425414364" y="916.9116022099447" type="line"/>
      <point x="126.4364640883978" y="878.5303867403316" type="line"/>
    </contour>
  </outline>
</glyph>
<glyph name="o" format="2">
  <advance width="1019.939226519337"/>
  <unicode hex="006F"/>
  <anchor x="511.9060773480663" y="0.0" name="bottom"/>
  <anchor x="511.1878453038674" y="506.2817679558011" name="center"/>
  <anchor x="542.7237569060773" y="10.000000000000004" name="ogonek"/>
  <anchor x="511.9060773480663" y="1110.0" name="top"/>
  <anchor x="685.6685082872929" y="1005.0" name="topright"/>
  <outline>
    <contour>
      <point x="44.646408839779006" y="491.5911602209945" type="curve" smooth="yes"/>
      <point x="44.646408839779006" y="204.64088397790056"/>
      <point x="181.87845303867402" y="-22.56353591160221"/>
      <point x="493.65193370165747" y="-22.56353591160221" type="curve" smooth="yes"/>
      <point x="733.8397790055249" y="-22.56353591160221"/>
      <point x="975.292817679558" y="167.5745856353591"/>
      <point x="975.292817679558" y="525.7182320441989" type="curve" smooth="yes"/>
      <point x="975.292817679558" y="811.8232044198895"/>
      <point x="843.3149171270718" y="1039.0"/>
      <point x="528.4419889502763" y="1039.0" type="curve" smooth="yes"/>
      <point x="288.5359116022099" y="1039.0"/>
      <point x="44.646408839779006" y="849.5801104972376"/>
    </contour>
    <contour>
      <point x="511.3149171270718" y="29.127071823204425" type="curve" smooth="yes"/>
      <point x="331.8563535911602" y="29.127071823204425"/>
      <point x="267.1988950276243" y="266.4475138121547"/>
      <point x="267.1988950276243" y="516.9723756906077" type="curve" smooth="yes"/>
      <point x="267.1988950276243" y="832.7624309392265"/>
      <point x="354.91160220994476" y="987.3093922651933"/>
      <point x="513.0331491712707" y="987.3093922651933" type="curve" smooth="yes"/>
      <point x="690.5193370165746" y="987.3093922651933"/>
      <point x="753.3038674033149" y="748.8342541436464"/>
      <point x="753.3038674033149" y="499.77348066298345" type="curve" smooth="yes"/>
      <point x="753.3038674033149" y="186.6740331491713"/>
      <point x="665.7458563535912" y="29.127071823204425"/>
    </contour>
  </outline>
</glyph>
<glyph name="p" format="2">
  <advance width="1055.8839779005525"/>
  <unicode hex="0070"/>
  <anchor x="558.2209944751381" y="1110.5635359116022" name="top"/>
  <outline>
    <contour>
      <point x="1010.4475138121547" y="543.171270718232" type="curve" smooth="yes"/>
      <point x="1010.4475138121547" y="857.1270718232045"/>
      <point x="873.9558011049724" y="1039.6906077348067"/>
      <point x="624.0110497237569" y="1039.6906077348067" type="curve" smooth="yes"/>
      <point x="461.4088397790055" y="1039.6906077348067"/>
      <point x="347.87292817679554" y="926.7348066298342"/>
      <point x="318.81767955801104" y="872.1712707182321" type="curve"/>
      <point x="320.22651933701655" y="995.3093922651933" type="line"/>
      <point x="292.5193370165746" y="1017.0441988950276" type="line"/>
      <point x="247.4917127071823" y="1017.0441988950276" type="line"/>
      <point x="4.662983425414367" y="947.2928176795581" type="line"/>
      <point x="4.662983425414367" y="916.9116022099447" type="line"/>
      <point x="127.15469613259668" y="878.5303867403316" type="line"/>
      <point x="127.4364640883978" y="-380.353591160221" type="line"/>
      <point x="9.845303867403317" y="-412.1988950276243" type="line"/>
      <point x="9.845303867403317" y="-448.76243093922653" type="line"/>
      <point x="469.7292817679558" y="-448.76243093922653" type="line"/>
      <point x="469.7292817679558" y="-412.1988950276243" type="line"/>
      <point x="320.2541436464088" y="-381.0718232044199" type="line"/>
      <point x="320.2541436464088" y="-161.84530386740332" type="line"/>
      <point x="317.38121546961327" y="12.364640883977902" type="line"/>
      <point x="349.8453038674033" y="-3.3812154696132577"/>
      <point x="432.7734806629834" y="-22.0"/>
      <point x="525.756906077348" y="-22.0" type="curve" smooth="yes"/>
      <point x="789.6850828729282" y="-22.0"/>
      <point x="1010.4475138121547" y="207.0110497237569"/>
    </contour>
    <contour>
      <point x="555.2983425414365" y="952.8121546961327" type="curve" smooth="yes"/>
      <point x="687.3922651933701" y="952.8121546961327"/>
      <point x="788.7845303867404" y="827.5911602209944"/>
      <point x="788.7845303867404" y="525.646408839779" type="curve" smooth="yes"/>
      <point x="788.7845303867404" y="202.87292817679557"/>
      <point x="695.353591160221" y="30.535911602209943"/>
      <point x="508.2486187845304" y="30.535911602209943" type="curve" smooth="yes"/>
      <point x="413.0" y="30.535911602209943"/>
      <point x="346.8453038674033" y="76.64640883977901"/>
      <point x="320.2541436464088" y="115.15469613259668" type="curve"/>
      <point x="320.2541436464088" y="831.9723756906077" type="line"/>
      <point x="356.5193370165746" y="872.6740331491712"/>
      <point x="436.3867403314917" y="952.8121546961327"/>
    </contour>
  </outline>
</glyph>
<glyph name="q" format="2">
  <advance width="1022.8287292817679"/>
  <unicode hex="0071"/>
  <outline>
    <contour>
      <point x="570.8011049723757" y="-448.76243093922653" type="line"/>
      <point x="1051.8397790055249" y="-448.76243093922653" type="line"/>
      <point x="1051.8397790055249" y="-411.1988950276243" type="line"/>
      <point x="930.2651933701658" y="-380.353591160221" type="line"/>
      <point x="930.2651933701658" y="1004.1546961325967" type="line"/>
      <point x="894.6298342541436" y="1026.3812154696132" type="line"/>
      <point x="876.4585635359116" y="1026.3812154696132" type="line"/>
      <point x="785.9447513812155" y="970.6353591160221" type="line"/>
      <point x="722.2983425414365" y="1005.7458563535912"/>
      <point x="652.7348066298342" y="1039.1270718232045"/>
      <point x="533.5082872928177" y="1039.1270718232045" type="curve" smooth="yes"/>
      <point x="265.6353591160221" y="1039.1270718232045"/>
      <point x="44.309392265193374" y="813.2044198895028"/>
      <point x="44.309392265193374" y="465.3370165745856" type="curve" smooth="yes"/>
      <point x="44.309392265193374" y="154.20994475138122"/>
      <point x="200.52486187845304" y="-22.281767955801104"/>
      <point x="433.5911602209945" y="-22.281767955801104" type="curve" smooth="yes"/>
      <point x="608.0386740331492" y="-22.281767955801104"/>
      <point x="707.011049723757" y="88.7292817679558"/>
      <point x="738.0110497237569" y="144.95580110497238" type="curve"/>
      <point x="737.4475138121547" y="-46.0" type="line"/>
      <point x="737.4475138121547" y="-380.353591160221" type="line"/>
      <point x="570.8011049723757" y="-411.1988950276243" type="line"/>
    </contour>
    <contour>
      <point x="503.55801104972375" y="65.16022099447514" type="curve" smooth="yes"/>
      <point x="372.61878453038673" y="65.16022099447514"/>
      <point x="269.35359116022096" y="191.09944751381215"/>
      <point x="269.35359116022096" y="488.7900552486188" type="curve" smooth="yes"/>
      <point x="269.35359116022096" y="805.9447513812155"/>
      <point x="363.0662983425414" y="985.4640883977901"/>
      <point x="554.9613259668508" y="985.4640883977901" type="curve" smooth="yes"/>
      <point x="650.0552486187845" y="985.4640883977901"/>
      <point x="709.292817679558" y="941.2265193370166"/>
      <point x="737.1657458563536" y="901.2817679558011" type="curve"/>
      <point x="737.1657458563536" y="185.28176795580112" type="line"/>
      <point x="699.2099447513813" y="139.38121546961327"/>
      <point x="622.7348066298342" y="65.16022099447514"/>
    </contour>
  </outline>
</glyph>
<glyph name="r" format="2">
  <advance width="670.4364640883978"/>
  <unicode hex="0072"/>
  <anchor x="221.53038674033147" y="0.0" name="bottom"/>
  <anchor x="363.1491712707182" y="1110.0" name="top"/>
  <outline>
    <contour>
      <point x="9.845303867403317" y="0.0" type="line"/>
      <point x="464.4806629834254" y="0.0" type="line"/>
      <point x="464.4806629834254" y="36.56353591160221" type="line"/>
      <point x="323.6629834254143" y="68.69060773480663" type="line"/>
      <point x="323.38121546961327" y="721.9834254143647" type="line"/>
      <point x="380.5911602209945" y="825.0055248618785"/>
      <point x="480.3756906077348" y="853.0883977900553"/>
      <point x="577.3591160220994" y="853.0883977900553" type="curve" smooth="yes"/>
      <point x="607.3204419889503" y="853.0883977900553"/>
      <point x="629.182320441989" y="842.7624309392265"/>
      <point x="641.8729281767955" y="834.6629834254144" type="curve"/>
      <point x="641.8729281767955" y="1018.5635359116022" type="line"/>
      <point x="630.5911602209944" y="1023.4088397790056"/>
      <point x="615.0276243093922" y="1026.9723756906078"/>
      <point x="589.6187845303867" y="1026.9723756906078" type="curve" smooth="yes"/>
      <point x="452.5193370165746" y="1026.9723756906078"/>
      <point x="336.2817679558011" y="865.7403314917127"/>
      <point x="320.81767955801104" y="769.2099447513813" type="curve"/>
      <point x="316.69060773480663" y="754.8453038674033" type="line"/>
      <point x="321.69060773480663" y="924.1712707182321" type="line"/>
      <point x="322.4088397790055" y="996.5911602209944" type="line"/>
      <point x="295.5745856353591" y="1017.0441988950276" type="line"/>
      <point x="241.9281767955801" y="1017.0441988950276" type="line"/>
      <point x="4.944751381215468" y="947.292817679558" type="line"/>
      <point x="4.944751381215468" y="916.6298342541437" type="line"/>
      <point x="126.4364640883978" y="878.5303867403316" type="line"/>
      <point x="126.4364640883978" y="68.40883977900552" type="line"/>
      <point x="9.845303867403317" y="36.56353591160221" type="line"/>
    </contour>
  </outline>
</glyph>
<glyph name="s" format="2">
  <advance width="804.9779005524862"/>
  <unicode hex="0073"/>
  <anchor x="389.17127071823205" y="-2.5359116022099437" name="bottom"/>
  <anchor x="427.7348066298343" y="1110.2817679558011" name="top"/>
  <outline>
    <contour>
      <point x="145.65193370165744" y="293.6353591160221" type="line"/>
      <point x="56.90055248618785" y="293.6353591160221" type="line"/>
      <point x="54.3646408839779" y="51.05524861878453" type="line"/>
      <point x="115.92817679558011" y="47.90055248618785"/>
      <point x="241.81767955801104" y="-21.408839779005525"/>
      <point x="385.7348066298343" y="-21.408839779005525" type="curve" smooth="yes"/>
      <point x="627.5303867403314" y="-21.408839779005525"/>
      <point x="753.1767955801105" y="100.1988950276243"/>
      <point x="753.1767955801105" y="298.3259668508287" type="curve" smooth="yes"/>
      <point x="753.1767955801105" y="459.50828729281767"/>
      <point x="600.2486187845303" y="532.707182320442"/>
      <point x="436.47513812154693" y="608.8618784530387" type="curve" smooth="yes"/>
      <point x="313.2209944751381" y="666.1160220994475"/>
      <point x="211.64088397790056" y="723.6353591160221"/>
      <point x="211.64088397790056" y="828.171270718232" type="curve" smooth="yes"/>
      <point x="211.64088397790056" y="944.9558011049724"/>
      <point x="315.1270718232044" y="992.4640883977901"/>
      <point x="405.6077348066298" y="992.4640883977901" type="curve" smooth="yes"/>
      <point x="518.0441988950276" y="992.4640883977901"/>
      <point x="558.9060773480663" y="941.0552486187845"/>
      <point x="578.2872928176796" y="885.950276243094" type="curve"/>
      <point x="624.0883977900553" y="747.4751381215469" type="line"/>
      <point x="698.1767955801105" y="747.4751381215469" type="line"/>
      <point x="701.2762430939226" y="980.0" type="line"/>
      <point x="652.2044198895028" y="989.1546961325967"/>
      <point x="581.6243093922652" y="1039.0"/>
      <point x="415.42541436464086" y="1039.0" type="curve" smooth="yes"/>
      <point x="219.12154696132598" y="1039.0"/>
      <point x="71.32044198895028" y="934.1381215469613"/>
      <point x="71.32044198895028" y="750.3646408839779" type="curve" smooth="yes"/>
      <point x="71.32044198895028" y="601.4143646408841"/>
      <point x="175.73480662983425" y="502.5414364640884"/>
      <point x="348.4640883977901" y="426.4861878453039" type="curve" smooth="yes"/>
      <point x="527.8011049723757" y="347.0497237569061"/>
      <point x="616.9281767955802" y="285.9668508287293"/>
      <point x="616.9281767955802" y="192.03867403314916" type="curve" smooth="yes"/>
      <point x="616.9281767955802" y="83.6353591160221"/>
      <point x="532.2707182320441" y="27.40883977900552"/>
      <point x="398.08839779005524" y="27.40883977900552" type="curve" smooth="yes"/>
      <point x="302.7348066298342" y="27.40883977900552"/>
      <point x="206.5966850828729" y="96.02762430939227"/>
      <point x="191.14364640883977" y="149.7513812154696" type="curve"/>
    </contour>
  </outline>
</glyph>
<glyph name="u" format="2">
  <advance width="1043.6574585635358"/>
  <unicode hex="0075"/>
  <anchor x="557.060773480663" y="0.0" name="bottom"/>
  <anchor x="892.0220994475138" y="20.0" name="ogonek"/>
  <anchor x="518.6961325966851" y="1110.5635359116022" name="top"/>
  <anchor x="917.7458563535911" y="1038.7403314917128" name="topright"/>
  <outline>
    <contour>
      <point x="838.8342541436464" y="-16.845303867403313" type="curve" smooth="yes"/>
      <point x="914.3591160220994" y="-16.845303867403313"/>
      <point x="972.2209944751381" y="0.0"/>
      <point x="1016.4751381215469" y="12.87292817679558" type="curve"/>
      <point x="1016.4751381215469" y="47.84530386740332" type="line"/>
      <point x="918.0552486187845" y="52.9171270718232" type="line"/>
      <point x="918.0552486187845" y="996.3093922651933" type="line"/>
      <point x="889.939226519337" y="1017.0441988950276" type="line"/>
      <point x="852.6574585635359" y="1017.0441988950276" type="line"/>
      <point x="605.182320441989" y="947.5745856353591" type="line"/>
      <point x="605.182320441989" y="916.6298342541436" type="line"/>
      <point x="724.828729281768" y="878.2486187845304" type="line"/>
      <point x="724.828729281768" y="197.22651933701655" type="line"/>
      <point x="666.5635359116022" y="142.77900552486187"/>
      <point x="570.8508287292817" y="91.35911602209944"/>
      <point x="460.09392265193367" y="91.35911602209944" type="curve" smooth="yes"/>
      <point x="346.02762430939225" y="91.35911602209944"/>
      <point x="316.46408839779" y="181.17127071823205"/>
      <point x="316.46408839779" y="333.1270718232044" type="curve" smooth="yes"/>
      <point x="316.46408839779" y="996.3093922651933" type="line"/>
      <point x="289.75690607734805" y="1017.0441988950276" type="line"/>
      <point x="251.88397790055248" y="1017.0441988950276" type="line"/>
      <point x="6.408839779005522" y="947.5745856353591" type="line"/>
      <point x="6.408839779005522" y="916.6298342541436" type="line"/>
      <point x="122.67403314917127" y="878.2486187845304" type="line"/>
      <point x="123.39226519337016" y="331.0718232044199" type="line" smooth="yes"/>
      <point x="123.39226519337016" y="104.23756906077348"/>
      <point x="190.97237569060775" y="-20.0"/>
      <point x="397.4640883977901" y="-20.0" type="curve" smooth="yes"/>
      <point x="561.756906077348" y="-20.0"/>
      <point x="667.110497237569" y="76.11049723756906"/>
      <point x="729.2099447513812" y="163.353591160221" type="curve"/>
      <point x="729.2099447513812" y="67.40883977900552" type="line" smooth="yes"/>
      <point x="729.2099447513812" y="2.364640883977904"/>
      <point x="771.6906077348066" y="-16.845303867403313"/>
    </contour>
  </outline>
</glyph>
<glyph name="v" format="2">
  <advance width="933.3867403314918"/>
  <unicode hex="0076"/>
  <outline>
    <contour>
      <point x="-25.42541436464088" y="969.1546961325967" type="line"/>
      <point x="59.82872928176796" y="936.8011049723757" type="line"/>
      <point x="369.4475138121547" y="0.0" type="line"/>
      <point x="556.5193370165746" y="0.0" type="line"/>
      <point x="885.9226519337017" y="936.8011049723757" type="line"/>
      <point x="976.0939226519337" y="969.1546961325967" type="line"/>
      <point x="976.0939226519337" y="1005.0" type="line"/>
      <point x="668.9337016574585" y="1005.0" type="line"/>
      <point x="668.9337016574585" y="968.8729281767955" type="line"/>
      <point x="780.1049723756906" y="936.8011049723757" type="line"/>
      <point x="570.9723756906077" y="224.8563535911602" type="line"/>
      <point x="531.0828729281768" y="73.31491712707182" type="line"/>
      <point x="488.03867403314916" y="229.77348066298342" type="line"/>
      <point x="275.707182320442" y="936.8011049723757" type="line"/>
      <point x="387.88950276243094" y="969.1546961325967" type="line"/>
      <point x="387.88950276243094" y="1005.0" type="line"/>
      <point x="-25.42541436464088" y="1005.0" type="line"/>
    </contour>
  </outline>
</glyph>
<glyph name="w" format="2">
  <advance width="1488.6795580110497"/>
  <unicode hex="0077"/>
  <anchor x="740.6906077348066" y="0.0" name="bottom"/>
  <anchor x="762.3259668508288" y="1110.2817679558011" name="top"/>
  <outline>
    <contour>
      <point x="-40.314917127071816" y="969.1546961325967" type="line"/>
      <point x="40.24861878453039" y="936.8011049723757" type="line"/>
      <point x="328.10497237569064" y="0.0" type="line"/>
      <point x="499.56906077348066" y="0.0" type="line"/>
      <point x="677.7624309392265" y="635.5469613259669" type="line"/>
      <point x="730.2541436464088" y="878.2596685082873" type="line"/>
      <point x="787.6187845303867" y="635.8287292817679" type="line"/>
      <point x="964.8397790055249" y="0.0" type="line"/>
      <point x="1142.220994475138" y="0.0" type="line"/>
      <point x="1438.9944751381215" y="936.8011049723757" type="line"/>
      <point x="1536.8839779005525" y="969.1546961325967" type="line"/>
      <point x="1536.8839779005525" y="1005.0" type="line"/>
      <point x="1232.8232044198894" y="1005.0" type="line"/>
      <point x="1232.8232044198894" y="969.4364640883978" type="line"/>
      <point x="1340.4309392265193" y="936.8011049723757" type="line"/>
      <point x="1157.0828729281768" y="252.32044198895025" type="line"/>
      <point x="1124.756906077348" y="76.79558011049723" type="line"/>
      <point x="1091.403314917127" y="229.33701657458562" type="line"/>
      <point x="896.9447513812155" y="1005.0" type="line"/>
      <point x="696.9447513812155" y="1005.0" type="line"/>
      <point x="510.20441988950273" y="252.03867403314914" type="line"/>
      <point x="479.0055248618784" y="76.79558011049724" type="line"/>
      <point x="446.49723756906076" y="229.33701657458562" type="line"/>
      <point x="261.0662983425414" y="936.8011049723757" type="line"/>
      <point x="356.0662983425414" y="969.4364640883978" type="line"/>
      <point x="356.0662983425414" y="1005.0" type="line"/>
      <point x="-40.314917127071816" y="1005.0" type="line"/>
    </contour>
  </outline>
</glyph>
<glyph name="y" format="2">
  <advance width="934.8232044198895"/>
  <unicode hex="0079"/>
  <anchor x="781.3204419889503" y="0.0" name="bottom"/>
  <anchor x="486.6685082872928" y="1110.2817679558011" name="top"/>
  <outline>
    <contour>
      <point x="178.64088397790056" y="-498.11049723756906" type="curve" smooth="yes"/>
      <point x="330.23756906077347" y="-498.11049723756906"/>
      <point x="428.20994475138116" y="-361.292817679558"/>
      <point x="555.8563535911602" y="-33.61878453038674" type="curve"/>
      <point x="585.5027624309392" y="40.01104972375691"/>
      <point x="753.9668508287293" y="560.2375690607735"/>
      <point x="890.1767955801105" y="936.8011049723757" type="curve"/>
      <point x="982.5027624309392" y="969.1546961325967" type="line"/>
      <point x="982.5027624309392" y="1005.0" type="line"/>
      <point x="689.707182320442" y="1005.0" type="line"/>
      <point x="689.707182320442" y="968.8729281767955" type="line"/>
      <point x="791.5414364640884" y="936.8011049723757" type="line"/>
      <point x="583.182320441989" y="224.13812154696132" type="line"/>
      <point x="543.292817679558" y="72.59668508287292" type="line"/>
      <point x="500.96685082872926" y="231.2099447513812" type="line"/>
      <point x="274.3259668508287" y="936.8011049723757" type="line"/>
      <point x="372.14364640883974" y="968.4364640883978" type="line"/>
      <point x="372.14364640883974" y="1005.0" type="line"/>
      <point x="-30.707182320441987" y="1005.2817679558011" type="line"/>
      <point x="-30.707182320441987" y="969.4364640883978" type="line"/>
      <point x="57.41988950276243" y="937.0828729281768" type="line"/>
      <point x="384.2486187845304" y="0.0" type="line"/>
      <point x="499.5303867403315" y="0.0" type="line"/>
      <point x="453.76795580110496" y="-139.3977900552486"/>
      <point x="321.1491712707182" y="-348.7900552486188"/>
      <point x="172.4309392265193" y="-348.7900552486188" type="curve" smooth="yes"/>
      <point x="140.17679558011048" y="-348.7900552486188"/>
      <point x="104.61325966850828" y="-343.9447513812155"/>
      <point x="85.79558011049721" y="-335.9447513812155" type="curve"/>
      <point x="85.79558011049721" y="-483.2651933701658" type="line"/>
      <point x="102.07734806629834" y="-492.11049723756906"/>
      <point x="134.48618784530385" y="-498.11049723756906"/>
    </contour>
  </outline>
</glyph>
<glyph name="z" format="2">
  <advance width="927.9779005524862"/>
  <unicode hex="007A"/>
  <anchor x="467.8066298342541" y="0.0" name="bottom"/>
  <anchor x="478.42541436464086" y="1110.2817679558011" name="top"/>
  <outline>
    <contour>
      <point x="682.0773480662983" y="956.9005524861878" type="line"/>
      <point x="564.9834254143647" y="825.4419889502763" type="line"/>
      <point x="37.983425414364646" y="54.0" type="line"/>
      <point x="73.20994475138122" y="0.0" type="line"/>
      <point x="846.3038674033149" y="0.0" type="line"/>
      <point x="886.2486187845303" y="330.4696132596685" type="line"/>
      <point x="793.4530386740331" y="346.69613259668506" type="line"/>
      <point x="687.8729281767955" y="74.09944751381215" type="line"/>
      <point x="241.0441988950276" y="48.25414364640884" type="line"/>
      <point x="377.8563535911602" y="208.78453038674033" type="line"/>
      <point x="884.8839779005525" y="950.1546961325967" type="line"/>
      <point x="851.6574585635359" y="1005.0" type="line"/>
      <point x="97.51933701657458" y="1004.1546961325967" type="line"/>
      <point x="92.7292817679558" y="685.4751381215469" type="line"/>
      <point x="187.5966850828729" y="686.3204419889503" type="line"/>
      <point x="246.04972375690608" y="933.7458563535912" type="line"/>
    </contour>
  </outline>
</glyph>
<glyph name="braceleft" format="2">
  <advance width="911.9502762430939"/>
  <unicode hex="007B"/>
  <outline>
    <contour>
      <point x="571.7624309392265" y="-274.81767955801104" type="curve" smooth="yes"/>
      <point x="649.5966850828729" y="-274.81767955801104"/>
      <point x="726.0773480662983" y="-258.8453038674033"/>
      <point x="792.7127071823204" y="-238.0" type="curve"/>
      <point x="792.7127071823204" y="-193.84530386740332" type="line"/>
      <point x="771.1049723756906" y="-197.0"/>
      <point x="702.3204419889503" y="-200.15469613259668"/>
      <point x="678.4033149171271" y="-200.15469613259668" type="curve" smooth="yes"/>
      <point x="570.9116022099447" y="-200.15469613259668"/>
      <point x="453.5359116022099" y="-164.3646408839779"/>
      <point x="453.5359116022099" y="-2.171270718232039" type="curve" smooth="yes"/>
      <point x="453.5359116022099" y="122.47513812154696"/>
      <point x="512.6629834254144" y="302.7292817679558"/>
      <point x="512.6629834254144" y="443.62983425414365" type="curve" smooth="yes"/>
      <point x="512.6629834254144" y="580.3259668508288"/>
      <point x="399.3314917127072" y="652.8729281767955"/>
      <point x="248.21546961325967" y="672.0" type="curve"/>
      <point x="399.3314917127072" y="692.8453038674033"/>
      <point x="512.6629834254144" y="752.8011049723757"/>
      <point x="512.6629834254144" y="892.3701657458563" type="curve" smooth="yes"/>
      <point x="512.6629834254144" y="1033.8342541436464"/>
      <point x="453.5359116022099" y="1216.9337016574586"/>
      <point x="453.5359116022099" y="1341.2983425414366" type="curve" smooth="yes"/>
      <point x="453.5359116022099" y="1500.0552486187846"/>
      <point x="570.3756906077348" y="1537.8453038674033"/>
      <point x="676.4309392265193" y="1537.8453038674033" type="curve" smooth="yes"/>
      <point x="698.0386740331492" y="1537.8453038674033"/>
      <point x="771.1049723756906" y="1536.1270718232045"/>
      <point x="792.7127071823204" y="1532.9723756906078" type="curve"/>
      <point x="792.7127071823204" y="1576.0" type="line"/>
      <point x="717.5138121546961" y="1597.6906077348067"/>
      <point x="660.7790055248619" y="1611.3812154696132"/>
      <point x="580.0718232044198" y="1611.3812154696132" type="curve" smooth="yes"/>
      <point x="374.4475138121547" y="1611.3812154696132"/>
      <point x="267.78453038674036" y="1521.1546961325967"/>
      <point x="267.78453038674036" y="1357.46408839779" type="curve" smooth="yes"/>
      <point x="267.78453038674036" y="1172.3093922651933"/>
      <point x="370.5193370165746" y="1030.1381215469614"/>
      <point x="370.5193370165746" y="881.5193370165746" type="curve" smooth="yes"/>
      <point x="370.5193370165746" y="765.6906077348066"/>
      <point x="302.0" y="705.4364640883978"/>
      <point x="87.70718232044199" y="706.8729281767955" type="curve"/>
      <point x="87.70718232044199" y="647.6906077348067" type="line"/>
      <point x="302.0" y="649.1270718232045"/>
      <point x="370.5193370165746" y="575.182320441989"/>
      <point x="370.5193370165746" y="455.9171270718232" type="curve" smooth="yes"/>
      <point x="370.5193370165746" y="307.58011049723757"/>
      <point x="267.78453038674036" y="165.12707182320443"/>
      <point x="267.78453038674036" y="-21.182320441988953" type="curve" smooth="yes"/>
      <point x="267.78453038674036" y="-183.15469613259668"/>
      <point x="376.1933701657459" y="-274.81767955801104"/>
    </contour>
  </outline>
</glyph>
<glyph name="exclamdown" format="2">
  <advance width="406.939226519337"/>
  <unicode hex="00A1"/>
  <outline>
    <contour>
      <point x="95.19337016574586" y="-469.7900552486188" type="line"/>
      <point x="311.74585635359114" y="-469.7900552486188" type="line"/>
      <point x="230.87845303867402" y="887.232044198895" type="line"/>
      <point x="170.0331491712707" y="887.232044198895" type="line"/>
    </contour>
    <contour>
      <point x="213.00552486187843" y="1293.8729281767955" type="curve" smooth="yes"/>
      <point x="143.94475138121547" y="1293.8729281767955"/>
      <point x="87.18232044198896" y="1245.364640883978"/>
      <point x="87.18232044198896" y="1170.5303867403316" type="curve" smooth="yes"/>
      <point x="87.18232044198896" y="1114.7955801104972"/>
      <point x="121.35359116022099" y="1062.342541436464"/>
      <point x="193.6243093922652" y="1062.342541436464" type="curve" smooth="yes"/>
      <point x="260.585635359116" y="1062.342541436464"/>
      <point x="319.47513812154693" y="1114.2596685082874"/>
      <point x="319.47513812154693" y="1185.6850828729282" type="curve" smooth="yes"/>
      <point x="319.47513812154693" y="1250.2651933701657"/>
      <point x="270.7403314917127" y="1293.8729281767955"/>
    </contour>
  </outline>
</glyph>
<glyph name="cent" format="2">
  <advance width="1056.9558011049724"/>
  <unicode hex="00A2"/>
  <outline>
    <contour>
      <point x="145.939226519337" y="491.5911602209945" type="curve" smooth="yes"/>
      <point x="145.939226519337" y="206.40883977900552"/>
      <point x="285.121546961326" y="8.12707182320442"/>
      <point x="533.8839779005525" y="-18.718232044198896" type="curve"/>
      <point x="511.75690607734805" y="-252.0" type="line"/>
      <point x="594.6022099447514" y="-252.0" type="line"/>
      <point x="616.4475138121547" y="-21.0" type="line"/>
      <point x="743.4364640883978" y="-14.43646408839779"/>
      <point x="872.6795580110497" y="45.58011049723756"/>
      <point x="931.0165745856353" y="106.45303867403315" type="curve"/>
      <point x="908.889502762431" y="148.08839779005524" type="line"/>
      <point x="855.171270718232" y="106.52486187845304"/>
      <point x="750.3977900552486" y="67.00552486187844"/>
      <point x="656.7403314917127" y="67.00552486187844" type="curve" smooth="yes"/>
      <point x="472.82872928176795" y="67.00552486187844"/>
      <point x="366.2651933701657" y="233.59116022099448"/>
      <point x="366.2651933701657" y="525.4530386740331" type="curve" smooth="yes"/>
      <point x="366.2651933701657" y="830.4972375690608"/>
      <point x="493.8066298342541" y="985.6187845303867"/>
      <point x="629.0" y="985.6187845303867" type="curve" smooth="yes"/>
      <point x="739.2044198895028" y="985.6187845303867"/>
      <point x="769.5138121546961" y="930.7458563535912"/>
      <point x="776.8950276243094" y="896.939226519337" type="curve" smooth="yes"/>
      <point x="817.4585635359116" y="708.1933701657458" type="line"/>
      <point x="922.1988950276243" y="708.1933701657458" type="line"/>
      <point x="930.6077348066299" y="976.7458563535912" type="line"/>
      <point x="890.4364640883978" y="984.4640883977901"/>
      <point x="805.1988950276243" y="1028.4088397790056"/>
      <point x="694.011049723757" y="1038.1270718232045" type="curve"/>
      <point x="719.292817679558" y="1304.0" type="line"/>
      <point x="640.1657458563536" y="1304.0" type="line"/>
      <point x="616.0386740331492" y="1038.8453038674033" type="line"/>
      <point x="337.6574585635359" y="1019.9723756906077"/>
      <point x="145.939226519337" y="790.1436464088398"/>
    </contour>
  </outline>
</glyph>
<glyph name="sterling" format="2">
  <advance width="1416.4309392265193"/>
  <unicode hex="00A3"/>
  <outline>
    <contour>
      <point x="905.2983425414365" y="-14.0" type="curve" smooth="yes"/>
      <point x="1141.1878453038673" y="-14.0"/>
      <point x="1313.2651933701657" y="149.39226519337018"/>
      <point x="1313.2651933701657" y="348.76243093922653" type="curve" smooth="yes"/>
      <point x="1313.2651933701657" y="422.7348066298342"/>
      <point x="1289.292817679558" y="479.7348066298342"/>
      <point x="1267.3480662983425" y="506.42541436464086" type="curve"/>
      <point x="1054.8563535911603" y="506.42541436464086" type="line"/>
      <point x="1085.5193370165746" y="467.04419889502765"/>
      <point x="1103.745856353591" y="375.42541436464086"/>
      <point x="1103.745856353591" y="299.96132596685084" type="curve" smooth="yes"/>
      <point x="1103.745856353591" y="133.6353591160221"/>
      <point x="1043.0552486187846" y="56.92817679558011"/>
      <point x="904.1546961325967" y="56.92817679558011" type="curve" smooth="yes"/>
      <point x="741.7182320441989" y="56.92817679558011"/>
      <point x="603.4585635359116" y="141.51933701657458"/>
      <point x="440.20441988950273" y="170.88950276243094" type="curve"/>
      <point x="496.11049723756906" y="235.00552486187843"/>
      <point x="555.4751381215469" y="363.3425414364641"/>
      <point x="555.4751381215469" y="571.6132596685082" type="curve" smooth="yes"/>
      <point x="555.4751381215469" y="776.0276243093923" type="line"/>
      <point x="854.6850828729282" y="776.0276243093923" type="line"/>
      <point x="854.6850828729282" y="846.8453038674033" type="line"/>
      <point x="555.4751381215469" y="846.8453038674033" type="line"/>
      <point x="555.4751381215469" y="1071.220994475138" type="line" smooth="yes"/>
      <point x="555.4751381215469" y="1374.2375690607735"/>
      <point x="668.243093922652" y="1450.5911602209944"/>
      <point x="780.060773480663" y="1450.5911602209944" type="curve" smooth="yes"/>
      <point x="887.7790055248619" y="1450.5911602209944"/>
      <point x="980.585635359116" y="1365.9392265193371"/>
      <point x="1027.3756906077347" y="1276.6795580110497" type="curve"/>
      <point x="1150.1381215469612" y="1399.828729281768" type="line"/>
      <point x="1082.3314917127072" y="1456.8453038674033"/>
      <point x="967.3701657458563" y="1502.8453038674033"/>
      <point x="833.6353591160221" y="1502.8453038674033" type="curve" smooth="yes"/>
      <point x="562.8011049723757" y="1502.8453038674033"/>
      <point x="341.0662983425414" y="1304.0"/>
      <point x="341.0662983425414" y="998.2817679558011" type="curve" smooth="yes"/>
      <point x="341.0662983425414" y="846.8453038674033" type="line"/>
      <point x="146.85635359116023" y="846.8453038674033" type="line"/>
      <point x="146.85635359116023" y="776.0276243093923" type="line"/>
      <point x="341.0662983425414" y="776.0276243093923" type="line"/>
      <point x="341.0662983425414" y="473.2817679558011" type="line" smooth="yes"/>
      <point x="341.0662983425414" y="365.060773480663"/>
      <point x="327.1657458563536" y="234.32596685082873"/>
      <point x="310.57458563535914" y="188.90607734806628" type="curve"/>
      <point x="189.94475138121547" y="188.24309392265192"/>
      <point x="83.23756906077348" y="136.24309392265192"/>
      <point x="83.23756906077348" y="71.6353591160221" type="curve" smooth="yes"/>
      <point x="83.23756906077348" y="29.69060773480663"/>
      <point x="125.23756906077348" y="0.0"/>
      <point x="184.46408839779005" y="0.0" type="curve" smooth="yes"/>
      <point x="261.56353591160223" y="0.0"/>
      <point x="321.74585635359114" y="42.26519337016575"/>
      <point x="381.04419889502765" y="109.49171270718232" type="curve"/>
      <point x="535.756906077348" y="108.05524861878453"/>
      <point x="689.0110497237569" y="-14.0"/>
    </contour>
  </outline>
</glyph>
<glyph name="ordfeminine" format="2">
  <advance width="1035.585635359116"/>
  <unicode hex="00AA"/>
  <outline>
    <contour>
      <point x="394.0828729281768" y="690.756906077348" type="curve" smooth="yes"/>
      <point x="536.0828729281768" y="690.756906077348"/>
      <point x="641.2375690607735" y="763.9668508287293"/>
      <point x="699.5469613259669" y="834.0828729281768" type="curve"/>
      <point x="699.5469613259669" y="768.3370165745856" type="line" smooth="yes"/>
      <point x="699.5469613259669" y="708.0276243093923"/>
      <point x="738.9281767955802" y="692.756906077348"/>
      <point x="811.2983425414365" y="692.756906077348" type="curve" smooth="yes"/>
      <point x="872.9337016574585" y="692.756906077348"/>
      <point x="948.767955801105" y="706.756906077348"/>
      <point x="988.767955801105" y="716.756906077348" type="curve"/>
      <point x="988.767955801105" y="802.5359116022099" type="line"/>
      <point x="876.767955801105" y="802.5359116022099" type="line"/>
      <point x="876.767955801105" y="1288.9281767955802" type="line" smooth="yes"/>
      <point x="876.767955801105" y="1530.9281767955802"/>
      <point x="751.353591160221" y="1612.9281767955802"/>
      <point x="523.353591160221" y="1612.9281767955802" type="curve" smooth="yes"/>
      <point x="385.54696132596683" y="1612.9281767955802"/>
      <point x="212.95580110497238" y="1550.9281767955802"/>
      <point x="136.95580110497238" y="1502.9281767955802" type="curve"/>
      <point x="187.77348066298342" y="1405.403314917127" type="line"/>
      <point x="255.77348066298342" y="1439.403314917127"/>
      <point x="376.81767955801104" y="1483.403314917127"/>
      <point x="488.81767955801104" y="1483.403314917127" type="curve" smooth="yes"/>
      <point x="641.8011049723757" y="1483.403314917127"/>
      <point x="691.5469613259669" y="1433.1767955801106"/>
      <point x="691.5469613259669" y="1268.9281767955802" type="curve" smooth="yes"/>
      <point x="691.5469613259669" y="1235.5745856353592" type="line"/>
      <point x="311.0662983425414" y="1224.7292817679559"/>
      <point x="117.54696132596686" y="1135.5745856353592"/>
      <point x="117.54696132596686" y="939.5745856353591" type="curve" smooth="yes"/>
      <point x="117.54696132596686" y="785.4033149171271"/>
      <point x="244.53591160220995" y="690.756906077348"/>
    </contour>
    <contour>
      <point x="471.6077348066298" y="803.8011049723757" type="curve" smooth="yes"/>
      <point x="373.1325966850829" y="803.8011049723757"/>
      <point x="315.0773480662983" y="863.5745856353591"/>
      <point x="315.0773480662983" y="951.5745856353591" type="curve" smooth="yes"/>
      <point x="315.0773480662983" y="1083.5745856353592"/>
      <point x="422.5414364640884" y="1145.2651933701657"/>
      <point x="691.5469613259669" y="1151.5745856353592" type="curve"/>
      <point x="691.5469613259669" y="908.0828729281768" type="line"/>
      <point x="661.5469613259669" y="874.0828729281768"/>
      <point x="564.4530386740331" y="803.8011049723757"/>
    </contour>
  </outline>
</glyph>
<glyph name="guillemetleft" format="2">
  <advance width="1091.3370165745855"/>
  <unicode hex="00AB"/>
  <outline>
    <contour>
      <point x="490.5138121546961" y="943.232044198895" type="line"/>
      <point x="78.87292817679557" y="548.0994475138122" type="line"/>
      <point x="78.87292817679557" y="494.1270718232044" type="line"/>
      <point x="490.5138121546961" y="108.71270718232044" type="line"/>
      <point x="531.2044198895028" y="137.1767955801105" type="line"/>
      <point x="269.0662983425414" y="522.4088397790056" type="line"/>
      <point x="531.2044198895028" y="919.2044198895028" type="line"/>
    </contour>
    <contour>
      <point x="949.2651933701657" y="943.232044198895" type="line"/>
      <point x="514.7790055248619" y="548.0994475138122" type="line"/>
      <point x="514.7790055248619" y="494.1270718232044" type="line"/>
      <point x="949.2651933701657" y="108.71270718232044" type="line"/>
      <point x="990.5193370165746" y="137.1767955801105" type="line"/>
      <point x="704.9723756906077" y="522.4088397790056" type="line"/>
      <point x="990.5193370165746" y="919.2044198895028" type="line"/>
    </contour>
  </outline>
</glyph>
<glyph name="micro" format="2">
  <advance width="1044.7845303867402"/>
  <unicode hex="00B5"/>
  <outline>
    <contour>
      <point x="123.39226519337018" y="-363.43646408839777" type="line"/>
      <point x="293.02762430939225" y="-363.43646408839777" type="line"/>
      <point x="293.02762430939225" y="73.13812154696133" type="line"/>
      <point x="331.15469613259665" y="23.82872928176796"/>
      <point x="396.11049723756906" y="-19.43646408839779"/>
      <point x="510.28729281767954" y="-19.43646408839779" type="curve" smooth="yes"/>
      <point x="599.6519337016574" y="-19.43646408839779"/>
      <point x="684.353591160221" y="45.43646408839779"/>
      <point x="729.2099447513813" y="151.2375690607735" type="curve"/>
      <point x="729.2099447513813" y="67.40883977900552" type="line" smooth="yes"/>
      <point x="729.2099447513813" y="38.928176795580114"/>
      <point x="732.0276243093923" y="-17.127071823204417"/>
      <point x="846.1160220994475" y="-17.127071823204417" type="curve" smooth="yes"/>
      <point x="909.9502762430939" y="-17.127071823204417"/>
      <point x="981.5193370165746" y="1.690607734806628"/>
      <point x="1017.6022099447514" y="12.87292817679558" type="curve"/>
      <point x="1017.6022099447514" y="47.28176795580111" type="line"/>
      <point x="918.0552486187845" y="52.91712707182321" type="line"/>
      <point x="918.0552486187845" y="996.3093922651933" type="line"/>
      <point x="892.0939226519337" y="1017.0441988950276" type="line"/>
      <point x="854.9668508287293" y="1017.0441988950276" type="line"/>
      <point x="605.182320441989" y="947.5745856353592" type="line"/>
      <point x="605.182320441989" y="916.6298342541436" type="line"/>
      <point x="724.828729281768" y="878.2486187845304" type="line"/>
      <point x="724.828729281768" y="197.22651933701655" type="line"/>
      <point x="662.6629834254144" y="119.13259668508287"/>
      <point x="583.0055248618785" y="98.54143646408839"/>
      <point x="516.0055248618785" y="98.54143646408839" type="curve" smooth="yes"/>
      <point x="335.3425414364641" y="98.54143646408839"/>
      <point x="316.46408839779" y="246.13812154696134"/>
      <point x="316.46408839779" y="325.94475138121544" type="curve" smooth="yes"/>
      <point x="316.46408839779" y="996.3093922651933" type="line"/>
      <point x="290.1933701657458" y="1017.0441988950276" type="line"/>
      <point x="250.44751381215468" y="1017.0441988950276" type="line"/>
      <point x="6.408839779005525" y="947.5745856353591" type="line"/>
      <point x="6.408839779005525" y="916.6298342541437" type="line"/>
      <point x="122.67403314917128" y="878.2486187845304" type="line"/>
    </contour>
  </outline>
</glyph>
<glyph name="guillemetright" format="2">
  <advance width="1091.3370165745855"/>
  <unicode hex="00BB"/>
  <outline>
    <contour>
      <point x="600.8232044198895" y="943.232044198895" type="line"/>
      <point x="560.132596685083" y="919.2044198895028" type="line"/>
      <point x="822.2707182320441" y="522.4088397790056" type="line"/>
      <point x="560.132596685083" y="137.1767955801105" type="line"/>
      <point x="600.8232044198895" y="108.71270718232044" type="line"/>
      <point x="1012.46408839779" y="494.1270718232044" type="line"/>
      <point x="1012.46408839779" y="548.0994475138122" type="line"/>
    </contour>
    <contour>
      <point x="142.0718232044199" y="943.232044198895" type="line"/>
      <point x="100.81767955801104" y="919.2044198895028" type="line"/>
      <point x="386.3646408839779" y="522.4088397790056" type="line"/>
      <point x="100.81767955801104" y="137.1767955801105" type="line"/>
      <point x="142.0718232044199" y="108.71270718232044" type="line"/>
      <point x="576.5580110497237" y="494.1270718232044" type="line"/>
      <point x="576.5580110497237" y="548.0994475138122" type="line"/>
    </contour>
  </outline>
</glyph>
<glyph name="questiondown" format="2">
  <advance width="813.7458563535911"/>
  <unicode hex="00BF"/>
  <outline>
    <contour>
      <point x="541.5524861878453" y="1089.3591160220994" type="curve"/>
      <point x="476.24309392265195" y="1089.3591160220994" type="line"/>
      <point x="487.21546961325964" y="986.9944751381215"/>
      <point x="495.6243093922652" y="892.9779005524862"/>
      <point x="495.6243093922652" y="815.9779005524862" type="curve" smooth="yes"/>
      <point x="495.6243093922652" y="792.9060773480663"/>
      <point x="493.6519337016574" y="758.4696132596686"/>
      <point x="487.9889502762431" y="739.9337016574585" type="curve"/>
      <point x="407.6685082872928" y="570.5911602209944"/>
      <point x="52.983425414364646" y="511.47513812154693"/>
      <point x="52.983425414364646" y="150.81767955801104" type="curve" smooth="yes"/>
      <point x="52.983425414364646" y="-108.56353591160222"/>
      <point x="233.40883977900552" y="-296.0"/>
      <point x="573.1988950276243" y="-296.0" type="curve" smooth="yes"/>
      <point x="669.7955801104972" y="-296.0"/>
      <point x="770.2762430939226" y="-273.2099447513812"/>
      <point x="810.5303867403314" y="-248.3646408839779" type="curve"/>
      <point x="790.6850828729282" y="-183.85635359116023" type="line"/>
      <point x="753.2486187845303" y="-201.5745856353591"/>
      <point x="680.4033149171271" y="-211.26519337016575"/>
      <point x="620.4585635359116" y="-211.26519337016575" type="curve" smooth="yes"/>
      <point x="374.3922651933701" y="-211.26519337016575"/>
      <point x="216.66298342541435" y="-33.165745856353595"/>
      <point x="216.66298342541435" y="213.24309392265192" type="curve" smooth="yes"/>
      <point x="216.66298342541435" y="265.1325966850829"/>
      <point x="222.60773480662982" y="321.3038674033149"/>
      <point x="236.6795580110497" y="374.2486187845304" type="curve"/>
      <point x="386.0773480662983" y="550.9281767955802"/>
      <point x="608.6685082872929" y="591.4088397790056"/>
      <point x="608.6685082872929" y="780.1325966850828" type="curve"/>
      <point x="605.7955801104972" y="857.1767955801105"/>
      <point x="570.8342541436464" y="995.1657458563536"/>
    </contour>
    <contour>
      <point x="537.2983425414365" y="1496.0" type="curve" smooth="yes"/>
      <point x="468.23756906077347" y="1496.0"/>
      <point x="411.475138121547" y="1447.4917127071824"/>
      <point x="411.475138121547" y="1372.657458563536" type="curve" smooth="yes"/>
      <point x="411.475138121547" y="1316.9226519337017"/>
      <point x="445.646408839779" y="1264.4696132596684"/>
      <point x="517.9171270718232" y="1264.4696132596684" type="curve" smooth="yes"/>
      <point x="584.878453038674" y="1264.4696132596684"/>
      <point x="643.7679558011049" y="1316.3867403314916"/>
      <point x="643.7679558011049" y="1387.8121546961327" type="curve" smooth="yes"/>
      <point x="643.7679558011049" y="1452.3922651933701"/>
      <point x="595.0331491712707" y="1496.0"/>
    </contour>
  </outline>
</glyph>
<glyph name="AE" format="2">
  <advance width="1771.5082872928176"/>
  <unicode hex="00C6"/>
  <anchor x="864.0386740331492" y="0.0" name="bottom"/>
  <anchor x="998.1270718232045" y="1486.0" name="top"/>
  <outline>
    <contour>
      <point x="748.7955801104972" y="70.38121546961327" type="line"/>
      <point x="608.6132596685084" y="36.56353591160221" type="line"/>
      <point x="608.6132596685084" y="0.0" type="line"/>
      <point x="1679.9613259668508" y="0.0" type="line"/>
      <point x="1746.4696132596684" y="355.03314917127074" type="line"/>
      <point x="1652.8563535911603" y="381.5966850828729" type="line"/>
      <point x="1524.8397790055249" y="80.11602209944752" type="line"/>
      <point x="968.9116022099447" y="51.81767955801105" type="line"/>
      <point x="968.9116022099447" y="735.2817679558011" type="line"/>
      <point x="1331.0276243093922" y="723.9723756906077" type="line"/>
      <point x="1377.171270718232" y="530.7292817679559" type="line"/>
      <point x="1427.5082872928176" y="530.7292817679559" type="line"/>
      <point x="1427.5082872928176" y="989.6353591160221" type="line"/>
      <point x="1376.889502762431" y="989.6353591160221" type="line"/>
      <point x="1331.3093922651933" y="804.0552486187845" type="line"/>
      <point x="968.9116022099447" y="791.5911602209944" type="line"/>
      <point x="968.9116022099447" y="1432.0276243093922" type="line"/>
      <point x="1458.46408839779" y="1415.8011049723757" type="line"/>
      <point x="1556.3259668508288" y="1169.7403314917128" type="line"/>
      <point x="1640.3591160220994" y="1169.7403314917128" type="line"/>
      <point x="1610.7955801104972" y="1486.0" type="line"/>
      <point x="370.0497237569061" y="1486.0" type="line"/>
      <point x="370.0497237569061" y="1450.0" type="line"/>
      <point x="573.8287292817679" y="1399.8839779005525" type="line"/>
      <point x="-0.5193370165745819" y="78.28729281767956" type="line"/>
      <point x="-124.50828729281768" y="36.56353591160221" type="line"/>
      <point x="-124.50828729281768" y="0.0" type="line"/>
      <point x="271.70165745856355" y="0.0" type="line"/>
      <point x="270.98342541436466" y="36.56353591160221" type="line"/>
      <point x="112.64640883977899" y="78.31491712707182" type="line"/>
      <point x="272.62983425414365" y="480.9668508287293" type="line"/>
      <point x="748.7955801104972" y="480.9668508287293" type="line"/>
    </contour>
    <contour>
      <point x="749.5138121546961" y="549.2762430939226" type="line"/>
      <point x="300.91160220994476" y="549.2762430939226" type="line"/>
      <point x="551.3093922651933" y="1150.0607734806629" type="line"/>
      <point x="659.4640883977901" y="1427.8011049723757" type="line"/>
      <point x="749.5138121546961" y="1427.8011049723757" type="line"/>
    </contour>
  </outline>
</glyph>
<glyph name="Eth" format="2">
  <advance width="1375.2596685082872"/>
  <unicode hex="00D0"/>
  <anchor x="704.817679558011" y="0.0" name="bottom"/>
  <anchor x="712.110497237569" y="764.0" name="center"/>
  <anchor x="269.3314917127072" y="763.0" name="lstem"/>
  <anchor x="704.817679558011" y="1486.0" name="top"/>
  <outline>
    <contour>
      <point x="652.6298342541436" y="802.0" type="line"/>
      <point x="35.59116022099448" y="802.0" type="line"/>
      <point x="35.59116022099448" y="732.0" type="line"/>
      <point x="652.6298342541436" y="732.0" type="line"/>
    </contour>
    <component base="D"/>
  </outline>
</glyph>
<glyph name="Thorn" format="2">
  <advance width="1122.8121546961327"/>
  <unicode hex="00DE"/>
  <outline>
    <contour>
      <point x="158.46408839779005" y="68.69060773480663" type="line"/>
      <point x="30.928176795580114" y="37.0" type="line"/>
      <point x="30.928176795580114" y="0.0" type="line"/>
      <point x="517.9613259668508" y="0.0" type="line"/>
      <point x="517.9613259668508" y="37.2817679558011" type="line"/>
      <point x="377.29834254143645" y="68.12707182320442" type="line"/>
      <point x="377.29834254143645" y="330.17127071823205" type="line"/>
      <point x="411.1988950276243" y="322.58011049723757"/>
      <point x="507.6574585635359" y="316.42541436464086"/>
      <point x="576.9613259668508" y="316.42541436464086" type="curve" smooth="yes"/>
      <point x="886.5303867403314" y="316.42541436464086"/>
      <point x="1070.0220994475137" y="500.6077348066298"/>
      <point x="1070.0220994475137" y="773.7458563535912" type="curve" smooth="yes"/>
      <point x="1070.0220994475137" y="1027.6629834254143"/>
      <point x="915.5138121546961" y="1177.7016574585634"/>
      <point x="606.9060773480662" y="1177.7016574585634" type="curve" smooth="yes"/>
      <point x="522.7845303867402" y="1177.7016574585634"/>
      <point x="423.35359116022096" y="1163.9834254143645"/>
      <point x="377.29834254143645" y="1162.8563535911603" type="curve"/>
      <point x="377.29834254143645" y="1417.745856353591" type="line"/>
      <point x="518.6795580110497" y="1450.0" type="line"/>
      <point x="518.6795580110497" y="1486.2817679558011" type="line"/>
      <point x="31.928176795580114" y="1486.2817679558011" type="line"/>
      <point x="31.928176795580114" y="1450.0" type="line"/>
      <point x="158.46408839779005" y="1417.745856353591" type="line"/>
    </contour>
    <contour>
      <point x="543.4475138121546" y="365.8066298342541" type="curve" smooth="yes"/>
      <point x="485.3922651933701" y="365.8066298342541"/>
      <point x="416.46408839779" y="377.42541436464086"/>
      <point x="377.29834254143645" y="389.8618784530387" type="curve"/>
      <point x="377.29834254143645" y="1095.6740331491712" type="line"/>
      <point x="420.50828729281767" y="1111.4475138121547"/>
      <point x="498.2209944751381" y="1123.475138121547"/>
      <point x="560.8397790055249" y="1123.475138121547" type="curve" smooth="yes"/>
      <point x="765.7513812154696" y="1123.475138121547"/>
      <point x="836.9613259668508" y="992.0662983425415"/>
      <point x="836.9613259668508" y="770.3646408839779" type="curve" smooth="yes"/>
      <point x="836.9613259668508" y="522.6795580110497"/>
      <point x="727.8232044198895" y="365.8066298342541"/>
    </contour>
  </outline>
</glyph>
<glyph name="germandbls" format="2">
  <advance width="1007.92817679558"/>
  <unicode hex="00DF"/>
  <outline>
    <contour>
      <point x="117.20994475138122" y="77.46408839779005" type="line"/>
      <point x="0.0" y="43.027624309392266" type="line"/>
      <point x="0.0" y="5.7458563535911615" type="line"/>
      <point x="309.1823204419889" y="5.7458563535911615" type="line"/>
      <point x="309.1823204419889" y="1023.3480662983426" type="line" smooth="yes"/>
      <point x="309.1823204419889" y="1306.254143646409"/>
      <point x="368.1823204419889" y="1493.8729281767955"/>
      <point x="555.4585635359116" y="1493.8729281767955" type="curve" smooth="yes"/>
      <point x="637.2044198895028" y="1493.8729281767955"/>
      <point x="711.889502762431" y="1418.0"/>
      <point x="711.889502762431" y="1279.8066298342542" type="curve" smooth="yes"/>
      <point x="711.889502762431" y="1000.7016574585635"/>
      <point x="510.96132596685084" y="912.8508287292817"/>
      <point x="510.96132596685084" y="792.5801104972376" type="curve" smooth="yes"/>
      <point x="510.96132596685084" y="614.1049723756906"/>
      <point x="794.6187845303867" y="550.3314917127071"/>
      <point x="794.6187845303867" y="288.50828729281767" type="curve" smooth="yes"/>
      <point x="794.6187845303867" y="148.4364640883978"/>
      <point x="735.0994475138122" y="43.0"/>
      <point x="573.1602209944751" y="43.0" type="curve" smooth="yes"/>
      <point x="497.7955801104972" y="43.0"/>
      <point x="454.81215469613255" y="72.92817679558011"/>
      <point x="415.62983425414365" y="95.39226519337016" type="curve"/>
      <point x="415.62983425414365" y="5.7458563535911615" type="line"/>
      <point x="444.2209944751381" y="-4.535911602209944"/>
      <point x="506.16574585635357" y="-16.25414364640884"/>
      <point x="586.9834254143647" y="-16.25414364640884" type="curve" smooth="yes"/>
      <point x="790.0441988950276" y="-16.25414364640884"/>
      <point x="997.8729281767955" y="98.1049723756906"/>
      <point x="997.8729281767955" y="331.65193370165747" type="curve" smooth="yes"/>
      <point x="997.8729281767955" y="643.3314917127071"/>
      <point x="641.9447513812155" y="739.4309392265193"/>
      <point x="641.9447513812155" y="861.7955801104972" type="curve" smooth="yes"/>
      <point x="641.9447513812155" y="972.3867403314918"/>
      <point x="897.817679558011" y="1060.2983425414366"/>
      <point x="897.817679558011" y="1301.3259668508288" type="curve" smooth="yes"/>
      <point x="897.817679558011" y="1453.9005524861877"/>
      <point x="756.0165745856353" y="1542.53591160221"/>
      <point x="588.8839779005525" y="1542.53591160221" type="curve" smooth="yes"/>
      <point x="286.3425414364641" y="1542.53591160221"/>
      <point x="117.20994475138122" y="1334.011049723757"/>
      <point x="117.20994475138122" y="957.3204419889503" type="curve" smooth="yes"/>
    </contour>
  </outline>
</glyph>
<glyph name="ae" format="2">
  <advance width="1474.1878453038673"/>
  <unicode hex="00E6"/>
  <anchor x="705.6353591160221" y="0.0" name="bottom"/>
  <anchor x="759.7237569060774" y="1110.2817679558011" name="top"/>
  <outline>
    <contour>
      <point x="301.0552486187845" y="-16.535911602209943" type="curve" smooth="yes"/>
      <point x="448.8011049723757" y="-16.535911602209943"/>
      <point x="596.7016574585635" y="78.5303867403315"/>
      <point x="648.9281767955802" y="221.1657458563536" type="curve"/>
      <point x="714.3093922651933" y="76.98342541436465"/>
      <point x="851.0" y="-26.872928176795583"/>
      <point x="1072.0" y="-24.0" type="curve" smooth="yes"/>
      <point x="1199.0331491712707" y="-22.56353591160221"/>
      <point x="1335.867403314917" y="42.73480662983425"/>
      <point x="1403.0773480662983" y="110.1988950276243" type="curve"/>
      <point x="1380.6685082872928" y="154.70718232044197" type="line"/>
      <point x="1322.513812154696" y="107.3977900552486"/>
      <point x="1213.0773480662983" y="65.00552486187844"/>
      <point x="1110.475138121547" y="65.00552486187844" type="curve" smooth="yes"/>
      <point x="899.9723756906077" y="65.00552486187844"/>
      <point x="816.646408839779" y="268.6132596685083"/>
      <point x="816.646408839779" y="514.2099447513813" type="curve"/>
      <point x="1431.0055248618785" y="514.2099447513813" type="line"/>
      <point x="1438.132596685083" y="544.9558011049724"/>
      <point x="1442.6961325966852" y="587.5911602209944"/>
      <point x="1442.6961325966852" y="669.9723756906077" type="curve"/>
      <point x="1441.5690607734807" y="909.4088397790056"/>
      <point x="1295.7513812154696" y="1039.8453038674033"/>
      <point x="1060.7348066298343" y="1039.8453038674033" type="curve" smooth="yes"/>
      <point x="907.3591160220994" y="1039.8453038674033"/>
      <point x="792.121546961326" y="941.4585635359116"/>
      <point x="748.7513812154696" y="893.4861878453039" type="curve"/>
      <point x="699.707182320442" y="1001.2265193370166"/>
      <point x="599.5524861878453" y="1036.4364640883978"/>
      <point x="485.4696132596685" y="1036.4364640883978" type="curve" smooth="yes"/>
      <point x="304.50828729281767" y="1036.4364640883978"/>
      <point x="146.9281767955801" y="953.6187845303867"/>
      <point x="83.67403314917127" y="909.5193370165746" type="curve"/>
      <point x="112.92817679558011" y="853.756906077348" type="line"/>
      <point x="179.5745856353591" y="892.8674033149172"/>
      <point x="294.91160220994476" y="928.3314917127072"/>
      <point x="424.62983425414365" y="928.3314917127072" type="curve" smooth="yes"/>
      <point x="551.8950276243094" y="928.3314917127072"/>
      <point x="597.292817679558" y="834.5193370165746"/>
      <point x="597.292817679558" y="717.9005524861878" type="curve"/>
      <point x="597.292817679558" y="588.5082872928177" type="line"/>
      <point x="364.3922651933702" y="588.5082872928176"/>
      <point x="26.646408839779006" y="496.45303867403317"/>
      <point x="26.646408839779006" y="248.79005524861878" type="curve" smooth="yes"/>
      <point x="26.646408839779006" y="71.88950276243094"/>
      <point x="157.22099447513813" y="-16.535911602209943"/>
    </contour>
    <contour>
      <point x="816.8011049723757" y="561.0276243093923" type="line"/>
      <point x="819.6187845303867" y="790.5856353591159"/>
      <point x="893.292817679558" y="988.1546961325967"/>
      <point x="1058.6906077348067" y="988.1546961325967" type="curve" smooth="yes"/>
      <point x="1191.867403314917" y="988.1546961325967"/>
      <point x="1239.060773480663" y="872.9171270718232"/>
      <point x="1239.060773480663" y="652.3701657458563" type="curve" smooth="yes"/>
      <point x="1239.060773480663" y="632.1160220994475"/>
      <point x="1237.779005524862" y="602.9005524861878"/>
      <point x="1234.9060773480662" y="577.6187845303867" type="curve"/>
    </contour>
    <contour>
      <point x="383.68508287292815" y="88.31491712707182" type="curve" smooth="yes"/>
      <point x="299.16574585635357" y="88.31491712707182"/>
      <point x="229.33701657458562" y="164.90607734806628"/>
      <point x="229.33701657458562" y="275.52486187845307" type="curve" smooth="yes"/>
      <point x="229.33701657458562" y="442.56353591160223"/>
      <point x="400.17127071823205" y="536.9723756906077"/>
      <point x="597.292817679558" y="537.2541436464088" type="curve"/>
      <point x="597.292817679558" y="413.25414364640886"/>
      <point x="604.6022099447514" y="337.02762430939225"/>
      <point x="636.6740331491712" y="249.98342541436466" type="curve"/>
      <point x="578.9447513812155" y="158.4254143646409"/>
      <point x="483.5414364640884" y="88.31491712707182"/>
    </contour>
  </outline>
</glyph>
<glyph name="eth" format="2">
  <advance width="1018.0773480662983"/>
  <unicode hex="00F0"/>
  <outline>
    <contour>
      <point x="494.1160220994475" y="-22.0" type="curve" smooth="yes"/>
      <point x="859.0773480662983" y="-22.0"/>
      <point x="971.5580110497237" y="348.7292817679558"/>
      <point x="971.5580110497237" y="595.817679558011" type="curve" smooth="yes"/>
      <point x="971.5580110497237" y="997.817679558011"/>
      <point x="848.1657458563536" y="1334.1546961325967"/>
      <point x="497.7403314917127" y="1562.243093922652" type="curve"/>
      <point x="485.3314917127072" y="1507.342541436464" type="line"/>
      <point x="633.6850828729282" y="1707.7237569060774" type="line"/>
      <point x="568.3314917127071" y="1750.767955801105" type="line"/>
      <point x="420.9779005524862" y="1549.7955801104972" type="line"/>
      <point x="491.56906077348066" y="1564.779005524862" type="line"/>
      <point x="379.3425414364641" y="1631.2596685082872"/>
      <point x="312.09944751381215" y="1657.3314917127072"/>
      <point x="183.0" y="1692.2596685082872" type="curve"/>
      <point x="159.8011049723757" y="1631.6795580110497" type="line"/>
      <point x="242.50828729281767" y="1609.4254143646408"/>
      <point x="349.09944751381215" y="1558.4806629834254"/>
      <point x="416.45303867403317" y="1505.353591160221" type="curve"/>
      <point x="423.96132596685084" y="1560.2707182320441" type="line"/>
      <point x="259.0718232044199" y="1344.353591160221" type="line"/>
      <point x="330.45303867403317" y="1303.4917127071824" type="line"/>
      <point x="486.03314917127074" y="1513.254143646409" type="line"/>
      <point x="420.37016574585635" y="1500.8176795580112" type="line"/>
      <point x="652.5414364640884" y="1315.0276243093922"/>
      <point x="737.6629834254144" y="1134.0718232044198"/>
      <point x="759.6629834254144" y="961.707182320442" type="curve"/>
      <point x="712.4806629834254" y="998.0441988950276"/>
      <point x="642.2154696132596" y="1039.0"/>
      <point x="525.6795580110497" y="1039.0" type="curve" smooth="yes"/>
      <point x="258.58011049723757" y="1039.0"/>
      <point x="44.64640883977901" y="817.7237569060774"/>
      <point x="44.64640883977901" y="496.0" type="curve" smooth="yes"/>
      <point x="44.64640883977901" y="226.0"/>
      <point x="159.71823204419888" y="-22.0"/>
    </contour>
    <contour>
      <point x="510.6795580110497" y="28.0" type="curve" smooth="yes"/>
      <point x="315.82872928176795" y="28.0"/>
      <point x="268.7900552486188" y="296.6850828729282"/>
      <point x="268.7900552486188" y="513.0" type="curve" smooth="yes"/>
      <point x="268.7900552486188" y="745.5966850828729"/>
      <point x="338.7292817679558" y="984.0"/>
      <point x="520.5524861878453" y="984.0" type="curve" smooth="yes"/>
      <point x="635.2099447513813" y="984.0"/>
      <point x="699.9116022099447" y="928.171270718232"/>
      <point x="751.4861878453039" y="847.3701657458564" type="curve"/>
      <point x="760.3591160220994" y="767.3701657458564"/>
      <point x="759.6408839779006" y="626.0"/>
      <point x="759.6408839779006" y="527.0" type="curve" smooth="yes"/>
      <point x="759.6408839779006" y="241.91160220994476"/>
      <point x="693.939226519337" y="28.0"/>
    </contour>
  </outline>
</glyph>
<glyph name="thorn" format="2">
  <advance width="1043.220994475138"/>
  <unicode hex="00FE"/>
  <outline>
    <contour>
      <point x="-2.817679558011047" y="-448.76243093922653" type="line"/>
      <point x="446.29281767955797" y="-448.76243093922653" type="line"/>
      <point x="446.29281767955797" y="-412.1988950276243" type="line"/>
      <point x="305.43646408839777" y="-381.0718232044199" type="line"/>
      <point x="305.43646408839777" y="-161.12707182320443" type="line"/>
      <point x="299.69060773480663" y="19.546961325966855" type="line"/>
      <point x="333.5911602209945" y="-1.2265193370165726"/>
      <point x="421.54696132596683" y="-22.0"/>
      <point x="515.2486187845304" y="-22.0" type="curve" smooth="yes"/>
      <point x="778.4585635359116" y="-22.0"/>
      <point x="997.7845303867404" y="207.7292817679558"/>
      <point x="997.7845303867404" y="551.0718232044198" type="curve" smooth="yes"/>
      <point x="997.7845303867404" y="857.8453038674033"/>
      <point x="861.292817679558" y="1039.6906077348067"/>
      <point x="612.0662983425415" y="1039.6906077348067" type="curve" smooth="yes"/>
      <point x="447.30939226519337" y="1039.6906077348067"/>
      <point x="335.2099447513812" y="925.2983425414365"/>
      <point x="307.5911602209945" y="873.6077348066299" type="curve"/>
      <point x="309.0" y="1616.5469613259668" type="line"/>
      <point x="283.4475138121547" y="1638.2817679558011" type="line"/>
      <point x="240.5745856353591" y="1638.2817679558011" type="line"/>
      <point x="-14.46408839779005" y="1582.8950276243095" type="line"/>
      <point x="-14.46408839779005" y="1552.513812154696" type="line"/>
      <point x="114.49171270718233" y="1525.624309392265" type="line"/>
      <point x="114.77348066298342" y="-380.353591160221" type="line"/>
      <point x="-2.817679558011047" y="-412.1988950276243" type="line"/>
    </contour>
    <contour>
      <point x="495.58563535911605" y="30.535911602209943" type="curve" smooth="yes"/>
      <point x="400.3370165745856" y="30.535911602209943"/>
      <point x="334.18232044198896" y="77.3646408839779"/>
      <point x="307.5911602209945" y="115.15469613259668" type="curve"/>
      <point x="307.5911602209945" y="831.9723756906077" type="line"/>
      <point x="343.8563535911602" y="872.6740331491712"/>
      <point x="423.0055248618784" y="952.8121546961327"/>
      <point x="543.353591160221" y="952.8121546961327" type="curve" smooth="yes"/>
      <point x="673.292817679558" y="952.8121546961327"/>
      <point x="776.121546961326" y="826.8729281767955"/>
      <point x="776.121546961326" y="526.3646408839779" type="curve" smooth="yes"/>
      <point x="776.121546961326" y="202.8729281767956"/>
      <point x="682.6906077348066" y="30.535911602209943"/>
    </contour>
  </outline>
</glyph>
<glyph name="dcroat" format="2">
  <advance width="1043.7845303867402"/>
  <unicode hex="0111"/>
  <anchor x="534.6243093922652" y="3.552713678800501e-15" name="bottom"/>
  <anchor x="515.0" y="576.0" name="center"/>
  <anchor x="333.0" y="1158.0" name="top"/>
  <anchor x="1051.110497237569" y="1110.2817679558011" name="topright"/>
  <outline>
    <contour>
      <point x="1028.7845303867402" y="1292.0" type="line"/>
      <point x="435.8563535911602" y="1292.0" type="line"/>
      <point x="435.8563535911603" y="1226.364640883978" type="line"/>
      <point x="1028.7845303867402" y="1226.364640883978" type="line"/>
    </contour>
    <component base="d"/>
  </outline>
</glyph>
<glyph name="Hbar" format="2">
  <advance width="1438.4475138121547"/>
  <unicode hex="0126"/>
  <anchor x="718.0055248618785" y="0.0" name="bottom"/>
  <anchor x="1415.7016574585634" y="0.0" name="bottomright"/>
  <anchor x="720.2872928176796" y="743.0" name="center"/>
  <anchor x="718.5966850828729" y="1486.0" name="top"/>
  <anchor x="10.07182320441989" y="1486.0" name="topleft"/>
  <outline>
    <contour>
      <point x="171.61878453038673" y="68.40883977900552" type="line"/>
      <point x="32.59116022099448" y="36.56353591160221" type="line"/>
      <point x="32.59116022099448" y="0.0" type="line"/>
      <point x="536.2983425414365" y="0.0" type="line"/>
      <point x="536.2983425414365" y="36.56353591160221" type="line"/>
      <point x="391.58011049723757" y="68.40883977900552" type="line"/>
      <point x="391.58011049723757" y="652.8729281767955" type="line"/>
      <point x="1047.1491712707182" y="652.8729281767955" type="line"/>
      <point x="1047.1491712707182" y="68.40883977900552" type="line"/>
      <point x="902.9944751381215" y="36.56353591160221" type="line"/>
      <point x="902.9944751381215" y="0.0" type="line"/>
      <point x="1406.1381215469614" y="0.0" type="line"/>
      <point x="1406.1381215469614" y="36.56353591160221" type="line"/>
      <point x="1267.110497237569" y="68.40883977900552" type="line"/>
      <point x="1267.110497237569" y="1417.745856353591" type="line"/>
      <point x="1404.8563535911603" y="1450.0" type="line"/>
      <point x="1404.8563535911603" y="1486.0" type="line"/>
      <point x="902.9944751381215" y="1486.0" type="line"/>
      <point x="902.9944751381215" y="1450.0" type="line"/>
      <point x="1047.1491712707182" y="1417.745856353591" type="line"/>
      <point x="1047.1491712707182" y="716.0" type="line"/>
      <point x="391.58011049723757" y="716.0" type="line"/>
      <point x="391.58011049723757" y="1417.745856353591" type="line"/>
      <point x="536.0165745856353" y="1450.0" type="line"/>
      <point x="536.0165745856353" y="1486.0" type="line"/>
      <point x="33.59116022099448" y="1486.0" type="line"/>
      <point x="33.59116022099448" y="1450.0" type="line"/>
      <point x="171.61878453038673" y="1417.745856353591" type="line"/>
    </contour>
    <contour>
      <point x="1403.1381215469614" y="1107.8176795580112" type="line"/>
      <point x="33.745856353591165" y="1107.8176795580112" type="line"/>
      <point x="33.745856353591165" y="1045.0" type="line"/>
      <point x="1403.1381215469614" y="1045.0" type="line"/>
    </contour>
  </outline>
</glyph>
<glyph name="hbar" format="2">
  <advance width="1083.1381215469614"/>
  <unicode hex="0127"/>
  <anchor x="542.6408839779006" y="0.0" name="bottom"/>
  <anchor x="277.6574585635359" y="1300.546961325967" name="center"/>
  <anchor x="195.16022099447514" y="1600.3093922651933" name="top"/>
  <outline>
    <contour>
      <point x="15.15469613259669" y="1292.0" type="line"/>
      <point x="15.15469613259669" y="1229.1823204419888" type="line"/>
      <point x="615.2651933701658" y="1229.1823204419888" type="line"/>
      <point x="615.2651933701658" y="1292.0" type="line"/>
    </contour>
    <component base="h"/>
  </outline>
</glyph>
<glyph name="iogonek" format="2">
  <advance width="493.8121546961326"/>
  <unicode hex="012F"/>
  <anchor x="340.29834254143645" y="0.0" name="bottom"/>
  <anchor x="420.58011049723757" y="20.0" name="ogonek"/>
  <anchor x="254.85082872928177" y="1437.5027624309391" name="top"/>
  <outline>
    <contour>
      <point x="223.5966850828729" y="-477.97237569060775" type="curve" smooth="yes"/>
      <point x="339.96132596685084" y="-477.97237569060775"/>
      <point x="388.09392265193367" y="-440.38121546961327"/>
      <point x="422.2651933701657" y="-412.30939226519337" type="curve"/>
      <point x="422.54696132596683" y="-325.0220994475138" type="line"/>
      <point x="391.75690607734805" y="-343.4585635359116"/>
      <point x="361.62983425414365" y="-368.0497237569061"/>
      <point x="296.4475138121547" y="-368.0497237569061" type="curve" smooth="yes"/>
      <point x="233.5303867403315" y="-368.0497237569061"/>
      <point x="172.01104972375688" y="-343.28729281767954"/>
      <point x="172.01104972375688" y="-244.8121546961326" type="curve" smooth="yes"/>
      <point x="172.01104972375688" y="-170.32044198895028"/>
      <point x="233.78453038674033" y="-51.56353591160221"/>
      <point x="327.2651933701657" y="0.7182320441988951" type="curve"/>
      <point x="265.5414364640884" y="45.86187845303867" type="line"/>
      <point x="225.32596685082873" y="0.7182320441988951" type="line"/>
      <point x="110.82872928176796" y="-64.69060773480663"/>
      <point x="38.13812154696133" y="-189.30939226519337"/>
      <point x="38.13812154696133" y="-291.90055248618785" type="curve" smooth="yes"/>
      <point x="38.13812154696133" y="-417.25414364640886"/>
      <point x="137.9171270718232" y="-477.97237569060775"/>
    </contour>
    <component base="i" xOffset="-1.4210854715202004e-14"/>
  </outline>
</glyph>
<glyph name="idotless" format="2">
  <advance width="493.8121546961326"/>
  <unicode hex="0131"/>
  <anchor x="340.29834254143645" y="0.0" name="bottom"/>
  <anchor x="420.58011049723757" y="20.0" name="ogonek"/>
  <anchor x="254.85082872928177" y="1110.0" name="top"/>
  <outline>
    <contour>
      <point x="157.4475138121547" y="68.40883977900552" type="line"/>
      <point x="40.85635359116022" y="36.56353591160221" type="line"/>
      <point x="40.85635359116022" y="0.0" type="line"/>
      <point x="472.36464088397787" y="0.0" type="line"/>
      <point x="472.36464088397787" y="36.56353591160221" type="line"/>
      <point x="354.67403314917124" y="68.40883977900552" type="line"/>
      <point x="354.3922651933701" y="995.7458563535912" type="line"/>
      <point x="331.2209944751381" y="1017.0441988950276" type="line"/>
      <point x="277.88397790055245" y="1017.0441988950276" type="line"/>
      <point x="35.67403314917128" y="947.292817679558" type="line"/>
      <point x="35.67403314917128" y="916.9116022099447" type="line"/>
      <point x="157.4475138121547" y="878.5303867403316" type="line"/>
    </contour>
  </outline>
</glyph>
<glyph name="kgreenlandic" format="2">
  <advance width="971.1767955801105"/>
  <unicode hex="0138"/>
  <outline>
    <contour>
      <point x="126.4364640883978" y="68.12707182320442" type="line"/>
      <point x="10.563535911602212" y="36.28176795580111" type="line"/>
      <point x="10.563535911602212" y="0.0" type="line"/>
      <point x="426.07182320441984" y="0.0" type="line"/>
      <point x="426.07182320441984" y="35.7182320441989" type="line"/>
      <point x="324.38121546961327" y="68.12707182320442" type="line"/>
      <point x="324.38121546961327" y="226.14364640883977" type="line"/>
      <point x="319.3812154696132" y="334.9447513812155" type="line"/>
      <point x="459.82872928176795" y="499.1381215469613" type="line"/>
      <point x="713.3149171270718" y="68.12707182320442" type="line"/>
      <point x="592.7955801104972" y="36.56353591160221" type="line"/>
      <point x="592.7955801104972" y="0.0" type="line"/>
      <point x="1048.6408839779006" y="0.0" type="line"/>
      <point x="1048.6408839779006" y="38.0" type="line"/>
      <point x="937.9944751381215" y="68.12707182320442" type="line"/>
      <point x="587.2486187845303" y="626.8839779005525" type="line"/>
      <point x="849.7182320441989" y="935.0" type="line"/>
      <point x="970.2265193370165" y="966.0" type="line"/>
      <point x="970.2265193370165" y="1005.0" type="line"/>
      <point x="612.1657458563536" y="1005.0" type="line"/>
      <point x="612.1657458563536" y="966.0" type="line"/>
      <point x="745.8453038674033" y="934.0" type="line"/>
      <point x="320.09944751381215" y="417.0718232044199" type="line"/>
      <point x="324.38121546961327" y="584.2596685082873" type="line"/>
      <point x="323.81767955801104" y="996.0276243093923" type="line"/>
      <point x="297.11049723756906" y="1017.0441988950276" type="line"/>
      <point x="245.0552486187845" y="1017.0441988950276" type="line"/>
      <point x="4.662983425414367" y="947.292817679558" type="line"/>
      <point x="4.662983425414367" y="916.9116022099447" type="line"/>
      <point x="126.4364640883978" y="878.5303867403316" type="line"/>
    </contour>
  </outline>
</glyph>
<glyph name="Lslash" format="2">
  <advance width="1098.2375690607735"/>
  <unicode hex="0141"/>
  <anchor x="655.0165745856353" y="0.0" name="bottom"/>
  <anchor x="646.8453038674033" y="743.9999999999999" name="center"/>
  <anchor x="387.2707182320442" y="1486.0" name="top"/>
  <anchor x="861.585635359116" y="1110.2817679558011" name="topright"/>
  <outline>
    <contour>
      <point x="239.87292817679557" y="754.0" type="line"/>
      <point x="32.87292817679558" y="666.0" type="line"/>
      <point x="32.87292817679558" y="586.8453038674033" type="line"/>
      <point x="239.87292817679557" y="672.8453038674033" type="line"/>
      <point x="271.87292817679554" y="685.4088397790056" type="line"/>
      <point x="872.8729281767955" y="947.9723756906077" type="line"/>
      <point x="872.8729281767955" y="1032.0" type="line"/>
      <point x="273.87292817679554" y="768.0" type="line"/>
    </contour>
    <component base="L" xOffset="12.872928176795583"/>
  </outline>
</glyph>
<glyph name="lslash" format="2">
  <advance width="586.6187845303867"/>
  <unicode hex="0142"/>
  <anchor x="295.6629834254144" y="0.0" name="bottom"/>
  <anchor x="294.646408839779" y="1634.0" name="top"/>
  <anchor x="561.5138121546961" y="1110.2817679558011" name="topright"/>
  <outline>
    <contour>
      <point x="244.33701657458565" y="866.0" type="line"/>
      <point x="30.856353591160225" y="747.182320441989" type="line"/>
      <point x="30.856353591160225" y="668.3646408839779" type="line"/>
      <point x="244.33701657458565" y="785.182320441989" type="line"/>
      <point x="327.7458563535912" y="827.182320441989" type="line"/>
      <point x="551.5082872928177" y="952.0" type="line"/>
      <point x="551.5082872928177" y="1031.8176795580112" type="line"/>
      <point x="327.7458563535912" y="907.0" type="line"/>
    </contour>
    <contour>
      <point x="194.85082872928177" y="68.69060773480663" type="line"/>
      <point x="76.10497237569062" y="36.28176795580111" type="line"/>
      <point x="76.10497237569062" y="0.0" type="line"/>
      <point x="505.5414364640884" y="0.0" type="line"/>
      <point x="505.5414364640884" y="36.28176795580111" type="line"/>
      <point x="387.9502762430939" y="68.40883977900552" type="line"/>
      <point x="387.9502762430939" y="1615.1381215469614" type="line"/>
      <point x="362.3977900552486" y="1636.8729281767955" type="line"/>
      <point x="322.08839779005524" y="1636.8729281767955" type="line"/>
      <point x="66.6132596685083" y="1581.486187845304" type="line"/>
      <point x="66.6132596685083" y="1551.1049723756905" type="line"/>
      <point x="194.85082872928177" y="1524.2154696132598" type="line"/>
    </contour>
  </outline>
</glyph>
<glyph name="Eng" format="2">
  <advance width="1373.756906077348"/>
  <unicode hex="014A"/>
  <outline>
    <contour>
      <point x="166.82872928176795" y="74.32596685082873" type="line"/>
      <point x="11.038674033149178" y="36.0" type="line"/>
      <point x="11.038674033149178" y="0.0" type="line"/>
      <point x="419.11049723756906" y="0.0" type="line"/>
      <point x="419.11049723756906" y="36.0" type="line"/>
      <point x="260.6574585635359" y="74.32596685082873" type="line"/>
      <point x="244.98342541436466" y="1298.900552486188" type="line"/>
      <point x="353.50276243093924" y="1110.5801104972377" type="line"/>
      <point x="1016.9779005524862" y="36.15469613259669" type="line"/>
      <point x="1011.060773480663" y="-58.56353591160221"/>
      <point x="929.9171270718232" y="-226.11602209944752"/>
      <point x="746.646408839779" y="-317.7900552486188" type="curve"/>
      <point x="774.3370165745856" y="-367.6077348066298" type="line"/>
      <point x="1023.878453038674" y="-289.5414364640884"/>
      <point x="1205.0276243093922" y="-48.983425414364646"/>
      <point x="1207.1823204419888" y="195.9613259668508" type="curve" smooth="yes"/>
      <point x="1219.3922651933701" y="1413.5469613259668" type="line"/>
      <point x="1369.2817679558011" y="1450.0" type="line"/>
      <point x="1369.2817679558011" y="1486.0" type="line"/>
      <point x="974.1381215469613" y="1486.0" type="line"/>
      <point x="974.1381215469613" y="1450.0" type="line"/>
      <point x="1126.4364640883978" y="1411.9558011049724" type="line"/>
      <point x="1140.646408839779" y="210.7955801104972" type="line"/>
      <point x="1009.9171270718232" y="454.1270718232044" type="line"/>
      <point x="371.89502762430936" y="1486.0" type="line"/>
      <point x="25.530386740331494" y="1486.0" type="line"/>
      <point x="25.530386740331494" y="1445.646408839779" type="line"/>
      <point x="81.50276243093924" y="1437.745856353591"/>
      <point x="174.03867403314916" y="1376.3867403314916"/>
      <point x="178.32044198895028" y="1342.1160220994475" type="curve"/>
    </contour>
  </outline>
</glyph>
<glyph name="eng" format="2">
  <advance width="1074.2375690607735"/>
  <unicode hex="014B"/>
  <outline>
    <contour>
      <point x="126.43646408839778" y="68.40883977900552" type="line"/>
      <point x="9.845303867403317" y="36.56353591160221" type="line"/>
      <point x="9.845303867403317" y="0.0" type="line"/>
      <point x="437.4088397790055" y="0.0" type="line"/>
      <point x="437.4088397790055" y="36.56353591160221" type="line"/>
      <point x="323.6629834254143" y="68.40883977900552" type="line"/>
      <point x="323.6629834254143" y="807.4088397790056" type="line"/>
      <point x="404.0662983425414" y="873.6298342541436"/>
      <point x="473.20441988950273" y="911.8397790055249"/>
      <point x="594.7790055248619" y="911.8397790055249" type="curve" smooth="yes"/>
      <point x="734.3922651933701" y="911.8397790055249"/>
      <point x="757.4917127071823" y="800.5911602209944"/>
      <point x="757.4917127071823" y="628.6795580110497" type="curve" smooth="yes"/>
      <point x="757.4917127071823" y="63.392265193370164" type="line" smooth="yes"/>
      <point x="757.4917127071823" y="-255.20994475138122"/>
      <point x="718.3812154696133" y="-337.4640883977901"/>
      <point x="639.8729281767955" y="-392.95580110497235" type="curve" smooth="yes"/>
      <point x="606.182320441989" y="-416.70165745856355"/>
      <point x="546.6187845303867" y="-428.292817679558"/>
      <point x="529.4917127071823" y="-426.292817679558" type="curve"/>
      <point x="534.4364640883978" y="-475.18232044198896" type="line"/>
      <point x="556.9281767955802" y="-478.1546961325967"/>
      <point x="583.1988950276243" y="-480.69060773480663"/>
      <point x="611.4419889502763" y="-480.69060773480663" type="curve" smooth="yes"/>
      <point x="801.3314917127071" y="-480.69060773480663"/>
      <point x="952.4088397790055" y="-299.88950276243094"/>
      <point x="952.1270718232043" y="-14.795580110497244" type="curve" smooth="yes"/>
      <point x="951.8453038674033" y="635.707182320442" type="line" smooth="yes"/>
      <point x="951.8453038674033" y="878.0773480662983"/>
      <point x="893.1657458563536" y="1030.3812154696132"/>
      <point x="670.8729281767955" y="1030.3812154696132" type="curve" smooth="yes"/>
      <point x="508.81767955801104" y="1030.3812154696132"/>
      <point x="391.22651933701655" y="926.9171270718232"/>
      <point x="321.9723756906077" y="836.9447513812155" type="curve"/>
      <point x="323.09944751381215" y="918.9723756906077" type="line"/>
      <point x="323.09944751381215" y="995.7458563535912" type="line"/>
      <point x="296.3922651933701" y="1016.7624309392265" type="line"/>
      <point x="246.33701657458562" y="1017.0441988950276" type="line"/>
      <point x="4.662983425414364" y="947.5745856353591" type="line"/>
      <point x="4.662983425414364" y="916.9116022099447" type="line"/>
      <point x="126.43646408839778" y="878.5303867403316" type="line"/>
    </contour>
  </outline>
</glyph>
<glyph name="OE" format="2">
  <advance width="1997.486187845304"/>
  <unicode hex="0152"/>
  <outline>
    <contour>
      <point x="976.2099447513812" y="53.77348066298343" type="curve"/>
      <point x="976.2099447513812" y="0.0" type="line"/>
      <point x="1900.585635359116" y="0.0" type="line"/>
      <point x="1972.4475138121547" y="365.1767955801105" type="line"/>
      <point x="1871.988950276243" y="390.48618784530385" type="line"/>
      <point x="1735.0276243093922" y="87.24309392265192" type="line"/>
      <point x="1189.53591160221" y="52.53591160220994" type="line"/>
      <point x="1189.53591160221" y="733.5635359116022" type="line"/>
      <point x="1525.6077348066299" y="723.9723756906077" type="line"/>
      <point x="1573.132596685083" y="519.1767955801105" type="line"/>
      <point x="1626.1602209944751" y="519.1767955801105" type="line"/>
      <point x="1626.1602209944751" y="1000.6243093922652" type="line"/>
      <point x="1573.132596685083" y="1000.6243093922652" type="line"/>
      <point x="1525.6077348066299" y="803.6187845303867" type="line"/>
      <point x="1189.53591160221" y="792.3093922651934" type="line"/>
      <point x="1189.53591160221" y="1431.3093922651933" type="line"/>
      <point x="1665.8342541436464" y="1412.4198895027625" type="line"/>
      <point x="1768.3591160220994" y="1168.6132596685084" type="line"/>
      <point x="1854.364640883978" y="1168.6132596685084" type="line"/>
      <point x="1824.6740331491712" y="1486.0" type="line"/>
      <point x="976.2099447513812" y="1486.0" type="line"/>
      <point x="976.2099447513812" y="1455.1988950276243" type="line"/>
      <point x="902.1546961325967" y="1486.9447513812154"/>
      <point x="803.3646408839779" y="1502.8453038674033"/>
      <point x="709.8453038674033" y="1502.8453038674033" type="curve" smooth="yes"/>
      <point x="308.2596685082873" y="1502.8453038674033"/>
      <point x="39.646408839779006" y="1210.867403314917"/>
      <point x="39.646408839779006" y="728.3646408839779" type="curve" smooth="yes"/>
      <point x="39.646408839779006" y="285.43646408839777"/>
      <point x="253.78453038674033" y="-22.845303867403313"/>
      <point x="677.5359116022099" y="-22.845303867403313" type="curve" smooth="yes"/>
      <point x="779.0552486187845" y="-19.972375690607734"/>
      <point x="891.5635359116022" y="6.872928176795581"/>
    </contour>
    <contour>
      <point x="688.9447513812155" y="29.690607734806633" type="curve" smooth="yes"/>
      <point x="416.8563535911602" y="29.690607734806633"/>
      <point x="279.96132596685084" y="293.76243093922653"/>
      <point x="279.96132596685084" y="721.182320441989" type="curve" smooth="yes"/>
      <point x="279.96132596685084" y="1211.6187845303868"/>
      <point x="441.0662983425414" y="1450.3093922651933"/>
      <point x="695.2265193370166" y="1450.3093922651933" type="curve" smooth="yes"/>
      <point x="856.8066298342542" y="1450.3093922651933"/>
      <point x="930.9171270718232" y="1344.2983425414366"/>
      <point x="971.1381215469613" y="1242.4696132596684" type="curve"/>
      <point x="971.1381215469613" y="248.3370165745856" type="line"/>
      <point x="920.8618784530387" y="135.33701657458562"/>
      <point x="839.3701657458564" y="29.690607734806633"/>
    </contour>
  </outline>
</glyph>
<glyph name="tbar" format="2">
  <advance width="608.7955801104972"/>
  <unicode hex="0167"/>
  <anchor x="340.4088397790055" y="0.0" name="bottom"/>
  <anchor x="257.3977900552486" y="556.0" name="center"/>
  <anchor x="298.72375690607737" y="1361.2707182320441" name="top"/>
  <anchor x="570.5966850828729" y="1110.2817679558011" name="topright"/>
  <outline>
    <contour>
      <point x="556.5303867403314" y="584.8453038674033" type="line"/>
      <point x="23.47513812154697" y="584.8453038674033" type="line"/>
      <point x="23.47513812154697" y="519.2099447513813" type="line"/>
      <point x="556.5303867403314" y="519.2099447513813" type="line"/>
    </contour>
    <component base="t"/>
  </outline>
</glyph>
<glyph name="Schwa" format="2">
  <advance width="1367.596685082873"/>
  <unicode hex="018F"/>
  <anchor x="684.3742320441988" y="0.0" name="bottom"/>
  <anchor x="684.3742320441988" y="1486.0" name="top"/>
  <outline>
    <contour>
      <point x="658.4972375690608" y="-22.0" type="curve" smooth="yes"/>
      <point x="1047.292817679558" y="-22.0"/>
      <point x="1327.9502762430939" y="266.29834254143645"/>
      <point x="1327.9502762430939" y="765.3701657458563" type="curve" smooth="yes"/>
      <point x="1327.9502762430939" y="1223.0"/>
      <point x="1092.1767955801106" y="1502.6906077348067"/>
      <point x="685.1602209944751" y="1503.4088397790056" type="curve" smooth="yes"/>
      <point x="386.15469613259665" y="1504.1270718232045"/>
      <point x="268.24309392265195" y="1431.6906077348067"/>
      <point x="134.54696132596683" y="1427.3812154696132" type="curve"/>
      <point x="155.12707182320443" y="1088.7403314917128" type="line"/>
      <point x="281.4917127071823" y="1088.7403314917128" type="line"/>
      <point x="328.90055248618785" y="1332.9558011049724" type="line"/>
      <point x="373.3756906077348" y="1407.2651933701657"/>
      <point x="535.110497237569" y="1449.8729281767955"/>
      <point x="676.4530386740331" y="1449.8729281767955" type="curve" smooth="yes"/>
      <point x="952.6961325966852" y="1449.8729281767955"/>
      <point x="1086.2265193370165" y="1175.9779005524863"/>
      <point x="1086.2265193370165" y="774.7348066298342" type="curve"/>
      <point x="58.28176795580111" y="775.2983425414365" type="line"/>
      <point x="48.0" y="727.889502762431"/>
      <point x="41.408839779005525" y="664.1988950276243"/>
      <point x="41.408839779005525" y="586.707182320442" type="curve"/>
      <point x="41.408839779005525" y="232.68508287292818"/>
      <point x="248.767955801105" y="-22.0"/>
    </contour>
    <contour>
      <point x="665.9889502762431" y="29.690607734806633" type="curve" smooth="yes"/>
      <point x="384.7348066298342" y="29.690607734806633"/>
      <point x="272.75138121546956" y="321.03867403314916"/>
      <point x="272.75138121546956" y="542.1657458563536" type="curve" smooth="yes"/>
      <point x="272.75138121546956" y="612.2817679558011"/>
      <point x="280.46961325966845" y="673.0165745856353"/>
      <point x="285.62430939226516" y="709.0165745856353" type="curve"/>
      <point x="1085.0718232044198" y="709.0165745856353" type="line"/>
      <point x="1085.0718232044198" y="298.1049723756906"/>
      <point x="933.3646408839779" y="29.690607734806633"/>
    </contour>
  </outline>
</glyph>
<glyph name="Uhorn" format="2">
  <advance width="1336.889502762431"/>
  <unicode hex="01AF"/>
  <anchor x="774.0" y="0.0" name="bottom"/>
  <anchor x="1340.0" y="20.0" name="ogonek"/>
  <anchor x="734.2707182320441" y="1486.0" name="top"/>
  <anchor x="1415.243093922652" y="1486.0" name="topright"/>
  <outline>
    <contour>
      <point x="1156.9060773480662" y="1486.0" type="curve"/>
      <point x="1160.7237569060774" y="1412.0" type="line"/>
      <point x="1354.3591160220994" y="1412.0"/>
      <point x="1472.4585635359117" y="1494.4198895027625"/>
      <point x="1472.1767955801106" y="1687.0" type="curve" smooth="yes"/>
      <point x="1472.1767955801106" y="1701.0"/>
      <point x="1470.1767955801106" y="1717.0"/>
      <point x="1467.1767955801106" y="1730.0" type="curve"/>
      <point x="1302.4696132596684" y="1730.0" type="line"/>
      <point x="1305.4696132596684" y="1718.0"/>
      <point x="1308.4696132596684" y="1706.5911602209944"/>
      <point x="1308.4696132596684" y="1685.1823204419888" type="curve" smooth="yes"/>
      <point x="1308.4696132596684" y="1618.1381215469614"/>
      <point x="1291.7237569060774" y="1486.0"/>
    </contour>
    <component base="U"/>
  </outline>
</glyph>
<glyph name="uhorn" format="2">
  <advance width="1043.657458563536"/>
  <unicode hex="01B0"/>
  <anchor x="610.0" y="0.0" name="bottom"/>
  <anchor x="892.0220994475138" y="20.0" name="ogonek"/>
  <anchor x="518.6961325966851" y="1110.5635359116022" name="top"/>
  <anchor x="917.7458563535911" y="1038.7403314917128" name="topright"/>
  <outline>
    <contour>
      <point x="924.5580110497237" y="1238.0276243093922" type="line"/>
      <point x="930.5580110497237" y="1215.6187845303866"/>
      <point x="936.1491712707182" y="1187.3812154696134"/>
      <point x="936.1491712707182" y="1149.353591160221" type="curve" smooth="yes"/>
      <point x="936.1491712707182" y="1059.353591160221"/>
      <point x="900.7403314917127" y="1016.3259668508288"/>
      <point x="854.3756906077348" y="1016.3259668508288" type="curve"/>
      <point x="807.1436464088398" y="975.110497237569" type="line"/>
      <point x="828.7348066298342" y="935.4475138121547" type="line"/>
      <point x="977.3093922651933" y="935.4475138121547"/>
      <point x="1108.6795580110497" y="988.4364640883978"/>
      <point x="1108.6795580110497" y="1165.0994475138123" type="curve" smooth="yes"/>
      <point x="1108.6795580110497" y="1190.6906077348067"/>
      <point x="1102.0883977900553" y="1218.46408839779"/>
      <point x="1095.0883977900553" y="1238.0276243093922" type="curve"/>
    </contour>
    <component base="u"/>
  </outline>
</glyph>
